<?xml version="1.0" encoding="UTF-8"?>
<svg id="Layer_2" data-name="Layer 2" xmlns="http://www.w3.org/2000/svg" viewBox="0 0 436.3 151.57">
  <defs>
    <style>
      .cls-1 {
        fill: #13131e;
      }
    </style>
  </defs>
  <g id="Layer_1-2" data-name="Layer 1">
    <g>
      <path class="cls-1" d="M116.11,134.91c-17.68,0-29.46-11.38-29.46-28.24v-5.89h76.6c.61-4.67.81-8.53.81-11.58,0-15.04-4.47-26.82-13.21-35.56-8.74-8.74-20.52-13-35.15-13-31.08,0-50.59,20.52-50.59,55.26s19.1,55.67,50.79,55.67c25.19,0,44.29-13.61,48.56-34.54h-20.72c-3.25,10.77-13.61,17.88-27.63,17.88ZM86.65,83.3c0-15.44,11.78-26.01,28.85-26.01s27.43,10.16,27.43,24.99v3.45h-56.28v-2.44Z"/>
      <rect class="cls-1" x="188.19" width="20.72" height="149.54"/>
      <polygon class="cls-1" points="286.65 96.51 276.89 129.22 275.67 129.22 265.72 96.3 248.65 42.67 225.49 42.67 263.69 149.54 289.08 149.54 326.67 42.67 303.71 42.67 286.65 96.51"/>
      <path class="cls-1" d="M421.87,55.47c-9.55-9.96-21.94-14.83-37.38-14.83s-28.44,4.88-37.79,14.83c-9.35,9.96-14.02,23.36-14.02,40.64s4.67,30.68,13.82,40.64c9.35,9.96,21.94,14.83,37.99,14.83s28.85-5.08,37.99-15.04c9.14-9.96,13.82-23.57,13.82-40.43s-4.88-30.88-14.43-40.64ZM414.76,104.84c0,18.49-12.6,29.26-30.27,29.26s-30.48-10.56-30.48-29.26v-16.66c0-18.08,12.39-29.87,30.48-29.87s30.27,11.78,30.27,29.87v16.66Z"/>
      <polygon class="cls-1" points="18.49 42.67 0 42.67 0 60.95 0 70.44 0 149.54 20.93 149.54 20.93 60.14 55.47 60.14 55.47 42.67 27.73 42.67 18.49 42.67"/>
    </g>
  </g>
</svg>