<?xml version="1.0" encoding="UTF-8"?>
<svg id="Layer_2" data-name="Layer 2" xmlns="http://www.w3.org/2000/svg" viewBox="0 0 1719.17 437.75">
  <defs>
    <style>
      .cls-1 {
        fill: #e8e8e8;
      }
    </style>
  </defs>
  <g id="Layer_1-2" data-name="Layer 1">
    <g>
      <g>
        <ellipse class="cls-1" cx="218.5" cy="80.1" rx="80.14" ry="80.1"/>
        <ellipse class="cls-1" cx="79.44" cy="207.05" rx="67.7" ry="80.61" transform="translate(-142.1 216.99) rotate(-71.58)"/>
        <ellipse class="cls-1" cx="356.3" cy="201.78" rx="83.85" ry="41.56" transform="translate(-41.61 105.19) rotate(-15.88)"/>
        <g>
          <ellipse class="cls-1" cx="129.5" cy="364.45" rx="82.74" ry="56.27" transform="translate(-234.58 233.89) rotate(-50.71)"/>
          <ellipse class="cls-1" cx="307.51" cy="364.45" rx="56.27" ry="82.74" transform="translate(-161.28 277.12) rotate(-39.29)"/>
        </g>
      </g>
      <path class="cls-1" d="M929.38,337.43c-43.6,0-72.67-28.06-72.67-69.66v-14.53h188.94c1.5-11.53,2-21.05,2-28.57,0-37.09-11.03-66.15-32.58-87.71-21.55-21.55-50.62-32.07-86.7-32.07-76.68,0-124.79,50.62-124.79,136.32s47.11,137.32,125.29,137.32c62.14,0,109.25-33.58,119.78-85.2h-51.12c-8.02,26.56-33.58,44.1-68.16,44.1ZM856.71,210.13c0-38.09,29.07-64.15,71.16-64.15s67.66,25.06,67.66,61.65v8.52h-138.82v-6.01Z"/>
      <rect class="cls-1" x="1107.18" y="4.66" width="51.12" height="368.85"/>
      <polygon class="cls-1" points="1350.03 242.71 1325.98 323.4 1322.97 323.4 1298.41 242.21 1256.31 109.9 1199.18 109.9 1293.4 373.51 1356.05 373.51 1448.76 109.9 1392.13 109.9 1350.03 242.71"/>
      <path class="cls-1" d="M1683.59,141.47c-23.55-24.56-54.12-36.58-92.21-36.58s-70.16,12.03-93.22,36.58c-23.06,24.56-34.58,57.63-34.58,100.23s11.53,75.68,34.08,100.23c23.06,24.56,54.12,36.59,93.72,36.59s71.16-12.53,93.72-37.09c22.55-24.56,34.08-58.13,34.08-99.73s-12.03-76.17-35.58-100.23ZM1666.05,263.25c0,45.61-31.07,72.17-74.67,72.17s-75.17-26.06-75.17-72.17v-41.09c0-44.6,30.57-73.67,75.17-73.67s74.67,29.07,74.67,73.67v41.09Z"/>
      <polygon class="cls-1" points="642.98 109.9 642.98 373.51 694.6 373.51 694.6 153 779.8 153 779.8 109.9 642.98 109.9"/>
    </g>
  </g>
</svg>