<?xml version="1.0" encoding="UTF-8"?>
<svg id="Layer_2" data-name="Layer 2" xmlns="http://www.w3.org/2000/svg" viewBox="0 0 215.95 215.95">
  <defs>
    <style>
      .cls-1 {
        fill: none;
        stroke: #3f28b2;
        stroke-miterlimit: 10;
        stroke-width: .25px;
      }
    </style>
  </defs>
  <g id="Layer_1-2" data-name="Layer 1">
    <g>
      <g>
        <g>
          <path class="cls-1" d="M184.24,31.71c-11.25-11.25-56.56,23.89-76.26,76.26,52.37-19.7,87.51-65.01,76.26-76.26Z"/>
          <path class="cls-1" d="M31.71,184.24c11.25,11.25,56.56-23.89,76.26-76.26-52.37,19.7-87.51,65.01-76.26,76.26Z"/>
          <path class="cls-1" d="M107.97,107.98c19.7,52.37,65.01,87.51,76.26,76.26,11.25-11.25-23.89-56.56-76.26-76.26Z"/>
          <path class="cls-1" d="M31.71,31.71c-11.25,11.25,23.89,56.56,76.26,76.26C88.28,55.6,42.97,20.46,31.71,31.71Z"/>
        </g>
        <g>
          <path class="cls-1" d="M185.36,34.44c-10.85-11.42-56.57,22.21-77.39,73.54,52.32-18.17,88.24-62.12,77.39-73.54Z"/>
          <path class="cls-1" d="M30.59,181.51c10.85,11.42,56.57-22.21,77.39-73.54-52.32,18.17-88.24,62.12-77.39,73.54Z"/>
          <path class="cls-1" d="M107.97,107.98c18.17,52.32,62.12,88.24,73.54,77.39,11.42-10.85-22.21-56.57-73.54-77.39Z"/>
          <path class="cls-1" d="M34.44,30.59c-11.42,10.85,22.21,56.57,73.54,77.39C89.8,55.65,45.86,19.73,34.44,30.59Z"/>
        </g>
        <g>
          <path class="cls-1" d="M186.49,37.16c-10.45-11.59-56.59,20.53-78.52,70.81,52.27-16.64,88.97-59.23,78.52-70.81Z"/>
          <path class="cls-1" d="M29.46,178.79c10.45,11.59,56.59-20.53,78.52-70.81-52.27,16.64-88.97,59.23-78.52,70.81Z"/>
          <path class="cls-1" d="M107.97,107.98c16.64,52.27,59.23,88.97,70.81,78.52,11.59-10.45-20.53-56.59-70.81-78.52Z"/>
          <path class="cls-1" d="M37.16,29.46c-11.59,10.45,20.53,56.59,70.81,78.52C91.33,55.7,48.75,19.01,37.16,29.46Z"/>
        </g>
        <g>
          <path class="cls-1" d="M187.62,39.88c-10.05-11.75-56.6,18.85-79.65,68.09,52.22-15.11,89.69-56.34,79.65-68.09Z"/>
          <path class="cls-1" d="M28.33,176.07c10.05,11.75,56.6-18.85,79.65-68.09-52.22,15.11-89.69,56.34-79.65,68.09Z"/>
          <path class="cls-1" d="M107.97,107.98c15.11,52.22,56.34,89.69,68.09,79.65,11.75-10.05-18.85-56.6-68.09-79.65Z"/>
          <path class="cls-1" d="M39.88,28.33c-11.75,10.05,18.85,56.6,68.09,79.65C92.86,55.75,51.64,18.28,39.88,28.33Z"/>
        </g>
        <g>
          <path class="cls-1" d="M188.75,42.61c-9.65-11.92-56.61,17.17-80.77,65.37,52.17-13.58,90.42-53.45,80.77-65.37Z"/>
          <path class="cls-1" d="M27.2,173.34c9.65,11.92,56.61-17.17,80.77-65.37-52.17,13.58-90.42,53.45-80.77,65.37Z"/>
          <path class="cls-1" d="M107.97,107.98c13.58,52.17,53.45,90.42,65.37,80.77,11.92-9.65-17.17-56.61-65.37-80.77Z"/>
          <path class="cls-1" d="M42.61,27.2c-11.92,9.65,17.17,56.61,65.37,80.77C94.39,55.8,54.53,17.56,42.61,27.2Z"/>
        </g>
        <g>
          <path class="cls-1" d="M189.88,45.33c-9.24-12.09-56.62,15.5-81.9,62.64,52.12-12.06,91.15-50.56,81.9-62.64Z"/>
          <path class="cls-1" d="M26.07,170.62c9.24,12.09,56.62-15.5,81.9-62.64-52.12,12.06-91.15,50.56-81.9,62.64Z"/>
          <path class="cls-1" d="M107.97,107.98c12.06,52.12,50.56,91.15,62.64,81.9,12.09-9.24-15.5-56.62-62.64-81.9Z"/>
          <path class="cls-1" d="M45.33,26.07c-12.09,9.24,15.5,56.62,62.64,81.9C95.92,55.85,57.42,16.83,45.33,26.07Z"/>
        </g>
        <g>
          <path class="cls-1" d="M191.01,48.06c-8.84-12.25-56.63,13.82-83.03,59.92,52.07-10.53,91.87-47.67,83.03-59.92Z"/>
          <path class="cls-1" d="M24.94,167.89c8.84,12.25,56.63-13.82,83.03-59.92-52.07,10.53-91.87,47.67-83.03,59.92Z"/>
          <path class="cls-1" d="M107.97,107.98c10.53,52.07,47.67,91.87,59.92,83.03,12.25-8.84-13.82-56.63-59.92-83.03Z"/>
          <path class="cls-1" d="M48.06,24.94c-12.25,8.84,13.82,56.63,59.92,83.03C97.45,55.9,60.31,16.1,48.06,24.94Z"/>
        </g>
        <g>
          <path class="cls-1" d="M192.13,50.78c-8.44-12.42-56.64,12.14-84.16,57.2,52.02-9,92.6-44.78,84.16-57.2Z"/>
          <path class="cls-1" d="M23.82,165.17c8.44,12.42,56.64-12.14,84.16-57.2-52.02,9-92.6,44.78-84.16,57.2Z"/>
          <path class="cls-1" d="M107.97,107.98c9,52.02,44.78,92.6,57.2,84.16,12.42-8.44-12.14-56.64-57.2-84.16Z"/>
          <path class="cls-1" d="M50.78,23.82c-12.42,8.44,12.14,56.64,57.2,84.16C98.98,55.95,63.2,15.38,50.78,23.82Z"/>
        </g>
        <g>
          <path class="cls-1" d="M193.26,53.5c-8.04-12.59-56.65,10.46-85.29,54.47,51.97-7.47,93.32-41.89,85.29-54.47Z"/>
          <path class="cls-1" d="M22.69,162.45c8.04,12.59,56.65-10.46,85.29-54.47-51.97,7.47-93.32,41.89-85.29,54.47Z"/>
          <path class="cls-1" d="M107.97,107.98c7.47,51.97,41.89,93.32,54.47,85.29,12.59-8.04-10.46-56.65-54.47-85.29Z"/>
          <path class="cls-1" d="M53.5,22.69c-12.59,8.04,10.46,56.65,54.47,85.29-7.47-51.97-41.89-93.32-54.47-85.29Z"/>
        </g>
        <g>
          <path class="cls-1" d="M194.39,56.23c-7.64-12.75-56.67,8.78-86.42,51.75,51.92-5.94,94.05-39,86.42-51.75Z"/>
          <path class="cls-1" d="M21.56,159.72c7.64,12.75,56.67-8.78,86.41-51.75-51.92,5.94-94.05,39-86.41,51.75Z"/>
          <path class="cls-1" d="M107.97,107.98c5.94,51.92,39,94.05,51.75,86.41,12.75-7.64-8.78-56.67-51.75-86.41Z"/>
          <path class="cls-1" d="M56.23,21.56c-12.75,7.64,8.78,56.67,51.75,86.41-5.94-51.92-39-94.05-51.75-86.41Z"/>
        </g>
        <g>
          <path class="cls-1" d="M195.52,58.95c-7.23-12.92-56.68,7.11-87.54,49.03,51.87-4.41,94.78-36.11,87.54-49.03Z"/>
          <path class="cls-1" d="M20.43,157c7.23,12.92,56.68-7.11,87.54-49.03-51.87,4.41-94.78,36.11-87.54,49.03Z"/>
          <path class="cls-1" d="M107.97,107.98c4.41,51.87,36.11,94.78,49.03,87.54,12.92-7.23-7.11-56.68-49.03-87.54Z"/>
          <path class="cls-1" d="M58.95,20.43c-12.92,7.23,7.11,56.68,49.03,87.54-4.41-51.87-36.11-94.78-49.03-87.54Z"/>
        </g>
        <g>
          <path class="cls-1" d="M196.65,61.67c-6.83-13.08-56.69,5.43-88.67,46.3,51.82-2.88,95.5-33.22,88.67-46.3Z"/>
          <path class="cls-1" d="M19.3,154.28c6.83,13.08,56.69-5.43,88.67-46.3-51.82,2.88-95.5,33.22-88.67,46.3Z"/>
          <path class="cls-1" d="M107.97,107.98c2.88,51.82,33.22,95.5,46.3,88.67,13.08-6.83-5.43-56.69-46.3-88.67Z"/>
          <path class="cls-1" d="M61.67,19.3c-13.08,6.83,5.43,56.69,46.3,88.67-2.88-51.82-33.22-95.5-46.3-88.67Z"/>
        </g>
        <g>
          <path class="cls-1" d="M197.77,64.4c-6.43-13.25-56.7,3.75-89.8,43.58,51.77-1.36,96.23-30.33,89.8-43.58Z"/>
          <path class="cls-1" d="M18.18,151.55c6.43,13.25,56.7-3.75,89.8-43.58-51.77,1.36-96.23,30.33-89.8,43.58Z"/>
          <path class="cls-1" d="M107.97,107.98c1.36,51.77,30.33,96.23,43.58,89.8,13.25-6.43-3.75-56.7-43.58-89.8Z"/>
          <path class="cls-1" d="M64.4,18.18c-13.25,6.43,3.75,56.7,43.58,89.8-1.36-51.77-30.33-96.23-43.58-89.8Z"/>
        </g>
        <g>
          <path class="cls-1" d="M198.9,67.12c-6.03-13.42-56.71,2.07-90.93,40.85,51.72.17,96.96-27.44,90.93-40.85Z"/>
          <path class="cls-1" d="M17.05,148.83c6.03,13.42,56.71-2.07,90.93-40.85-51.72-.17-96.96,27.44-90.93,40.85Z"/>
          <path class="cls-1" d="M107.97,107.98c-.17,51.72,27.44,96.96,40.85,90.93,13.42-6.03-2.07-56.71-40.85-90.93Z"/>
          <path class="cls-1" d="M67.12,17.05c-13.42,6.03,2.07,56.71,40.85,90.93.17-51.72-27.44-96.96-40.85-90.93Z"/>
        </g>
        <g>
          <path class="cls-1" d="M200.03,69.84c-5.63-13.58-56.72.39-92.06,38.13,51.67,1.7,97.68-24.55,92.06-38.13Z"/>
          <path class="cls-1" d="M15.92,146.11c5.63,13.58,56.72-.39,92.06-38.13-51.67-1.7-97.68,24.55-92.06,38.13Z"/>
          <path class="cls-1" d="M107.97,107.98c-1.7,51.67,24.55,97.68,38.13,92.06,13.58-5.63-.39-56.72-38.13-92.06Z"/>
          <path class="cls-1" d="M69.84,15.92c-13.58,5.63.39,56.72,38.13,92.06,1.7-51.67-24.55-97.68-38.13-92.06Z"/>
        </g>
        <g>
          <path class="cls-1" d="M201.16,72.57c-5.22-13.75-56.74-1.29-93.18,35.41,51.62,3.23,98.41-21.66,93.18-35.41Z"/>
          <path class="cls-1" d="M14.79,143.38c5.22,13.75,56.74,1.29,93.18-35.41-51.62-3.23-98.41,21.66-93.18,35.41Z"/>
          <path class="cls-1" d="M107.97,107.98c-3.23,51.62,21.66,98.41,35.41,93.18,13.75-5.22,1.29-56.74-35.41-93.18Z"/>
          <path class="cls-1" d="M72.57,14.79c-13.75,5.22-1.29,56.74,35.41,93.18,3.23-51.62-21.66-98.41-35.41-93.18Z"/>
        </g>
        <g>
          <path class="cls-1" d="M202.29,75.29c-4.82-13.92-56.75-2.96-94.31,32.68,51.57,4.76,99.13-18.77,94.31-32.68Z"/>
          <path class="cls-1" d="M13.66,140.66c4.82,13.92,56.75,2.96,94.31-32.68-51.57-4.76-99.13,18.77-94.31,32.68Z"/>
          <path class="cls-1" d="M107.97,107.98c-4.76,51.57,18.77,99.13,32.68,94.31,13.92-4.82,2.96-56.75-32.68-94.31Z"/>
          <path class="cls-1" d="M75.29,13.66c-13.92,4.82-2.96,56.75,32.68,94.31,4.76-51.57-18.77-99.13-32.68-94.31Z"/>
        </g>
        <g>
          <path class="cls-1" d="M203.42,78.02c-4.42-14.08-56.76-4.64-95.44,29.96,51.52,6.29,99.86-15.88,95.44-29.96Z"/>
          <path class="cls-1" d="M12.53,137.93c4.42,14.08,56.76,4.64,95.44-29.96-51.52-6.29-99.86,15.88-95.44,29.96Z"/>
          <path class="cls-1" d="M107.97,107.98c-6.29,51.52,15.88,99.86,29.96,95.44,14.08-4.42,4.64-56.76-29.96-95.44Z"/>
          <path class="cls-1" d="M78.02,12.53c-14.08,4.42-4.64,56.76,29.96,95.44,6.29-51.52-15.88-99.86-29.96-95.44Z"/>
        </g>
        <g>
          <path class="cls-1" d="M204.54,80.74c-4.02-14.25-56.77-6.32-96.57,27.24,51.47,7.82,100.59-12.99,96.57-27.24Z"/>
          <path class="cls-1" d="M11.41,135.21c4.02,14.25,56.77,6.32,96.57-27.24-51.47-7.82-100.59,12.99-96.57,27.24Z"/>
          <path class="cls-1" d="M107.97,107.98c-7.82,51.47,12.99,100.59,27.24,96.57,14.25-4.02,6.32-56.77-27.24-96.57Z"/>
          <path class="cls-1" d="M80.74,11.41c-14.25,4.02-6.32,56.77,27.24,96.57,7.82-51.47-12.99-100.59-27.24-96.57Z"/>
        </g>
        <g>
          <path class="cls-1" d="M205.67,83.46c-3.62-14.42-56.78-8-97.7,24.51,51.42,9.35,101.31-10.1,97.7-24.51Z"/>
          <path class="cls-1" d="M10.28,132.49c3.62,14.42,56.78,8,97.7-24.51-51.42-9.35-101.31,10.1-97.7,24.51Z"/>
          <path class="cls-1" d="M107.97,107.98c-9.35,51.42,10.1,101.31,24.51,97.7,14.42-3.62,8-56.78-24.51-97.7Z"/>
          <path class="cls-1" d="M83.46,10.28c-14.42,3.62-8,56.78,24.51,97.7,9.35-51.42-10.1-101.31-24.51-97.7Z"/>
        </g>
        <g>
          <path class="cls-1" d="M206.8,86.19c-3.22-14.58-56.79-9.68-98.82,21.79,51.37,10.87,102.04-7.21,98.82-21.79Z"/>
          <path class="cls-1" d="M9.15,129.76c3.22,14.58,56.79,9.68,98.82-21.79-51.37-10.87-102.04,7.21-98.82,21.79Z"/>
          <path class="cls-1" d="M107.97,107.98c-10.87,51.37,7.21,102.04,21.79,98.82,14.58-3.22,9.68-56.79-21.79-98.82Z"/>
          <path class="cls-1" d="M86.19,9.15c-14.58,3.22-9.68,56.79,21.79,98.82,10.87-51.37-7.21-102.04-21.79-98.82Z"/>
        </g>
        <g>
          <path class="cls-1" d="M207.93,88.91c-2.81-14.75-56.81-11.36-99.95,19.07,51.32,12.4,102.77-4.32,99.95-19.07Z"/>
          <path class="cls-1" d="M8.02,127.04c2.81,14.75,56.81,11.36,99.95-19.07-51.32-12.4-102.77,4.32-99.95,19.07Z"/>
          <path class="cls-1" d="M107.97,107.98c-12.4,51.32,4.32,102.77,19.07,99.95,14.75-2.81,11.36-56.81-19.07-99.95Z"/>
          <path class="cls-1" d="M88.91,8.02c-14.75,2.81-11.36,56.81,19.07,99.95,12.4-51.32-4.32-102.77-19.07-99.95Z"/>
        </g>
        <g>
          <path class="cls-1" d="M209.06,91.63c-2.41-14.92-56.82-13.03-101.08,16.34,51.27,13.93,103.49-1.43,101.08-16.34Z"/>
          <path class="cls-1" d="M6.89,124.32c2.41,14.92,56.82,13.03,101.08-16.34-51.27-13.93-103.49,1.43-101.08,16.34Z"/>
          <path class="cls-1" d="M107.97,107.98c-13.93,51.27,1.43,103.49,16.34,101.08,14.92-2.41,13.03-56.82-16.34-101.08Z"/>
          <path class="cls-1" d="M91.63,6.89c-14.92,2.41-13.03,56.82,16.34,101.08,13.93-51.27-1.43-103.49-16.34-101.08Z"/>
        </g>
        <g>
          <path class="cls-1" d="M210.18,94.36c-2.01-15.08-56.83-14.71-102.21,13.62,51.22,15.46,104.22,1.46,102.21-13.62Z"/>
          <path class="cls-1" d="M5.77,121.59c2.01,15.08,56.83,14.71,102.21-13.62-51.21-15.46-104.22-1.46-102.21,13.62Z"/>
          <path class="cls-1" d="M107.97,107.98c-15.46,51.21-1.46,104.22,13.62,102.21,15.08-2.01,14.71-56.83-13.62-102.21Z"/>
          <path class="cls-1" d="M94.36,5.77c-15.08,2.01-14.71,56.83,13.62,102.21,15.46-51.22,1.46-104.22-13.62-102.21Z"/>
        </g>
        <g>
          <path class="cls-1" d="M211.31,97.08c-1.61-15.25-56.84-16.39-103.34,10.89,51.16,16.99,104.94,4.35,103.34-10.89Z"/>
          <path class="cls-1" d="M4.64,118.87c1.61,15.25,56.84,16.39,103.34-10.89-51.16-16.99-104.94-4.35-103.34,10.89Z"/>
          <path class="cls-1" d="M107.97,107.98c-16.99,51.16-4.35,104.94,10.89,103.34,15.25-1.61,16.39-56.84-10.89-103.34Z"/>
          <path class="cls-1" d="M97.08,4.64c-15.25,1.61-16.39,56.84,10.89,103.34,16.99-51.16,4.35-104.94-10.89-103.34Z"/>
        </g>
        <g>
          <path class="cls-1" d="M212.44,99.8c-1.21-15.42-56.85-18.07-104.47,8.17,51.11,18.52,105.67,7.24,104.47-8.17Z"/>
          <path class="cls-1" d="M3.51,116.15c1.21,15.42,56.85,18.07,104.47-8.17C56.86,89.46,2.3,100.73,3.51,116.15Z"/>
          <path class="cls-1" d="M107.97,107.98c-18.52,51.11-7.24,105.67,8.17,104.47,15.42-1.21,18.07-56.85-8.17-104.47Z"/>
          <path class="cls-1" d="M99.8,3.51c-15.42,1.21-18.07,56.85,8.17,104.47C126.49,56.86,115.22,2.3,99.8,3.51Z"/>
        </g>
        <g>
          <path class="cls-1" d="M213.57,102.53c-.8-15.58-56.86-19.75-105.59,5.45,51.06,20.05,106.4,10.13,105.59-5.45Z"/>
          <path class="cls-1" d="M2.38,113.42c.8,15.58,56.86,19.75,105.59-5.45C56.91,87.93,1.58,97.84,2.38,113.42Z"/>
          <path class="cls-1" d="M107.97,107.98c-20.05,51.06-10.13,106.4,5.45,105.59,15.58-.8,19.75-56.86-5.45-105.59Z"/>
          <path class="cls-1" d="M102.53,2.38c-15.58.8-19.75,56.86,5.45,105.59C128.02,56.91,118.11,1.58,102.53,2.38Z"/>
        </g>
        <g>
          <path class="cls-1" d="M214.7,105.25c-.4-15.75-56.88-21.43-106.72,2.72,51.01,21.58,107.12,13.02,106.72-2.72Z"/>
          <path class="cls-1" d="M1.25,110.7c.4,15.75,56.88,21.43,106.72-2.72C56.96,86.4.85,94.95,1.25,110.7Z"/>
          <path class="cls-1" d="M107.97,107.98c-21.58,51.01-13.02,107.12,2.72,106.72,15.75-.4,21.43-56.88-2.72-106.72Z"/>
          <path class="cls-1" d="M105.25,1.25c-15.75.4-21.43,56.88,2.72,106.72C129.55,56.96,121,.85,105.25,1.25Z"/>
        </g>
        <g>
          <path class="cls-1" d="M215.83,107.98c0-15.91-56.89-23.1-107.85,0,50.96,23.1,107.85,15.91,107.85,0Z"/>
          <path class="cls-1" d="M.13,107.98c0,15.91,56.89,23.1,107.85,0-50.96-23.1-107.85-15.91-107.85,0Z"/>
          <path class="cls-1" d="M107.97,107.98c-23.1,50.96-15.91,107.85,0,107.85,15.91,0,23.1-56.89,0-107.85Z"/>
          <path class="cls-1" d="M107.98.13c-15.91,0-23.1,56.89,0,107.85,23.1-50.96,15.91-107.85,0-107.85Z"/>
        </g>
      </g>
      <g>
        <g>
          <path class="cls-1" d="M215.83,107.98c0-15.91-56.89-23.1-107.85,0,50.96,23.1,107.85,15.91,107.85,0Z"/>
          <path class="cls-1" d="M.13,107.98c0,15.91,56.89,23.1,107.85,0-50.96-23.1-107.85-15.91-107.85,0Z"/>
          <path class="cls-1" d="M107.97,107.98c-23.1,50.96-15.91,107.85,0,107.85,15.91,0,23.1-56.89,0-107.85Z"/>
          <path class="cls-1" d="M107.98.13c-15.91,0-23.1,56.89,0,107.85,23.1-50.96,15.91-107.85,0-107.85Z"/>
        </g>
        <g>
          <path class="cls-1" d="M214.7,110.7c.4-15.75-55.71-24.3-106.72-2.72,49.85,24.15,106.32,18.47,106.72,2.72Z"/>
          <path class="cls-1" d="M1.25,105.25c-.4,15.75,55.71,24.3,106.72,2.72C58.13,83.83,1.66,89.5,1.25,105.25Z"/>
          <path class="cls-1" d="M107.97,107.98c-24.15,49.85-18.47,106.32-2.72,106.72,15.75.4,24.3-55.71,2.72-106.72Z"/>
          <path class="cls-1" d="M110.7,1.25c-15.75-.4-24.3,55.71-2.72,106.72C132.12,58.13,126.45,1.66,110.7,1.25Z"/>
        </g>
        <g>
          <path class="cls-1" d="M213.57,113.42c.8-15.58-54.53-25.49-105.59-5.45,48.73,25.19,104.79,21.03,105.59,5.45Z"/>
          <path class="cls-1" d="M2.38,102.53c-.8,15.58,54.53,25.49,105.59,5.45C59.24,82.78,3.19,86.95,2.38,102.53Z"/>
          <path class="cls-1" d="M107.97,107.98c-25.19,48.73-21.03,104.79-5.45,105.59,15.58.8,25.49-54.53,5.45-105.59Z"/>
          <path class="cls-1" d="M113.42,2.38c-15.58-.8-25.49,54.53-5.45,105.59,25.19-48.73,21.03-104.79,5.45-105.59Z"/>
        </g>
        <g>
          <path class="cls-1" d="M212.44,116.15c1.21-15.42-53.35-26.69-104.47-8.17,47.61,26.24,103.26,23.59,104.47,8.17Z"/>
          <path class="cls-1" d="M3.51,99.8c-1.21,15.42,53.35,26.69,104.47,8.17C60.36,81.74,4.72,84.39,3.51,99.8Z"/>
          <path class="cls-1" d="M107.97,107.97c-26.24,47.61-23.59,103.26-8.17,104.47,15.42,1.21,26.69-53.35,8.17-104.47Z"/>
          <path class="cls-1" d="M116.15,3.51c-15.42-1.21-26.69,53.35-8.17,104.47,26.24-47.61,23.59-103.26,8.17-104.47Z"/>
        </g>
        <g>
          <path class="cls-1" d="M211.31,118.87c1.61-15.25-52.17-27.88-103.34-10.89,46.5,27.29,101.73,26.14,103.34,10.89Z"/>
          <path class="cls-1" d="M4.64,97.08c-1.61,15.25,52.17,27.88,103.34,10.89C61.48,80.69,6.25,81.83,4.64,97.08Z"/>
          <path class="cls-1" d="M107.97,107.97c-27.29,46.5-26.14,101.73-10.89,103.34,15.25,1.61,27.88-52.17,10.89-103.34Z"/>
          <path class="cls-1" d="M118.87,4.64c-15.25-1.61-27.88,52.17-10.89,103.34,27.29-46.5,26.14-101.73,10.89-103.34Z"/>
        </g>
        <g>
          <path class="cls-1" d="M210.18,121.59c2.01-15.08-50.99-29.08-102.21-13.62,45.38,28.33,100.2,28.7,102.21,13.62Z"/>
          <path class="cls-1" d="M5.77,94.36c-2.01,15.08,50.99,29.08,102.21,13.62C62.59,79.64,7.78,79.27,5.77,94.36Z"/>
          <path class="cls-1" d="M107.97,107.97c-28.33,45.38-28.7,100.2-13.62,102.21,15.08,2.01,29.08-50.99,13.62-102.21Z"/>
          <path class="cls-1" d="M121.59,5.77c-15.08-2.01-29.08,50.99-13.62,102.21,28.33-45.38,28.7-100.2,13.62-102.21Z"/>
        </g>
        <g>
          <path class="cls-1" d="M209.06,124.32c2.41-14.92-49.82-30.27-101.08-16.34,44.26,29.38,98.67,31.26,101.08,16.34Z"/>
          <path class="cls-1" d="M6.89,91.63c-2.41,14.92,49.82,30.27,101.08,16.34C63.71,78.6,9.31,76.72,6.89,91.63Z"/>
          <path class="cls-1" d="M107.97,107.97c-29.38,44.26-31.26,98.67-16.34,101.08,14.92,2.41,30.27-49.82,16.34-101.08Z"/>
          <path class="cls-1" d="M124.32,6.89c-14.92-2.41-30.27,49.82-16.34,101.08,29.38-44.26,31.26-98.67,16.34-101.08Z"/>
        </g>
        <g>
          <path class="cls-1" d="M207.93,127.04c2.81-14.75-48.64-31.47-99.95-19.07,43.15,30.42,97.14,33.81,99.95,19.07Z"/>
          <path class="cls-1" d="M8.02,88.91c-2.81,14.75,48.64,31.47,99.95,19.07-43.15-30.42-97.14-33.81-99.95-19.07Z"/>
          <path class="cls-1" d="M107.97,107.97c-30.42,43.15-33.81,97.14-19.07,99.95,14.75,2.81,31.47-48.64,19.07-99.95Z"/>
          <path class="cls-1" d="M127.04,8.02c-14.75-2.81-31.47,48.64-19.07,99.95,30.42-43.15,33.81-97.14,19.07-99.95Z"/>
        </g>
        <g>
          <path class="cls-1" d="M206.8,129.76c3.22-14.58-47.46-32.66-98.82-21.79,42.03,31.47,95.61,36.37,98.82,21.79Z"/>
          <path class="cls-1" d="M9.15,86.19c-3.22,14.58,47.46,32.66,98.82,21.79-42.03-31.47-95.61-36.37-98.82-21.79Z"/>
          <path class="cls-1" d="M107.97,107.97c-31.47,42.03-36.37,95.61-21.79,98.82,14.58,3.22,32.66-47.46,21.79-98.82Z"/>
          <path class="cls-1" d="M129.76,9.15c-14.58-3.22-32.66,47.46-21.79,98.82,31.47-42.03,36.37-95.61,21.79-98.82Z"/>
        </g>
        <g>
          <path class="cls-1" d="M205.67,132.49c3.62-14.42-46.28-33.86-97.7-24.51,40.91,32.51,94.08,38.93,97.7,24.51Z"/>
          <path class="cls-1" d="M10.28,83.46c-3.62,14.42,46.28,33.86,97.7,24.51C67.06,75.46,13.9,69.05,10.28,83.46Z"/>
          <path class="cls-1" d="M107.97,107.97c-32.51,40.91-38.93,94.08-24.51,97.7,14.42,3.62,33.86-46.28,24.51-97.7Z"/>
          <path class="cls-1" d="M132.49,10.28c-14.42-3.62-33.86,46.28-24.51,97.7,32.51-40.91,38.93-94.08,24.51-97.7Z"/>
        </g>
        <g>
          <path class="cls-1" d="M204.54,135.21c4.02-14.25-45.1-35.05-96.57-27.24,39.8,33.56,92.55,41.49,96.57,27.24Z"/>
          <path class="cls-1" d="M11.41,80.74c-4.02,14.25,45.1,35.05,96.57,27.24C68.18,74.42,15.43,66.49,11.41,80.74Z"/>
          <path class="cls-1" d="M107.97,107.97c-33.56,39.8-41.49,92.55-27.24,96.57,14.25,4.02,35.05-45.1,27.24-96.57Z"/>
          <path class="cls-1" d="M135.21,11.41c-14.25-4.02-35.05,45.1-27.24,96.57,33.56-39.8,41.49-92.55,27.24-96.57Z"/>
        </g>
        <g>
          <path class="cls-1" d="M203.42,137.93c4.42-14.08-43.92-36.25-95.44-29.96,38.68,34.6,91.02,44.04,95.44,29.96Z"/>
          <path class="cls-1" d="M12.53,78.02c-4.42,14.08,43.92,36.25,95.44,29.96C69.29,73.37,16.96,63.93,12.53,78.02Z"/>
          <path class="cls-1" d="M107.97,107.97c-34.6,38.68-44.04,91.02-29.96,95.44,14.08,4.42,36.25-43.92,29.96-95.44Z"/>
          <path class="cls-1" d="M137.93,12.53c-14.08-4.42-36.25,43.92-29.96,95.44,34.6-38.68,44.04-91.02,29.96-95.44Z"/>
        </g>
        <g>
          <path class="cls-1" d="M202.29,140.66c4.82-13.92-42.74-37.44-94.31-32.68,37.56,35.65,89.49,46.6,94.31,32.68Z"/>
          <path class="cls-1" d="M13.66,75.29c-4.82,13.92,42.74,37.44,94.31,32.68C70.41,72.33,18.49,61.37,13.66,75.29Z"/>
          <path class="cls-1" d="M107.97,107.97c-35.65,37.56-46.6,89.49-32.68,94.31,13.92,4.82,37.44-42.74,32.68-94.31Z"/>
          <path class="cls-1" d="M140.66,13.66c-13.92-4.82-37.44,42.74-32.68,94.31,35.65-37.56,46.6-89.49,32.68-94.31Z"/>
        </g>
        <g>
          <path class="cls-1" d="M201.16,143.38c5.22-13.75-41.57-38.64-93.18-35.41,36.45,36.69,87.96,49.16,93.18,35.41Z"/>
          <path class="cls-1" d="M14.79,72.57c-5.22,13.75,41.57,38.64,93.18,35.41C71.53,71.28,20.02,58.82,14.79,72.57Z"/>
          <path class="cls-1" d="M107.97,107.97c-36.69,36.45-49.16,87.96-35.41,93.18,13.75,5.22,38.64-41.57,35.41-93.18Z"/>
          <path class="cls-1" d="M143.38,14.79c-13.75-5.22-38.64,41.57-35.41,93.18,36.69-36.45,49.16-87.96,35.41-93.18Z"/>
        </g>
        <g>
          <path class="cls-1" d="M200.03,146.11c5.63-13.58-40.39-39.83-92.06-38.13,35.33,37.74,86.43,51.71,92.06,38.13Z"/>
          <path class="cls-1" d="M15.92,69.84c-5.63,13.58,40.39,39.83,92.06,38.13C72.64,70.24,21.55,56.26,15.92,69.84Z"/>
          <path class="cls-1" d="M107.97,107.97c-37.74,35.33-51.71,86.43-38.13,92.06,13.58,5.63,39.83-40.39,38.13-92.06Z"/>
          <path class="cls-1" d="M146.11,15.92c-13.58-5.63-39.83,40.39-38.13,92.06,37.74-35.33,51.71-86.43,38.13-92.06Z"/>
        </g>
        <g>
          <path class="cls-1" d="M198.9,148.83c6.03-13.42-39.21-41.03-90.93-40.85,34.21,38.78,84.9,54.27,90.93,40.85Z"/>
          <path class="cls-1" d="M17.05,67.12c-6.03,13.42,39.21,41.03,90.93,40.85C73.76,69.19,23.08,53.7,17.05,67.12Z"/>
          <path class="cls-1" d="M107.97,107.97c-38.78,34.21-54.27,84.9-40.85,90.93,13.42,6.03,41.03-39.21,40.85-90.93Z"/>
          <path class="cls-1" d="M148.83,17.05c-13.42-6.03-41.03,39.21-40.85,90.93,38.78-34.21,54.27-84.9,40.85-90.93Z"/>
        </g>
        <g>
          <path class="cls-1" d="M197.77,151.55c6.43-13.25-38.03-42.22-89.8-43.58,33.1,39.83,83.37,56.83,89.8,43.58Z"/>
          <path class="cls-1" d="M18.18,64.4c-6.43,13.25,38.03,42.22,89.8,43.58C74.88,68.15,24.61,51.15,18.18,64.4Z"/>
          <path class="cls-1" d="M107.97,107.97c-39.83,33.1-56.83,83.37-43.58,89.8,13.25,6.43,42.22-38.03,43.58-89.8Z"/>
          <path class="cls-1" d="M151.55,18.18c-13.25-6.43-42.22,38.03-43.58,89.8,39.83-33.1,56.83-83.37,43.58-89.8Z"/>
        </g>
        <g>
          <path class="cls-1" d="M196.65,154.28c6.83-13.08-36.85-43.42-88.67-46.3,31.98,40.87,81.84,59.39,88.67,46.3Z"/>
          <path class="cls-1" d="M19.3,61.67c-6.83,13.08,36.85,43.42,88.67,46.3C75.99,67.1,26.14,48.59,19.3,61.67Z"/>
          <path class="cls-1" d="M107.97,107.97c-40.87,31.98-59.39,81.84-46.3,88.67,13.08,6.83,43.42-36.85,46.3-88.67Z"/>
          <path class="cls-1" d="M154.28,19.3c-13.08-6.83-43.42,36.85-46.3,88.67,40.87-31.98,59.39-81.84,46.3-88.67Z"/>
        </g>
        <g>
          <path class="cls-1" d="M195.52,157c7.23-12.92-35.67-44.61-87.54-49.03,30.87,41.92,80.31,61.94,87.54,49.03Z"/>
          <path class="cls-1" d="M20.43,58.95c-7.23,12.92,35.67,44.61,87.54,49.03C77.11,66.05,27.67,46.03,20.43,58.95Z"/>
          <path class="cls-1" d="M107.97,107.97c-41.92,30.87-61.94,80.31-49.03,87.54,12.92,7.23,44.61-35.67,49.03-87.54Z"/>
          <path class="cls-1" d="M157,20.43c-12.92-7.23-44.61,35.67-49.03,87.54,41.92-30.87,61.94-80.31,49.03-87.54Z"/>
        </g>
        <g>
          <path class="cls-1" d="M194.39,159.72c7.64-12.75-34.49-45.81-86.42-51.75,29.75,42.97,78.78,64.5,86.42,51.75Z"/>
          <path class="cls-1" d="M21.56,56.23c-7.64,12.75,34.49,45.81,86.41,51.75C78.23,65.01,29.2,43.47,21.56,56.23Z"/>
          <path class="cls-1" d="M107.97,107.97c-42.97,29.75-64.5,78.78-51.75,86.41,12.75,7.64,45.81-34.49,51.75-86.41Z"/>
          <path class="cls-1" d="M159.72,21.56c-12.75-7.64-45.81,34.49-51.75,86.41,42.97-29.75,64.5-78.78,51.75-86.41Z"/>
        </g>
        <g>
          <path class="cls-1" d="M193.26,162.45c8.04-12.59-33.32-47-85.29-54.47,28.63,44.01,77.25,67.06,85.29,54.47Z"/>
          <path class="cls-1" d="M22.69,53.5c-8.04,12.59,33.32,47,85.29,54.47C79.34,63.96,30.73,40.92,22.69,53.5Z"/>
          <path class="cls-1" d="M107.97,107.97c-44.01,28.63-67.06,77.25-54.47,85.29,12.59,8.04,47-33.32,54.47-85.29Z"/>
          <path class="cls-1" d="M162.45,22.69c-12.59-8.04-47,33.32-54.47,85.29,44.01-28.63,67.06-77.25,54.47-85.29Z"/>
        </g>
        <g>
          <path class="cls-1" d="M192.13,165.17c8.44-12.42-32.14-48.2-84.16-57.2,27.52,45.06,75.72,69.61,84.16,57.2Z"/>
          <path class="cls-1" d="M23.82,50.78c-8.44,12.42,32.14,48.2,84.16,57.2C80.46,62.92,32.26,38.36,23.82,50.78Z"/>
          <path class="cls-1" d="M107.97,107.97c-45.06,27.52-69.61,75.72-57.2,84.16,12.42,8.44,48.2-32.14,57.2-84.16Z"/>
          <path class="cls-1" d="M165.17,23.82c-12.42-8.44-48.2,32.14-57.2,84.16,45.06-27.52,69.61-75.72,57.2-84.16Z"/>
        </g>
        <g>
          <path class="cls-1" d="M191.01,167.89c8.84-12.25-30.96-49.39-83.03-59.92,26.4,46.1,74.19,72.17,83.03,59.92Z"/>
          <path class="cls-1" d="M24.94,48.06c-8.84,12.25,30.96,49.39,83.03,59.92C81.58,61.87,33.79,35.8,24.94,48.06Z"/>
          <path class="cls-1" d="M107.97,107.97c-46.1,26.4-72.17,74.19-59.92,83.03,12.25,8.84,49.39-30.96,59.92-83.03Z"/>
          <path class="cls-1" d="M167.89,24.94c-12.25-8.84-49.39,30.96-59.92,83.03,46.1-26.4,72.17-74.19,59.92-83.03Z"/>
        </g>
        <g>
          <path class="cls-1" d="M189.88,170.62c9.24-12.09-29.78-50.59-81.9-62.64,25.28,47.15,72.66,74.73,81.9,62.64Z"/>
          <path class="cls-1" d="M26.07,45.33c-9.24,12.09,29.78,50.59,81.9,62.64C82.69,60.83,35.32,33.25,26.07,45.33Z"/>
          <path class="cls-1" d="M107.97,107.97c-47.15,25.28-74.73,72.66-62.64,81.9,12.09,9.24,50.59-29.78,62.64-81.9Z"/>
          <path class="cls-1" d="M170.62,26.07c-12.09-9.24-50.59,29.78-62.64,81.9,47.15-25.28,74.73-72.66,62.64-81.9Z"/>
        </g>
        <g>
          <path class="cls-1" d="M188.75,173.34c9.65-11.92-28.6-51.78-80.77-65.37,24.17,48.19,71.13,77.29,80.77,65.37Z"/>
          <path class="cls-1" d="M27.2,42.61c-9.65,11.92,28.6,51.78,80.77,65.37C83.81,59.78,36.85,30.69,27.2,42.61Z"/>
          <path class="cls-1" d="M107.97,107.97c-48.19,24.17-77.29,71.13-65.37,80.77,11.92,9.65,51.78-28.6,65.37-80.77Z"/>
          <path class="cls-1" d="M173.34,27.2c-11.92-9.65-51.78,28.6-65.37,80.77,48.19-24.17,77.29-71.13,65.37-80.77Z"/>
        </g>
        <g>
          <path class="cls-1" d="M187.62,176.07c10.05-11.75-27.42-52.98-79.65-68.09,23.05,49.24,69.6,79.84,79.65,68.09Z"/>
          <path class="cls-1" d="M28.33,39.88c-10.05,11.75,27.42,52.98,79.65,68.09C84.93,58.74,38.38,28.13,28.33,39.88Z"/>
          <path class="cls-1" d="M107.97,107.97c-49.24,23.05-79.84,69.6-68.09,79.65,11.75,10.05,52.98-27.42,68.09-79.65Z"/>
          <path class="cls-1" d="M176.07,28.33c-11.75-10.05-52.98,27.42-68.09,79.65,49.24-23.05,79.84-69.6,68.09-79.65Z"/>
        </g>
        <g>
          <path class="cls-1" d="M186.49,178.79c10.45-11.59-26.25-54.17-78.52-70.81,21.93,50.28,68.07,82.4,78.52,70.81Z"/>
          <path class="cls-1" d="M29.46,37.16c-10.45,11.59,26.25,54.17,78.52,70.81C86.04,57.69,39.91,25.57,29.46,37.16Z"/>
          <path class="cls-1" d="M107.97,107.97c-50.28,21.93-82.4,68.07-70.81,78.52,11.59,10.45,54.17-26.25,70.81-78.52Z"/>
          <path class="cls-1" d="M178.79,29.46c-11.59-10.45-54.17,26.25-70.81,78.52,50.28-21.93,82.4-68.07,70.81-78.52Z"/>
        </g>
        <g>
          <path class="cls-1" d="M185.36,181.51c10.85-11.42-25.07-55.37-77.39-73.54,20.82,51.33,66.54,84.96,77.39,73.54Z"/>
          <path class="cls-1" d="M30.59,34.44c-10.85,11.42,25.07,55.37,77.39,73.54C87.16,56.65,41.44,23.02,30.59,34.44Z"/>
          <path class="cls-1" d="M107.97,107.97c-51.33,20.82-84.96,66.54-73.54,77.39,11.42,10.85,55.37-25.07,73.54-77.39Z"/>
          <path class="cls-1" d="M181.51,30.59c-11.42-10.85-55.37,25.07-73.54,77.39,51.33-20.82,84.96-66.54,73.54-77.39Z"/>
        </g>
        <g>
          <path class="cls-1" d="M184.24,184.24c11.25-11.25-23.89-56.56-76.26-76.26,19.7,52.37,65.01,87.51,76.26,76.26Z"/>
          <path class="cls-1" d="M31.71,31.71c-11.25,11.25,23.89,56.56,76.26,76.26C88.28,55.6,42.97,20.46,31.71,31.71Z"/>
          <path class="cls-1" d="M107.97,107.97c-52.37,19.7-87.51,65.01-76.26,76.26,11.25,11.25,56.56-23.89,76.26-76.26Z"/>
          <path class="cls-1" d="M184.24,31.71c-11.25-11.25-56.56,23.89-76.26,76.26,52.37-19.7,87.51-65.01,76.26-76.26Z"/>
        </g>
      </g>
    </g>
  </g>
</svg>