<?xml version="1.0" encoding="UTF-8"?>
<svg id="Layer_2" data-name="Layer 2" xmlns="http://www.w3.org/2000/svg" viewBox="0 0 221.61 218.31">
  <defs>
    <style>
      .cls-1 {
        fill: none;
        stroke: #3f28b2;
        stroke-miterlimit: 10;
        stroke-width: .12px;
      }
    </style>
  </defs>
  <g id="Layer_1-2" data-name="Layer 1">
    <path class="cls-1" d="M221.49,109.16l-.02.27-.06.27-.09.26-.12.27-.17.26-.2.26-.23.26-.27.26-.3.24-.33.24-.38.23-.41.23-.44.21-.49.21-.52.2-.55.18-.58.18-.61.17-.65.17-.67.14-.71.14-.74.11-.77.11-.8.09-.83.08-.86.06-.88.05-.92.02-.94.02-.99-.02-1-.03-1.02-.05-1.06-.06-1.08-.09-1.11-.09-1.12-.14-1.15-.14-1.17-.17-1.2-.18-1.21-.21-1.23-.23-1.26-.24-1.27-.27-1.29-.3-1.3-.32-1.33-.33-1.33-.36-1.36-.39-1.36-.41-1.38-.44-1.39-.45-1.41-.47-1.43-.52-1.43-.53-1.44-.55-1.46-.58-1.46-.59-1.46-.64-1.47-.64-1.49-.67-1.47-.7-1.49-.71-1.49-.74-1.5-.76-1.49-.79-1.49-.8-1.5-.83-1.49-.85-1.49-.88-1.49-.89-1.49-.91-1.47-.94-1.49-.96-1.46-.99-1.47-1-1.46-1.02-1.44-1.03-1.44-1.06-1.43-1.06-1.43-1.09-1.41-1.11-1.39-1.12-1.38-1.15-1.38-1.15-1.35-1.17-1.35-1.18-1.33-1.2-1.32-1.21-1.29-1.23-1.29-1.24-1.26-1.24-1.26-1.26-1.23-1.27-1.21-1.27-1.18-1.29-1.18-1.3-1.15-1.3-1.14-1.3-1.11-1.32-1.09-1.32-1.06-1.33-1.05-1.32-1.03-1.33-1-1.33-.99-1.33-.96-1.35-.92-1.33-.91-1.33-.88-1.33-.86-1.33-.83-1.32-.8-1.33-.79-1.32-.76-1.32-.74-1.3-.71-1.3-.68-1.29-.65-1.29-.64-1.27-.61-1.26-.58-1.26-.56-1.24-.53-1.23-.52-1.21-.47-1.2-.47-1.2-.42-1.17-.41-1.15-.38-1.14-.36-1.12-.33-1.09-.3-1.09-.29-1.06-.26-1.03-.24-1.03-.21-.99-.2-.97-.17-.96-.15-.92-.12-.91-.12-.86-.08-.85-.06-.83-.05-.79-.03-.77-.02-.74.02-.71.03-.68.05-.65.08-.62.08-.59.09-.55.12-.53.12-.5.14-.47.17-.42.17-.39.18-.36.18-.33.21-.3.21-.26.23-.23.23-.2.24-.17.26-.12.26-.09.26-.05.27-.02.27.02.29.06.29.09.29.12.29.17.29.2.3.23.29.27.29.3.3.33.29.38.29.41.29.45.29.47.27.52.27.56.27.58.27.62.26.65.24.7.24.71.23.76.23.77.21.82.2.85.2.88.18.91.17.96.15.97.15,1,.12,1.02.12,1.06.09,1.09.09,1.11.06,1.14.06,1.17.03,1.2.02,1.21v1.24l-.02,1.26-.03,1.29-.06,1.3-.06,1.33-.09,1.35-.12,1.36-.14,1.39-.15,1.41-.17,1.43-.2,1.44-.21,1.47-.24,1.47-.26,1.49-.27,1.52-.3,1.52-.32,1.53-.35,1.53-.36,1.56-.39,1.56-.41,1.58-.42,1.58-.45,1.59-.49,1.59-.5,1.59-.52,1.61-.55,1.62-.56,1.61-.59,1.62-.61,1.61-.64,1.62-.65,1.62-.67,1.62-.7,1.61-.71,1.62-.73,1.61-.76,1.61-.77,1.61-.8,1.59-.82,1.59-.83,1.59-.85,1.58-.86,1.56-.89,1.56-.91,1.55-.91,1.55-.94,1.52-.96,1.52-.97,1.5-.99,1.49-1,1.47-1.02,1.47-1.03,1.44-1.05,1.43-1.05,1.41-1.08,1.39-1.08,1.36-1.08,1.36-1.11,1.33-1.11,1.32-1.11,1.29-1.12,1.27-1.14,1.26-1.14,1.23-1.14,1.21-1.15,1.2-1.15,1.17-1.15,1.14-1.17,1.12-1.15,1.09-1.17,1.06-1.17,1.05-1.15,1.02-1.17,1-1.17.97-1.15.94-1.17.91-1.15.89-1.15.86-1.14.83-1.14.82-1.14.77-1.12.76-1.11.73-1.11.7-1.11.68-1.08.64-1.08.62-1.06.59-1.05.58-1.05.53-1.02.52-1,.49-1,.45-.97.42-.96.41-.94.36-.91.36-.89.32-.88.3-.86.27-.83.24-.82.23-.79.2-.77.18-.74.15-.71.12-.7.11-.67.08-.65.06-.61.05-.59.02-.56-.02-.53-.02-.5-.05-.47-.08-.44-.08-.41-.11-.38-.12-.35-.14-.32-.15-.29-.18-.26-.18-.21-.2-.18-.23-.17-.23-.12-.24-.08-.26-.06-.26-.02-.29.02-.29.05-.29.09-.32.12-.32.15-.32.2-.33.23-.33.26-.35.29-.35.33-.36.36-.35.41-.36.44-.36.47-.36.5-.38.55-.36.58-.36.61-.36.65-.36.67-.36.71-.36.74-.35.79-.35.8-.35.85-.33.88-.33.91-.33.94-.32.97-.32,1-.29,1.03-.3,1.06-.27,1.09-.27,1.12-.27,1.14-.24,1.18-.24,1.2-.23,1.23-.21,1.26-.2,1.29-.18,1.3-.17,1.33-.15,1.35-.14,1.38-.12,1.39-.11,1.43-.09,1.44-.08,1.46-.05,1.49-.05,1.5-.02h1.52l1.53.02,1.56.05,1.56.06,1.59.08,1.59.09,1.61.12,1.64.14,1.62.17,1.65.18,1.65.2,1.67.21,1.68.24,1.68.27,1.68.27,1.7.3,1.7.33,1.71.35,1.7.36,1.71.39,1.71.41,1.71.42,1.73.45,1.71.47,1.71.49,1.7.52,1.71.53,1.7.56,1.7.58,1.7.59,1.68.61,1.68.62,1.67.65,1.67.67,1.65.68,1.65.7,1.62.73,1.62.73,1.61.76,1.59.76,1.59.79,1.56.8,1.55.8,1.55.83,1.52.83,1.5.85,1.49.86,1.46.88,1.44.89,1.43.89,1.41.91,1.38.91,1.36.94,1.35.92,1.3.94,1.3.96,1.27.96,1.24.97,1.23.96,1.2.97,1.17.99,1.15.97,1.11.99,1.11.97,1.06.99,1.05.99,1.02.99.99.97.96.99.92.97.89.97.88.97.85.96.82.96.77.96.76.94.73.92.71.92.67.91.64.91.61.89.59.88.55.86.53.85.5.83.45.83.44.8.41.79.38.77.36.76.32.74.29.71.27.71.24.67.21.67.2.64.15.61.14.59.11.58.09.55.06.52.03.49v.91l-.05.41-.06.39-.08.36-.11.32-.14.3-.14.27-.17.24-.2.21-.2.18-.23.15-.24.12-.26.09-.27.05-.3.03-.3-.02-.32-.03-.35-.08-.35-.11-.36-.15-.38-.17-.39-.21-.39-.24-.41-.27-.42-.32-.42-.33-.44-.38-.44-.41-.45-.45-.45-.49-.47-.5-.45-.56-.47-.58-.49-.62-.47-.65-.49-.68-.49-.71-.47-.74-.49-.79-.49-.82-.47-.85-.49-.88-.47-.91-.47-.94-.47-.99-.45-1-.45-1.05-.45-1.06-.44-1.09-.44-1.14-.42-1.15-.42-1.18-.41-1.21-.39-1.24-.39-1.26-.38-1.29-.36-1.32-.36-1.35-.33-1.36-.33-1.39-.32-1.41-.3-1.44-.29-1.46-.27-1.49-.26-1.5-.24-1.53-.23-1.53-.21-1.56-.18-1.58-.18-1.61-.15-1.61-.14-1.62-.14-1.65-.09-1.65-.09-1.67-.06-1.68-.05-1.7-.03-1.71-.02-1.71.02-1.73.03-1.73.06-1.74.08-1.76.09-1.74.11-1.76.14-1.77.15-1.76.17-1.77.2-1.77.21-1.77.24-1.77.26-1.77.27-1.77.29-1.77.32-1.76.33-1.76.35-1.76.38-1.76.39-1.74.41-1.74.44-1.73.44-1.71.47-1.71.49-1.7.5-1.7.52-1.67.55-1.67.55-1.65.56-1.64.59-1.62.59-1.59.62-1.59.62-1.58.65-1.55.65-1.55.67-1.52.68-1.49.7-1.49.7-1.44.71-1.44.73-1.41.73-1.38.74-1.36.76-1.35.76-1.32.76-1.29.77-1.26.79-1.24.77-1.21.79-1.18.79-1.17.8-1.12.79-1.11.8-1.08.8-1.05.79-1.02.8-.99.8-.97.79-.92.8-.89.79-.88.79-.83.77-.8.77-.79.77-.74.76-.71.76-.68.74-.65.74-.62.73-.61.71-.56.71-.52.68-.5.68-.47.67-.44.65-.41.64-.38.62-.33.61-.32.59-.29.58-.26.55-.23.53-.2.52-.17.5-.14.47-.11.45-.08.42-.06.41-.03h.38l.36.03.33.06.3.08.29.11.26.14.24.15.2.18.18.2.15.23.12.26.09.26.06.3.05.3v.33l-.03.35-.05.38-.09.39-.12.39-.14.44-.18.44-.21.45-.24.47-.27.49-.32.5-.33.52-.38.53-.39.53-.44.55-.47.56-.5.58-.55.58-.56.58-.61.61-.62.59-.67.61-.7.61-.74.62-.76.62-.79.62-.83.62-.86.64-.88.62-.92.64-.96.62-.99.64-1.02.62-1.03.62-1.08.62-1.11.62-1.14.61-1.15.61-1.2.61-1.21.59-1.24.59-1.27.58-1.29.58-1.32.56-1.35.56-1.38.55-1.39.53-1.41.52-1.44.52-1.47.5-1.49.49-1.52.47-1.52.45-1.55.45-1.58.42-1.58.42-1.61.39-1.62.38-1.64.38-1.65.35-1.67.33-1.68.32-1.68.29-1.71.29-1.71.26-1.73.26-1.74.23-1.74.2-1.76.2-1.76.17-1.77.15-1.77.12-1.77.11-1.79.09-1.79.08-1.79.05-1.8.03-1.79.02-1.79-.02-1.8-.03-1.79-.05-1.79-.08-1.79-.09-1.77-.11-1.77-.12-1.77-.15-1.76-.17-1.76-.2-1.74-.2-1.74-.23-1.73-.26-1.71-.26-1.71-.29-1.68-.29-1.68-.32-1.67-.33-1.65-.35-1.64-.38-1.62-.38-1.61-.39-1.58-.42-1.58-.42-1.55-.45-1.52-.45-1.52-.47-1.49-.49-1.47-.5-1.44-.52-1.41-.52-1.39-.53-1.38-.55-1.35-.56-1.32-.56-1.29-.58-1.27-.58-1.24-.59-1.21-.59-1.2-.61-1.15-.61-1.14-.61-1.11-.62-1.08-.62-1.03-.62-1.02-.62-.99-.64-.96-.62-.92-.64-.88-.62-.86-.64-.83-.62-.79-.62-.76-.62-.74-.62-.7-.61-.67-.61-.62-.59-.61-.61-.56-.58-.55-.58-.5-.58-.47-.56-.44-.55-.39-.53-.38-.53-.33-.52-.32-.5-.27-.49-.24-.47-.21-.45-.18-.44-.14-.44-.12-.39-.09-.39-.05-.38-.03-.35v-.33l.05-.3.06-.3.09-.26.12-.26.15-.23.18-.2.2-.18.24-.15.26-.14.29-.11.3-.08.33-.06.36-.03h.38l.41.03.42.06.45.08.47.11.5.14.52.17.53.2.55.23.58.26.59.29.61.32.62.33.64.38.65.41.67.44.68.47.68.5.71.52.71.56.73.61.74.62.74.65.76.68.76.71.77.74.77.79.77.8.79.83.79.88.8.89.79.92.8.97.8.99.79,1.02.8,1.05.8,1.08.79,1.11.8,1.12.79,1.17.79,1.18.77,1.21.79,1.24.77,1.26.76,1.29.76,1.32.76,1.35.74,1.36.73,1.38.73,1.41.71,1.44.7,1.44.7,1.49.68,1.49.67,1.52.65,1.55.65,1.55.62,1.58.62,1.59.59,1.59.59,1.62.56,1.64.55,1.65.55,1.67.52,1.67.5,1.7.49,1.7.47,1.71.44,1.71.44,1.73.41,1.74.39,1.74.38,1.76.35,1.76.33,1.76.32,1.76.29,1.77.27,1.77.26,1.77.24,1.77.21,1.77.2,1.77.17,1.77.15,1.76.14,1.77.11,1.76.09,1.74.08,1.76.06,1.74.03,1.73.02,1.73-.02,1.71-.03,1.71-.05,1.7-.06,1.68-.09,1.67-.09,1.65-.14,1.65-.14,1.62-.15,1.61-.18,1.61-.18,1.58-.21,1.56-.23,1.53-.24,1.53-.26,1.5-.27,1.49-.29,1.46-.3,1.44-.32,1.41-.33,1.39-.33,1.36-.36,1.35-.36,1.32-.38,1.29-.39,1.26-.39,1.24-.41,1.21-.42,1.18-.42,1.15-.44,1.14-.44,1.09-.45,1.06-.45,1.05-.45,1-.47.99-.47.94-.47.91-.49.88-.47.85-.49.82-.49.79-.47.74-.49.71-.49.68-.47.65-.49.62-.47.58-.45.56-.47.5-.45.49-.45.45-.44.41-.44.38-.42.33-.42.32-.41.27-.39.24-.39.21-.38.17-.36.15-.35.11-.35.08-.32.03-.3.02-.3-.03-.27-.05-.26-.09-.24-.12-.23-.15-.2-.18-.2-.21-.17-.24-.14-.27-.14-.3-.11-.32-.08-.36-.06-.39-.05-.41v-.91l.03-.49.06-.52.09-.55.11-.58.14-.59.15-.61.2-.64.21-.67.24-.67.27-.71.29-.71.32-.74.36-.76.38-.77.41-.79.44-.8.45-.83.5-.83.53-.85.55-.86.59-.88.61-.89.64-.91.67-.91.71-.92.73-.92.76-.94.77-.96.82-.96.85-.96.88-.97.89-.97.92-.97.96-.99.99-.97,1.02-.99,1.05-.99,1.06-.99,1.11-.97,1.11-.99,1.15-.97,1.17-.99,1.2-.97,1.23-.96,1.24-.97,1.27-.96,1.3-.96,1.3-.94,1.35-.92,1.36-.94,1.38-.91,1.41-.91,1.43-.89,1.44-.89,1.46-.88,1.49-.86,1.5-.85,1.52-.83,1.55-.83,1.55-.8,1.56-.8,1.59-.79,1.59-.76,1.61-.76,1.62-.73,1.62-.73,1.65-.7,1.65-.68,1.67-.67,1.67-.65,1.68-.62,1.68-.61,1.7-.59,1.7-.58,1.7-.56,1.71-.53,1.7-.52,1.71-.49,1.71-.47,1.73-.45,1.71-.42,1.71-.41,1.71-.39,1.7-.36,1.71-.35,1.7-.33,1.7-.3,1.68-.27,1.68-.27,1.68-.24,1.67-.21,1.65-.2,1.65-.18,1.62-.17,1.64-.14,1.61-.12,1.59-.09,1.59-.08,1.56-.06,1.56-.05,1.53-.02h1.52l1.5.02,1.49.05,1.46.05,1.44.08,1.43.09,1.39.11,1.38.12,1.35.14,1.33.15,1.3.17,1.29.18,1.26.2,1.23.21,1.2.23,1.18.24,1.14.24,1.12.27,1.09.27,1.06.27,1.03.3,1,.29.97.32.94.32.91.33.88.33.85.33.8.35.79.35.74.35.71.36.67.36.65.36.61.36.58.36.55.36.5.38.47.36.44.36.41.36.36.35.33.36.29.35.26.35.23.33.2.33.15.32.12.32.09.32.05.29.02.29-.02.29-.06.26-.08.26-.12.24-.17.23-.18.23-.21.2-.26.18-.29.18-.32.15-.35.14-.38.12-.41.11-.44.08-.47.08-.5.05-.53.02-.56.02-.59-.02-.61-.05-.65-.06-.67-.08-.7-.11-.71-.12-.74-.15-.77-.18-.79-.2-.82-.23-.83-.24-.86-.27-.88-.3-.89-.32-.91-.36-.94-.36-.96-.41-.97-.42-1-.45-1-.49-1.02-.52-1.05-.53-1.05-.58-1.06-.59-1.08-.62-1.08-.64-1.11-.68-1.11-.7-1.11-.73-1.12-.76-1.14-.77-1.14-.82-1.14-.83-1.15-.86-1.15-.89-1.17-.91-1.15-.94-1.17-.97-1.17-1-1.15-1.02-1.17-1.05-1.17-1.06-1.15-1.09-1.17-1.12-1.15-1.14-1.15-1.17-1.15-1.2-1.14-1.21-1.14-1.23-1.14-1.26-1.12-1.27-1.11-1.29-1.11-1.32-1.11-1.33-1.08-1.36-1.08-1.36-1.08-1.39-1.05-1.41-1.05-1.43-1.03-1.44-1.02-1.47-1-1.47-.99-1.49-.97-1.5-.96-1.52-.94-1.52-.91-1.55-.91-1.55-.89-1.56-.86-1.56-.85-1.58-.83-1.59-.82-1.59-.8-1.59-.77-1.61-.76-1.61-.73-1.61-.71-1.62-.7-1.61-.67-1.62-.65-1.62-.64-1.62-.61-1.61-.59-1.62-.56-1.61-.55-1.62-.52-1.61-.5-1.59-.49-1.59-.45-1.59-.42-1.58-.41-1.58-.39-1.56-.36-1.56-.35-1.53-.32-1.53-.3-1.52-.27-1.52-.26-1.49-.24-1.47-.21-1.47-.2-1.44-.17-1.43-.15-1.41-.14-1.39-.12-1.36-.09-1.35-.06-1.33-.06-1.3-.03-1.29-.02-1.26v-1.24l.02-1.21.03-1.2.06-1.17.06-1.14.09-1.11.09-1.09.12-1.06.12-1.02.15-1,.15-.97.17-.96.18-.91.2-.88.2-.85.21-.82.23-.77.23-.76.24-.71.24-.7.26-.65.27-.62.27-.58.27-.56.27-.52.29-.47.29-.45.29-.41.29-.38.3-.33.29-.3.29-.27.3-.23.29-.2.29-.17.29-.12.29-.09.29-.06.27-.02.27.02.26.05.26.09.26.12.24.17.23.2.23.23.21.26.21.3.18.33.18.36.17.39.17.42.14.47.12.5.12.53.09.55.08.59.08.62.05.65.03.68.02.71-.02.74-.03.77-.05.79-.06.83-.08.85-.12.86-.12.91-.15.92-.17.96-.2.97-.21.99-.24,1.03-.26,1.03-.29,1.06-.3,1.09-.33,1.09-.36,1.12-.38,1.14-.41,1.15-.42,1.17-.47,1.2-.47,1.2-.52,1.21-.53,1.23-.56,1.24-.58,1.26-.61,1.26-.64,1.27-.65,1.29-.68,1.29-.71,1.3-.74,1.3-.76,1.32-.79,1.32-.8,1.33-.83,1.32-.86,1.33-.88,1.33-.91,1.33-.92,1.33-.96,1.35-.99,1.33-1,1.33-1.03,1.33-1.05,1.32-1.06,1.33-1.09,1.32-1.11,1.32-1.14,1.3-1.15,1.3-1.18,1.3-1.18,1.29-1.21,1.27-1.23,1.27-1.26,1.26-1.26,1.24-1.29,1.24-1.29,1.23-1.32,1.21-1.33,1.2-1.35,1.18-1.35,1.17-1.38,1.15-1.38,1.15-1.39,1.12-1.41,1.11-1.43,1.09-1.43,1.06-1.44,1.06-1.44,1.03-1.46,1.02-1.47,1-1.46.99-1.49.96-1.47.94-1.49.91-1.49.89-1.49.88-1.49.85-1.5.83-1.49.8-1.49.79-1.5.76-1.49.74-1.49.71-1.47.7-1.49.67-1.47.64-1.46.64-1.46.59-1.46.58-1.44.55-1.43.53-1.43.52-1.41.47-1.39.45-1.38.44-1.36.41-1.36.39-1.33.36-1.33.33-1.3.32-1.29.3-1.27.27-1.26.24-1.23.23-1.21.21-1.2.18-1.17.17-1.15.14-1.12.14-1.11.09-1.08.09-1.06.06-1.02.05-1,.03-.99.02-.94-.02-.92-.02-.88-.05-.86-.06-.83-.08-.8-.09-.77-.11-.74-.11-.71-.14-.67-.14-.65-.17-.61-.17-.58-.18-.55-.18-.52-.2-.49-.21-.44-.21-.41-.23-.38-.23-.33-.24-.3-.24-.27-.26-.23-.26-.2-.26-.17-.26-.12-.27-.09-.26-.06-.27-.02-.27.02-.27.06-.27.09-.26.12-.27.17-.26.2-.26.23-.26.27-.26.3-.24.33-.24.38-.23.41-.23.44-.21.49-.21.52-.2.55-.18.58-.18.61-.17.65-.17.67-.14.71-.14.74-.11.77-.11.8-.09.83-.08.86-.06.88-.05.92-.02.94-.02.99.02,1,.03,1.02.05,1.06.06,1.08.09,1.11.09,1.12.14,1.15.14,1.17.17,1.2.18,1.21.21,1.23.23,1.26.24,1.27.27,1.29.3,1.3.32,1.33.33,1.33.36,1.36.39,1.36.41,1.38.44,1.39.45,1.41.47,1.43.52,1.43.53,1.44.55,1.46.58,1.46.59,1.46.64,1.47.64,1.49.67,1.47.7,1.49.71,1.49.74,1.5.76,1.49.79,1.49.8,1.5.83,1.49.85,1.49.88,1.49.89,1.49.91,1.47.94,1.49.96,1.46.99,1.47,1,1.46,1.02,1.44,1.03,1.44,1.06,1.43,1.06,1.43,1.09,1.41,1.11,1.39,1.12,1.38,1.15,1.38,1.15,1.35,1.17,1.35,1.18,1.33,1.2,1.32,1.21,1.29,1.23,1.29,1.24,1.26,1.24,1.26,1.26,1.23,1.27,1.21,1.27,1.18,1.29,1.18,1.3,1.15,1.3,1.14,1.3,1.11,1.32,1.09,1.32,1.06,1.33,1.05,1.32,1.03,1.33,1,1.33.99,1.33.96,1.35.92,1.33.91,1.33.88,1.33.86,1.33.83,1.32.8,1.33.79,1.32.76,1.32.74,1.3.71,1.3.68,1.29.65,1.29.64,1.27.61,1.26.58,1.26.56,1.24.53,1.23.52,1.21.47,1.2.47,1.2.42,1.17.41,1.15.38,1.14.36,1.12.33,1.09.3,1.09.29,1.06.26,1.03.24,1.03.21.99.2.97.17.96.15.92.12.91.12.86.08.85.06.83.05.79.03.77.02.74-.02.71-.03.68-.05.65-.08.62-.08.59-.09.55-.12.53-.12.5-.14.47-.17.42-.17.39-.18.36-.18.33-.21.3-.21.26-.23.23-.23.2-.24.17-.26.12-.26.09-.26.05-.27.02-.27-.02-.29-.06-.29-.09-.29-.12-.29-.17-.29-.2-.3-.23-.29-.27-.29-.3-.3-.33-.29-.38-.29-.41-.29-.45-.29-.47-.27-.52-.27-.56-.27-.58-.27-.62-.26-.65-.24-.7-.24-.71-.23-.76-.23-.77-.21-.82-.2-.85-.2-.88-.18-.91-.17-.96-.15-.97-.15-1-.12-1.02-.12-1.06-.09-1.09-.09-1.11-.06-1.14-.06-1.17-.03-1.2-.02-1.21v-1.24l.02-1.26.03-1.29.06-1.3.06-1.33.09-1.35.12-1.36.14-1.39.15-1.41.17-1.43.2-1.44.21-1.47.24-1.47.26-1.49.27-1.52.3-1.52.32-1.53.35-1.53.36-1.56.39-1.56.41-1.58.42-1.58.45-1.59.49-1.59.5-1.59.52-1.61.55-1.62.56-1.61.59-1.62.61-1.61.64-1.62.65-1.62.67-1.62.7-1.61.71-1.62.73-1.61.76-1.61.77-1.61.8-1.59.82-1.59.83-1.59.85-1.58.86-1.56.89-1.56.91-1.55.91-1.55.94-1.52.96-1.52.97-1.5.99-1.49,1-1.47,1.02-1.47,1.03-1.44,1.05-1.43,1.05-1.41,1.08-1.39,1.08-1.36,1.08-1.36,1.11-1.33,1.11-1.32,1.11-1.29,1.12-1.27,1.14-1.26,1.14-1.23,1.14-1.21,1.15-1.2,1.15-1.17,1.15-1.14,1.17-1.12,1.15-1.09,1.17-1.06,1.17-1.05,1.15-1.02,1.17-1,1.17-.97,1.15-.94,1.17-.91,1.15-.89,1.15-.86,1.14-.83,1.14-.82,1.14-.77,1.12-.76,1.11-.73,1.11-.7,1.11-.68,1.08-.64,1.08-.62,1.06-.59,1.05-.58,1.05-.53,1.02-.52,1-.49,1-.45.97-.42.96-.41.94-.36.91-.36.89-.32.88-.3.86-.27.83-.24.82-.23.79-.2.77-.18.74-.15.71-.12.7-.11.67-.08.65-.06.61-.05.59-.02.56.02.53.02.5.05.47.08.44.08.41.11.38.12.35.14.32.15.29.18.26.18.21.2.18.23.17.23.12.24.08.26.06.26.02.29-.02.29-.05.29-.09.32-.12.32-.15.32-.2.33-.23.33-.26.35-.29.35-.33.36-.36.35-.41.36-.44.36-.47.36-.5.38-.55.36-.58.36-.61.36-.65.36-.67.36-.71.36-.74.35-.79.35-.8.35-.85.33-.88.33-.91.33-.94.32-.97.32-1,.29-1.03.3-1.06.27-1.09.27-1.12.27-1.14.24-1.18.24-1.2.23-1.23.21-1.26.2-1.29.18-1.3.17-1.33.15-1.35.14-1.38.12-1.39.11-1.43.09-1.44.08-1.46.05-1.49.05-1.5.02h-1.52l-1.53-.02-1.56-.05-1.56-.06-1.59-.08-1.59-.09-1.61-.12-1.64-.14-1.62-.17-1.65-.18-1.65-.2-1.67-.21-1.68-.24-1.68-.27-1.68-.27-1.7-.3-1.7-.33-1.71-.35-1.7-.36-1.71-.39-1.71-.41-1.71-.42-1.73-.45-1.71-.47-1.71-.49-1.7-.52-1.71-.53-1.7-.56-1.7-.58-1.7-.59-1.68-.61-1.68-.62-1.67-.65-1.67-.67-1.65-.68-1.65-.7-1.62-.73-1.62-.73-1.61-.76-1.59-.76-1.59-.79-1.56-.8-1.55-.8-1.55-.83-1.52-.83-1.5-.85-1.49-.86-1.46-.88-1.44-.89-1.43-.89-1.41-.91-1.38-.91-1.36-.94-1.35-.92-1.3-.94-1.3-.96-1.27-.96-1.24-.97-1.23-.96-1.2-.97-1.17-.99-1.15-.97-1.11-.99-1.11-.97-1.06-.99-1.05-.99-1.02-.99-.99-.97-.96-.99-.92-.97-.89-.97-.88-.97-.85-.96-.82-.96-.77-.96-.76-.94-.73-.92-.71-.92-.67-.91-.64-.91-.61-.89-.59-.88-.55-.86-.53-.85-.5-.83-.45-.83-.44-.8-.41-.79-.38-.77-.36-.76-.32-.74-.29-.71-.27-.71-.24-.67-.21-.67-.2-.64-.15-.61-.14-.59-.11-.58-.09-.55-.06-.52-.03-.49v-.91l.05-.41.06-.39.08-.36.11-.32.14-.3.14-.27.17-.24.2-.21.2-.18.23-.15.24-.12.26-.09.27-.05.3-.03.3.02.32.03.35.08.35.11.36.15.38.17.39.21.39.24.41.27.42.32.42.33.44.38.44.41.45.45.45.49.47.5.45.56.47.58.49.62.47.65.49.68.49.71.47.74.49.79.49.82.47.85.49.88.47.91.47.94.47.99.45,1,.45,1.05.45,1.06.44,1.09.44,1.14.42,1.15.42,1.18.41,1.21.39,1.24.39,1.26.38,1.29.36,1.32.36,1.35.33,1.36.33,1.39.32,1.41.3,1.44.29,1.46.27,1.49.26,1.5.24,1.53.23,1.53.21,1.56.18,1.58.18,1.61.15,1.61.14,1.62.14,1.65.09,1.65.09,1.67.06,1.68.05,1.7.03,1.71.02,1.71-.02,1.73-.03,1.73-.06,1.74-.08,1.76-.09,1.74-.11,1.76-.14,1.77-.15,1.76-.17,1.77-.2,1.77-.21,1.77-.24,1.77-.26,1.77-.27,1.77-.29,1.77-.32,1.76-.33,1.76-.35,1.76-.38,1.76-.39,1.74-.41,1.74-.44,1.73-.44,1.71-.47,1.71-.49,1.7-.5,1.7-.52,1.67-.55,1.67-.55,1.65-.56,1.64-.59,1.62-.59,1.59-.62,1.59-.62,1.58-.65,1.55-.65,1.55-.67,1.52-.68,1.49-.7,1.49-.7,1.44-.71,1.44-.73,1.41-.73,1.38-.74,1.36-.76,1.35-.76,1.32-.76,1.29-.77,1.26-.79,1.24-.77,1.21-.79,1.18-.79,1.17-.8,1.12-.79,1.11-.8,1.08-.8,1.05-.79,1.02-.8.99-.8.97-.79.92-.8.89-.79.88-.79.83-.77.8-.77.79-.77.74-.76.71-.76.68-.74.65-.74.62-.73.61-.71.56-.71.52-.68.5-.68.47-.67.44-.65.41-.64.38-.62.33-.61.32-.59.29-.58.26-.55.23-.53.2-.52.17-.5.14-.47.11-.45.08-.42.06-.41.03h-.38l-.36-.03-.33-.06-.3-.08-.29-.11-.26-.14-.24-.15-.2-.18-.18-.2-.15-.23-.12-.26-.09-.26-.06-.3-.05-.3v-.33l.03-.35.05-.38.09-.39.12-.39.14-.44.18-.44.21-.45.24-.47.27-.49.32-.5.33-.52.38-.53.39-.53.44-.55.47-.56.5-.58.55-.58.56-.58.61-.61.62-.59.67-.61.7-.61.74-.62.76-.62.79-.62.83-.62.86-.64.88-.62.92-.64.96-.62.99-.64,1.02-.62,1.03-.62,1.08-.62,1.11-.62,1.14-.61,1.15-.61,1.2-.61,1.21-.59,1.24-.59,1.27-.58,1.29-.58,1.32-.56,1.35-.56,1.38-.55,1.39-.53,1.41-.52,1.44-.52,1.47-.5,1.49-.49,1.52-.47,1.52-.45,1.55-.45,1.58-.42,1.58-.42,1.61-.39,1.62-.38,1.64-.38,1.65-.35,1.67-.33,1.68-.32,1.68-.29,1.71-.29,1.71-.26,1.73-.26,1.74-.23,1.74-.2,1.76-.2,1.76-.17,1.77-.15,1.77-.12,1.77-.11,1.79-.09,1.79-.08,1.79-.05,1.8-.03,1.79-.02,1.79.02,1.8.03,1.79.05,1.79.08,1.79.09,1.77.11,1.77.12,1.77.15,1.76.17,1.76.2,1.74.2,1.74.23,1.73.26,1.71.26,1.71.29,1.68.29,1.68.32,1.67.33,1.65.35,1.64.38,1.62.38,1.61.39,1.58.42,1.58.42,1.55.45,1.52.45,1.52.47,1.49.49,1.47.5,1.44.52,1.41.52,1.39.53,1.38.55,1.35.56,1.32.56,1.29.58,1.27.58,1.24.59,1.21.59,1.2.61,1.15.61,1.14.61,1.11.62,1.08.62,1.03.62,1.02.62.99.64.96.62.92.64.88.62.86.64.83.62.79.62.76.62.74.62.7.61.67.61.62.59.61.61.56.58.55.58.5.58.47.56.44.55.39.53.38.53.33.52.32.5.27.49.24.47.21.45.18.44.14.44.12.39.09.39.05.38.03.35v.33l-.05.3-.06.3-.09.26-.12.26-.15.23-.18.2-.2.18-.24.15-.26.14-.29.11-.3.08-.33.06-.36.03h-.38l-.41-.03-.42-.06-.45-.08-.47-.11-.5-.14-.52-.17-.53-.2-.55-.23-.58-.26-.59-.29-.61-.32-.62-.33-.64-.38-.65-.41-.67-.44-.68-.47-.68-.5-.71-.52-.71-.56-.73-.61-.74-.62-.74-.65-.76-.68-.76-.71-.77-.74-.77-.79-.77-.8-.79-.83-.79-.88-.8-.89-.79-.92-.8-.97-.8-.99-.79-1.02-.8-1.05-.8-1.08-.79-1.11-.8-1.12-.79-1.17-.79-1.18-.77-1.21-.79-1.24-.77-1.26-.76-1.29-.76-1.32-.76-1.35-.74-1.36-.73-1.38-.73-1.41-.71-1.44-.7-1.44-.7-1.49-.68-1.49-.67-1.52-.65-1.55-.65-1.55-.62-1.58-.62-1.59-.59-1.59-.59-1.62-.56-1.64-.55-1.65-.55-1.67-.52-1.67-.5-1.7-.49-1.7-.47-1.71-.44-1.71-.44-1.73-.41-1.74-.39-1.74-.38-1.76-.35-1.76-.33-1.76-.32-1.76-.29-1.77-.27-1.77-.26-1.77-.24-1.77-.21-1.77-.2-1.77-.17-1.77-.15-1.76-.14-1.77-.11-1.76-.09-1.74-.08-1.76-.06-1.74-.03-1.73-.02-1.73.02-1.71.03-1.71.05-1.7.06-1.68.09-1.67.09-1.65.14-1.65.14-1.62.15-1.61.18-1.61.18-1.58.21-1.56.23-1.53.24-1.53.26-1.5.27-1.49.29-1.46.3-1.44.32-1.41.33-1.39.33-1.36.36-1.35.36-1.32.38-1.29.39-1.26.39-1.24.41-1.21.42-1.18.42-1.15.44-1.14.44-1.09.45-1.06.45-1.05.45-1,.47-.99.47-.94.47-.91.49-.88.47-.85.49-.82.49-.79.47-.74.49-.71.49-.68.47-.65.49-.62.47-.58.45-.56.47-.5.45-.49.45-.45.44-.41.44-.38.42-.33.42-.32.41-.27.39-.24.39-.21.38-.17.36-.15.35-.11.35-.08.32-.03.3-.02.3.03.27.05.26.09.24.12.23.15.2.18.2.21.17.24.14.27.14.3.11.32.08.36.06.39.05.41v.91l-.03.49-.06.52-.09.55-.11.58-.14.59-.15.61-.2.64-.21.67-.24.67-.27.71-.29.71-.32.74-.36.76-.38.77-.41.79-.44.8-.45.83-.5.83-.53.85-.55.86-.59.88-.61.89-.64.91-.67.91-.71.92-.73.92-.76.94-.77.96-.82.96-.85.96-.88.97-.89.97-.92.97-.96.99-.99.97-1.02.99-1.05.99-1.06.99-1.11.97-1.11.99-1.15.97-1.17.99-1.2.97-1.23.96-1.24.97-1.27.96-1.3.96-1.3.94-1.35.92-1.36.94-1.38.91-1.41.91-1.43.89-1.44.89-1.46.88-1.49.86-1.5.85-1.52.83-1.55.83-1.55.8-1.56.8-1.59.79-1.59.76-1.61.76-1.62.73-1.62.73-1.65.7-1.65.68-1.67.67-1.67.65-1.68.62-1.68.61-1.7.59-1.7.58-1.7.56-1.71.53-1.7.52-1.71.49-1.71.47-1.73.45-1.71.42-1.71.41-1.71.39-1.7.36-1.71.35-1.7.33-1.7.3-1.68.27-1.68.27-1.68.24-1.67.21-1.65.2-1.65.18-1.62.17-1.64.14-1.61.12-1.59.09-1.59.08-1.56.06-1.56.05-1.53.02h-1.52l-1.5-.02-1.49-.05-1.46-.05-1.44-.08-1.43-.09-1.39-.11-1.38-.12-1.35-.14-1.33-.15-1.3-.17-1.29-.18-1.26-.2-1.23-.21-1.2-.23-1.18-.24-1.14-.24-1.12-.27-1.09-.27-1.06-.27-1.03-.3-1-.29-.97-.32-.94-.32-.91-.33-.88-.33-.85-.33-.8-.35-.79-.35-.74-.35-.71-.36-.67-.36-.65-.36-.61-.36-.58-.36-.55-.36-.5-.38-.47-.36-.44-.36-.41-.36-.36-.35-.33-.36-.29-.35-.26-.35-.23-.33-.2-.33-.15-.32-.12-.32-.09-.32-.05-.29-.02-.29.02-.29.06-.26.08-.26.12-.24.17-.23.18-.23.21-.2.26-.18.29-.18.32-.15.35-.14.38-.12.41-.11.44-.08.47-.08.5-.05.53-.02.56-.02.59.02.61.05.65.06.67.08.7.11.71.12.74.15.77.18.79.2.82.23.83.24.86.27.88.3.89.32.91.36.94.36.96.41.97.42,1,.45,1,.49,1.02.52,1.05.53,1.05.58,1.06.59,1.08.62,1.08.64,1.11.68,1.11.7,1.11.73,1.12.76,1.14.77,1.14.82,1.14.83,1.15.86,1.15.89,1.17.91,1.15.94,1.17.97,1.17,1,1.15,1.02,1.17,1.05,1.17,1.06,1.15,1.09,1.17,1.12,1.15,1.14,1.15,1.17,1.15,1.2,1.14,1.21,1.14,1.23,1.14,1.26,1.12,1.27,1.11,1.29,1.11,1.32,1.11,1.33,1.08,1.36,1.08,1.36,1.08,1.39,1.05,1.41,1.05,1.43,1.03,1.44,1.02,1.47,1,1.47.99,1.49.97,1.5.96,1.52.94,1.52.91,1.55.91,1.55.89,1.56.86,1.56.85,1.58.83,1.59.82,1.59.8,1.59.77,1.61.76,1.61.73,1.61.71,1.62.7,1.61.67,1.62.65,1.62.64,1.62.61,1.61.59,1.62.56,1.61.55,1.62.52,1.61.5,1.59.49,1.59.45,1.59.42,1.58.41,1.58.39,1.56.36,1.56.35,1.53.32,1.53.3,1.52.27,1.52.26,1.49.24,1.47.21,1.47.2,1.44.17,1.43.15,1.41.14,1.39.12,1.36.09,1.35.06,1.33.06,1.3.03,1.29.02,1.26v1.24l-.02,1.21-.03,1.2-.06,1.17-.06,1.14-.09,1.11-.09,1.09-.12,1.06-.12,1.02-.15,1-.15.97-.17.96-.18.91-.2.88-.2.85-.21.82-.23.77-.23.76-.24.71-.24.7-.26.65-.27.62-.27.58-.27.56-.27.52-.29.47-.29.45-.29.41-.29.38-.3.33-.29.3-.29.27-.3.23-.29.2-.29.17-.29.12-.29.09-.29.06-.27.02-.27-.02-.26-.05-.26-.09-.26-.12-.24-.17-.23-.2-.23-.23-.21-.26-.21-.3-.18-.33-.18-.36-.17-.39-.17-.42-.14-.47-.12-.5-.12-.53-.09-.55-.08-.59-.08-.62-.05-.65-.03-.68-.02-.71.02-.74.03-.77.05-.79.06-.83.08-.85.12-.86.12-.91.15-.92.17-.96.2-.97.21-.99.24-1.03.26-1.03.29-1.06.3-1.09.33-1.09.36-1.12.38-1.14.41-1.15.42-1.17.47-1.2.47-1.2.52-1.21.53-1.23.56-1.24.58-1.26.61-1.26.64-1.27.65-1.29.68-1.29.71-1.3.74-1.3.76-1.32.79-1.32.8-1.33.83-1.32.86-1.33.88-1.33.91-1.33.92-1.33.96-1.35.99-1.33,1-1.33,1.03-1.33,1.05-1.32,1.06-1.33,1.09-1.32,1.11-1.32,1.14-1.3,1.15-1.3,1.18-1.3,1.18-1.29,1.21-1.27,1.23-1.27,1.26-1.26,1.26-1.24,1.29-1.24,1.29-1.23,1.32-1.21,1.33-1.2,1.35-1.18,1.35-1.17,1.38-1.15,1.38-1.15,1.39-1.12,1.41-1.11,1.43-1.09,1.43-1.06,1.44-1.06,1.44-1.03,1.46-1.02,1.47-1,1.46-.99,1.49-.96,1.47-.94,1.49-.91,1.49-.89,1.49-.88,1.49-.85,1.5-.83,1.49-.8,1.49-.79,1.5-.76,1.49-.74,1.49-.71,1.47-.7,1.49-.67,1.47-.64,1.46-.64,1.46-.59,1.46-.58,1.44-.55,1.43-.53,1.43-.52,1.41-.47,1.39-.45,1.38-.44,1.36-.41,1.36-.39,1.33-.36,1.33-.33,1.3-.32,1.29-.3,1.27-.27,1.26-.24,1.23-.23,1.21-.21,1.2-.18,1.17-.17,1.15-.14,1.12-.14,1.11-.09,1.08-.09,1.06-.06,1.02-.05,1-.03.99-.02.94.02.92.02.88.05.86.06.83.08.8.09.77.11.74.11.71.14.67.14.65.17.61.17.58.18.55.18.52.2.49.21.44.21.41.23.38.23.33.24.3.24.27.26.23.26.2.26.17.26.12.27.09.26.06.27.02.27"/>
  </g>
</svg>