<?xml version="1.0" encoding="UTF-8"?>
<svg id="Layer_2" data-name="Layer 2" xmlns="http://www.w3.org/2000/svg" viewBox="0 0 216.25 216.25">
  <defs>
    <style>
      .cls-1 {
        fill: none;
        stroke: #3f28b2;
        stroke-miterlimit: 10;
        stroke-width: .25px;
      }
    </style>
  </defs>
  <g id="Layer_1-2" data-name="Layer 1">
    <path class="cls-1" d="M216.13,108.13l-.06.71-.18.71-.29.71-.41.72-.53.7-.64.71-.76.71-.88.7-.99.7-1.1.7-1.21.7-1.32.69-1.43.69-1.54.68-1.64.68-1.75.67-1.85.68-1.94.66-2.05.66-2.14.65-2.23.65-2.32.64-2.41.63-2.5.63-2.57.62-2.66.61-2.73.6-2.81.59-2.88.59-2.94.57-3.01.57-3.07.55-3.12.54-3.18.54-3.23.52-3.28.51-3.32.49-3.35.49-3.4.47-3.42.46-3.46.45-3.48.43-3.49.41-3.52.41-3.53.38-3.54.37-3.54.36-3.54.34-3.54.32-3.54.3-3.52.29-3.51.27-3.49.25-3.47.23-3.44.22-3.41.19-3.38.18-3.35.15-3.3.14-3.26.11-3.21.09-3.15.07-3.11.05-3.04.03h-5.91s-2.85-.05-2.85-.05l-2.78-.07-2.7-.08-2.63-.11-2.55-.13-2.47-.16-2.38-.18-2.29-.21-2.2-.23-2.11-.25-2.02-.28-1.92-.3-1.82-.33-1.72-.35-1.61-.38-1.51-.4-1.41-.43-1.29-.45-1.19-.48-1.08-.5-.97-.52-.85-.55-.75-.58-.62-.6-.52-.62-.39-.64-.29-.67-.17-.7-.05-.71.07-.74.17-.76.3-.78.41-.81.52-.82.63-.85.75-.86.86-.89.97-.9,1.08-.92,1.19-.95,1.3-.95,1.4-.98,1.5-.99,1.61-1.01,1.71-1.02,1.8-1.03,1.9-1.05,1.99-1.06,2.09-1.08,2.18-1.08,2.26-1.09,2.34-1.11,2.43-1.11,2.51-1.12,2.58-1.12,2.65-1.13,2.73-1.14,2.79-1.14,2.85-1.14,2.92-1.14,2.97-1.14,3.03-1.14,3.08-1.15,3.12-1.13,3.17-1.14,3.21-1.13,3.25-1.12,3.28-1.12,3.3-1.11,3.34-1.09,3.35-1.09,3.38-1.08,3.38-1.06,3.4-1.06,3.41-1.03,3.41-1.02,3.41-1,3.4-.99,3.4-.96,3.39-.94,3.37-.93,3.35-.89,3.33-.88,3.3-.85,3.27-.82,3.24-.8,3.21-.77,3.16-.74,3.12-.71,3.07-.68,3.02-.64,2.97-.61,2.91-.58,2.85-.55,2.79-.5,2.72-.48,2.65-.43,2.58-.4,2.51-.35,2.43-.32,2.35-.28,2.27-.23,2.18-.2,2.1-.15,2.01-.11,1.92-.06,1.82-.03,1.73.02,1.64.07,1.53.11,1.44.16,1.34.2,1.23.24,1.13.3,1.02.34.92.38.81.43.71.48.6.52.49.56.38.62.27.65.17.71.05.75-.05.79-.17.83-.27.88-.38.92-.48.97-.59,1-.7,1.05-.8,1.08-.91,1.13-1,1.16-1.11,1.21-1.21,1.23-1.31,1.28-1.4,1.31-1.5,1.34-1.59,1.38-1.68,1.4-1.77,1.44-1.86,1.47-1.94,1.49-2.03,1.52-2.1,1.55-2.19,1.57-2.25,1.59-2.34,1.61-2.4,1.63-2.46,1.65-2.53,1.67-2.6,1.68-2.65,1.69-2.71,1.7-2.75,1.72-2.81,1.72-2.86,1.72-2.89,1.74-2.94,1.73-2.97,1.74-3.01,1.73-3.03,1.73-3.07,1.73-3.08,1.72-3.1,1.71-3.12,1.7-3.13,1.69-3.14,1.68-3.15,1.66-3.15,1.64-3.15,1.63-3.14,1.6-3.13,1.58-3.13,1.56-3.1,1.53-3.09,1.5-3.07,1.47-3.04,1.43-3.02,1.41-2.98,1.37-2.95,1.33-2.91,1.3-2.87,1.25-2.83,1.21-2.78,1.17-2.73,1.13-2.67,1.07-2.62,1.03-2.57.98-2.5.93-2.44.88-2.37.83-2.3.77-2.24.72-2.16.66-2.08.6-2.01.54-1.93.49-1.85.42-1.76.36-1.68.3-1.6.24-1.5.18-1.42.11-1.32.05-1.24-.02-1.14-.08-1.05-.15-.95-.22-.86-.28-.76-.34-.66-.41-.57-.48-.47-.54-.37-.61-.27-.67-.18-.74-.07-.81.02-.86.12-.93.21-1,.31-1.05.41-1.12.51-1.18.59-1.23.7-1.3.78-1.35.88-1.41.96-1.46,1.06-1.52,1.14-1.57,1.23-1.63,1.31-1.67,1.39-1.72,1.48-1.76,1.56-1.82,1.63-1.85,1.71-1.9,1.78-1.93,1.85-1.98,1.92-2.01,1.99-2.04,2.05-2.08,2.12-2.1,2.17-2.14,2.23-2.16,2.28-2.18,2.34-2.2,2.38-2.23,2.43-2.24,2.47-2.25,2.52-2.27,2.55-2.27,2.58-2.29,2.62-2.29,2.65-2.29,2.67-2.29,2.69-2.29,2.72-2.28,2.73-2.28,2.74-2.26,2.76-2.26,2.76-2.23,2.77-2.23,2.77-2.2,2.77-2.18,2.76-2.15,2.76-2.13,2.75-2.1,2.73-2.06,2.72-2.04,2.7-1.99,2.68-1.96,2.65-1.91,2.62-1.87,2.6-1.83,2.56-1.78,2.52-1.72,2.49-1.68,2.45-1.62,2.4-1.56,2.36-1.51,2.31-1.45,2.26-1.38,2.21-1.33,2.15-1.25,2.09-1.19,2.04-1.12,1.97-1.05,1.92-.98,1.84-.91,1.78-.83,1.72-.76,1.64-.68,1.57-.6,1.5-.53,1.42-.44,1.35-.37,1.27-.28,1.2-.21,1.11-.12,1.04-.04.96.05.87.13.79.21.71.29.63.38.55.46.46.55.38.63.29.71.21.79.13.87.05.96-.04,1.04-.12,1.11-.21,1.2-.28,1.27-.37,1.35-.44,1.42-.53,1.5-.6,1.57-.68,1.64-.76,1.72-.83,1.78-.91,1.84-.98,1.92-1.05,1.97-1.12,2.04-1.19,2.09-1.25,2.15-1.33,2.21-1.38,2.26-1.45,2.31-1.51,2.36-1.56,2.4-1.62,2.45-1.68,2.49-1.72,2.52-1.78,2.56-1.83,2.6-1.87,2.62-1.91,2.65-1.96,2.68-1.99,2.7-2.04,2.72-2.06,2.73-2.1,2.75-2.13,2.76-2.15,2.76-2.18,2.77-2.2,2.77-2.23,2.77-2.23,2.76-2.26,2.76-2.26,2.74-2.28,2.73-2.28,2.72-2.29,2.69-2.29,2.67-2.29,2.65-2.29,2.62-2.29,2.58-2.27,2.55-2.27,2.52-2.25,2.47-2.24,2.43-2.23,2.38-2.2,2.34-2.18,2.28-2.16,2.23-2.14,2.17-2.1,2.12-2.08,2.05-2.04,1.99-2.01,1.92-1.98,1.85-1.93,1.78-1.9,1.71-1.85,1.63-1.82,1.56-1.76,1.48-1.72,1.39-1.67,1.31-1.63,1.23-1.57,1.14-1.52,1.06-1.46.96-1.41.88-1.35.78-1.3.7-1.23.59-1.18.51-1.12.41-1.05.31-1,.21-.93.12-.86.02-.81-.07-.74-.18-.67-.27-.61-.37-.54-.47-.48-.57-.41-.66-.34-.76-.28-.86-.22-.95-.15-1.05-.08-1.14-.02-1.24.05-1.32.11-1.42.18-1.5.24-1.6.3-1.68.36-1.76.42-1.85.49-1.93.54-2.01.6-2.08.66-2.16.72-2.24.77-2.3.83-2.37.88-2.44.93-2.5.98-2.57,1.03-2.62,1.07-2.67,1.13-2.73,1.17-2.78,1.21-2.83,1.25-2.87,1.3-2.91,1.33-2.95,1.37-2.98,1.41-3.02,1.43-3.04,1.47-3.07,1.5-3.09,1.53-3.1,1.56-3.13,1.58-3.13,1.6-3.14,1.63-3.15,1.64-3.15,1.66-3.15,1.68-3.14,1.69-3.13,1.7-3.12,1.71-3.1,1.72-3.08,1.73-3.07,1.73-3.03,1.73-3.01,1.74-2.97,1.73-2.94,1.74-2.89,1.72-2.86,1.72-2.81,1.72-2.75,1.7-2.71,1.69-2.65,1.68-2.6,1.67-2.53,1.65-2.46,1.63-2.4,1.61-2.34,1.59-2.25,1.57-2.19,1.55-2.1,1.52-2.03,1.49-1.94,1.47-1.86,1.44-1.77,1.4-1.68,1.38-1.59,1.34-1.5,1.31-1.4,1.28-1.31,1.23-1.21,1.21-1.11,1.16-1,1.13-.91,1.08-.8,1.05-.7,1-.59.97-.48.92-.38.88-.27.83-.17.79-.05.75.05.71.17.65.27.62.38.56.49.52.6.48.71.43.81.38.92.34,1.02.3,1.13.24,1.23.2,1.34.16,1.44.11,1.53.07,1.64.02,1.73-.03,1.82-.06,1.92-.11,2.01-.15,2.1-.2,2.18-.23,2.27-.28,2.35-.32,2.43-.35,2.51-.4,2.58-.43,2.65-.48,2.72-.5,2.79-.55,2.85-.58,2.91-.61,2.97-.64,3.02-.68,3.07-.71,3.12-.74,3.16-.77,3.21-.8,3.24-.82,3.27-.85,3.3-.88,3.33-.89,3.35-.93,3.37-.94,3.39-.96,3.4-.99,3.4-1,3.41-1.02,3.41-1.03,3.41-1.06,3.4-1.06,3.38-1.08,3.38-1.09,3.35-1.09,3.34-1.11,3.3-1.12,3.28-1.12,3.25-1.13,3.21-1.14,3.17-1.13,3.12-1.15,3.08-1.14,3.03-1.14,2.97-1.14,2.92-1.14,2.85-1.14,2.79-1.14,2.73-1.13,2.65-1.12,2.58-1.12,2.51-1.11,2.43-1.11,2.34-1.09,2.26-1.08,2.18-1.08,2.09-1.06,1.99-1.05,1.9-1.03,1.8-1.02,1.71-1.01,1.61-.99,1.5-.98,1.4-.95,1.3-.95,1.19-.92,1.08-.9.97-.89.86-.86.75-.85.63-.82.52-.81.41-.78.3-.76.17-.74.07-.71-.05-.7-.17-.67-.29-.64-.39-.62-.52-.6-.62-.58-.75-.55-.85-.52-.97-.5-1.08-.48-1.19-.45-1.29-.43-1.41-.4-1.51-.38-1.61-.35-1.72-.33-1.82-.3-1.92-.28-2.02-.25-2.11-.23-2.2-.21-2.29-.18-2.38-.16-2.47-.13-2.55-.11-2.63-.08-2.7-.07-2.78-.04-2.85v-2.92s-.01-2.99-.01-2.99l.03-3.04.05-3.11.07-3.15.09-3.21.11-3.26.14-3.3.15-3.35.18-3.38.19-3.41.22-3.44.23-3.47.25-3.49.27-3.51.29-3.52.3-3.54.32-3.54.34-3.54.36-3.54.37-3.54.38-3.53.41-3.52.41-3.49.43-3.48.45-3.46.46-3.42.47-3.4.49-3.35.49-3.32.51-3.28.52-3.23.54-3.18.54-3.12.55-3.07.57-3.01.57-2.94.59-2.88.59-2.81.6-2.73.61-2.66.62-2.57.63-2.5.63-2.41.64-2.32.65-2.23.65-2.14.66-2.05.66-1.94.68-1.85.67-1.75.68-1.64.68-1.54.69-1.43.69-1.32.7-1.21.7-1.1.7-.99.7-.88.71-.76.71-.64.7-.53.72-.41.71-.29.71-.18.71-.06.71.06.71.18.71.29.72.41.7.53.71.64.71.76.7.88.7.99.7,1.1.7,1.21.69,1.32.69,1.43.68,1.54.68,1.64.67,1.75.68,1.85.66,1.94.66,2.05.65,2.14.65,2.23.64,2.32.63,2.41.63,2.5.62,2.57.61,2.66.6,2.73.59,2.81.59,2.88.57,2.94.57,3.01.55,3.07.54,3.12.54,3.18.52,3.23.51,3.28.49,3.32.49,3.35.47,3.4.46,3.42.45,3.46.43,3.48.41,3.49.41,3.52.38,3.53.37,3.54.36,3.54.34,3.54.32,3.54.3,3.54.29,3.52.27,3.51.25,3.49.23,3.47.22,3.44.19,3.41.18,3.38.15,3.35.14,3.3.11,3.26.09,3.21.07,3.15.05,3.11.03,3.04v5.91s-.05,2.85-.05,2.85l-.07,2.78-.08,2.7-.11,2.63-.13,2.55-.16,2.47-.18,2.38-.21,2.29-.23,2.2-.25,2.11-.28,2.02-.3,1.92-.33,1.82-.35,1.72-.38,1.61-.4,1.51-.43,1.41-.45,1.29-.48,1.19-.5,1.08-.52.97-.55.85-.58.75-.6.62-.62.52-.64.39-.67.29-.7.17-.71.05-.74-.07-.76-.17-.78-.3-.81-.41-.82-.52-.85-.63-.86-.75-.89-.86-.9-.97-.92-1.08-.95-1.19-.95-1.3-.98-1.4-.99-1.5-1.01-1.61-1.02-1.71-1.03-1.8-1.05-1.9-1.06-1.99-1.08-2.09-1.08-2.18-1.09-2.26-1.11-2.34-1.11-2.43-1.12-2.51-1.12-2.58-1.13-2.65-1.14-2.73-1.14-2.79-1.14-2.85-1.14-2.92-1.14-2.97-1.14-3.03-1.15-3.08-1.13-3.12-1.14-3.17-1.13-3.21-1.12-3.25-1.12-3.28-1.11-3.3-1.09-3.34-1.09-3.35-1.08-3.38-1.06-3.38-1.06-3.4-1.03-3.41-1.02-3.41-1-3.41-.99-3.4-.96-3.4-.94-3.39-.93-3.37-.89-3.35-.88-3.33-.85-3.3-.82-3.27-.8-3.24-.77-3.21-.74-3.16-.71-3.12-.68-3.07-.64-3.02-.61-2.97-.58-2.91-.55-2.85-.5-2.79-.48-2.72-.43-2.65-.4-2.58-.35-2.51-.32-2.43-.28-2.35-.23-2.27-.2-2.18-.15-2.1-.11-2.01-.06-1.92-.03-1.82.02-1.73.07-1.64.11-1.53.16-1.44.2-1.34.24-1.23.3-1.13.34-1.02.38-.92.43-.81.48-.71.52-.6.56-.49.62-.38.65-.27.71-.17.75-.05.79.05.83.17.88.27.92.38.97.48,1,.59,1.05.7,1.08.8,1.13.91,1.16,1,1.21,1.11,1.23,1.21,1.28,1.31,1.31,1.4,1.34,1.5,1.38,1.59,1.4,1.68,1.44,1.77,1.47,1.86,1.49,1.94,1.52,2.03,1.55,2.1,1.57,2.19,1.59,2.25,1.61,2.34,1.63,2.4,1.65,2.46,1.67,2.53,1.68,2.6,1.69,2.65,1.7,2.71,1.72,2.75,1.72,2.81,1.72,2.86,1.74,2.89,1.73,2.94,1.74,2.97,1.73,3.01,1.73,3.03,1.73,3.07,1.72,3.08,1.71,3.1,1.7,3.12,1.69,3.13,1.68,3.14,1.66,3.15,1.64,3.15,1.63,3.15,1.6,3.14,1.58,3.13,1.56,3.13,1.53,3.1,1.5,3.09,1.47,3.07,1.43,3.04,1.41,3.02,1.37,2.98,1.33,2.95,1.3,2.91,1.25,2.87,1.21,2.83,1.17,2.78,1.13,2.73,1.07,2.67,1.03,2.62.98,2.57.93,2.5.88,2.44.83,2.37.77,2.3.72,2.24.66,2.16.6,2.08.54,2.01.49,1.93.42,1.85.36,1.76.3,1.68.24,1.6.18,1.5.11,1.42.05,1.32-.02,1.24-.08,1.14-.15,1.05-.22.95-.28.86-.34.76-.41.66-.48.57-.54.47-.61.37-.67.27-.74.18-.81.07-.86-.02-.93-.12-1-.21-1.05-.31-1.12-.41-1.18-.51-1.23-.59-1.3-.7-1.35-.78-1.41-.88-1.46-.96-1.52-1.06-1.57-1.14-1.63-1.23-1.67-1.31-1.72-1.39-1.76-1.48-1.82-1.56-1.85-1.63-1.9-1.71-1.93-1.78-1.98-1.85-2.01-1.92-2.04-1.99-2.08-2.05-2.1-2.12-2.14-2.17-2.16-2.23-2.18-2.28-2.2-2.34-2.23-2.38-2.24-2.43-2.25-2.47-2.27-2.52-2.27-2.55-2.29-2.58-2.29-2.62-2.29-2.65-2.29-2.67-2.29-2.69-2.28-2.72-2.28-2.73-2.26-2.74-2.26-2.76-2.23-2.76-2.23-2.77-2.2-2.77-2.18-2.77-2.15-2.76-2.13-2.76-2.1-2.75-2.06-2.73-2.04-2.72-1.99-2.7-1.96-2.68-1.91-2.65-1.87-2.62-1.83-2.6-1.78-2.56-1.72-2.52-1.68-2.49-1.62-2.45-1.56-2.4-1.51-2.36-1.45-2.31-1.38-2.26-1.33-2.21-1.25-2.15-1.19-2.09-1.12-2.04-1.05-1.97-.98-1.92-.91-1.84-.83-1.78-.76-1.72-.68-1.64-.6-1.57-.53-1.5-.44-1.42-.37-1.35-.28-1.27-.21-1.2-.12-1.11-.04-1.04.05-.96.13-.87.21-.79.29-.71.38-.63.46-.55.55-.46.63-.38.71-.29.79-.21.87-.13.96-.05,1.04.04,1.11.12,1.2.21,1.27.28,1.35.37,1.42.44,1.5.53,1.57.6,1.64.68,1.72.76,1.78.83,1.84.91,1.92.98,1.97,1.05,2.04,1.12,2.09,1.19,2.15,1.25,2.21,1.33,2.26,1.38,2.31,1.45,2.36,1.51,2.4,1.56,2.45,1.62,2.49,1.68,2.52,1.72,2.56,1.78,2.6,1.83,2.62,1.87,2.65,1.91,2.68,1.96,2.7,1.99,2.72,2.04,2.73,2.06,2.75,2.1,2.76,2.13,2.76,2.15,2.77,2.18,2.77,2.2,2.77,2.23,2.76,2.23,2.76,2.26,2.74,2.26,2.73,2.28,2.72,2.28,2.69,2.29,2.67,2.29,2.65,2.29,2.62,2.29,2.58,2.29,2.55,2.27,2.52,2.27,2.47,2.25,2.43,2.24,2.38,2.23,2.34,2.2,2.28,2.18,2.23,2.16,2.17,2.14,2.12,2.1,2.05,2.08,1.99,2.04,1.92,2.01,1.85,1.98,1.78,1.93,1.71,1.9,1.63,1.85,1.56,1.82,1.48,1.76,1.39,1.72,1.31,1.67,1.23,1.63,1.14,1.57,1.06,1.52.96,1.46.88,1.41.78,1.35.7,1.3.59,1.23.51,1.18.41,1.12.31,1.05.21,1,.12.93.02.86-.07.81-.18.74-.27.67-.37.61-.47.54-.57.48-.66.41-.76.34-.86.28-.95.22-1.05.15-1.14.08-1.24.02-1.32-.05-1.42-.11-1.5-.18-1.6-.24-1.68-.3-1.76-.36-1.85-.42-1.93-.49-2.01-.54-2.08-.6-2.16-.66-2.24-.72-2.3-.77-2.37-.83-2.44-.88-2.5-.93-2.57-.98-2.62-1.03-2.67-1.07-2.73-1.13-2.78-1.17-2.83-1.21-2.87-1.25-2.91-1.3-2.95-1.33-2.98-1.37-3.02-1.41-3.04-1.43-3.07-1.47-3.09-1.5-3.1-1.53-3.13-1.56-3.13-1.58-3.14-1.6-3.15-1.63-3.15-1.64-3.15-1.66-3.14-1.68-3.13-1.69-3.12-1.7-3.1-1.71-3.08-1.72-3.07-1.73-3.03-1.73-3.01-1.73-2.97-1.74-2.94-1.73-2.89-1.74-2.86-1.72-2.81-1.72-2.75-1.72-2.71-1.7-2.65-1.69-2.6-1.68-2.53-1.67-2.46-1.65-2.4-1.63-2.34-1.61-2.25-1.59-2.19-1.57-2.1-1.55-2.03-1.52-1.94-1.49-1.86-1.47-1.77-1.44-1.68-1.4-1.59-1.38-1.5-1.34-1.4-1.31-1.31-1.28-1.21-1.23-1.11-1.21-1-1.16-.91-1.13-.8-1.08-.7-1.05-.59-1-.48-.97-.38-.92-.27-.88-.17-.83-.05-.79.05-.75.17-.71.27-.65.38-.62.49-.56.6-.52.71-.48.81-.43.92-.38,1.02-.34,1.13-.3,1.23-.24,1.34-.2,1.44-.16,1.53-.11,1.64-.07,1.73-.02,1.82.03,1.92.06,2.01.11,2.1.15,2.18.2,2.27.23,2.35.28,2.43.32,2.51.35,2.58.4,2.65.43,2.72.48,2.79.5,2.85.55,2.91.58,2.97.61,3.02.64,3.07.68,3.12.71,3.16.74,3.21.77,3.24.8,3.27.82,3.3.85,3.33.88,3.35.89,3.37.93,3.39.94,3.4.96,3.4.99,3.41,1,3.41,1.02,3.41,1.03,3.4,1.06,3.38,1.06,3.38,1.08,3.35,1.09,3.34,1.09,3.3,1.11,3.28,1.12,3.25,1.12,3.21,1.13,3.17,1.14,3.12,1.13,3.08,1.15,3.03,1.14,2.97,1.14,2.92,1.14,2.85,1.14,2.79,1.14,2.73,1.14,2.65,1.13,2.58,1.12,2.51,1.12,2.43,1.11,2.34,1.11,2.26,1.09,2.18,1.08,2.09,1.08,1.99,1.06,1.9,1.05,1.8,1.03,1.71,1.02,1.61,1.01,1.5.99,1.4.98,1.3.95,1.19.95,1.08.92.97.9.86.89.75.86.63.85.52.82.41.81.3.78.17.76.07.74-.05.71-.17.7-.29.67-.39.64-.52.62-.62.6-.75.58-.85.55-.97.52-1.08.5-1.19.48-1.29.45-1.41.43-1.51.4-1.61.38-1.72.35-1.82.33-1.92.3-2.02.28-2.11.25-2.2.23-2.29.21-2.38.18-2.47.16-2.55.13-2.63.11-2.7.08-2.78.07-2.85.04h-2.92s-2.99.01-2.99.01l-3.04-.03-3.11-.05-3.15-.07-3.21-.09-3.26-.11-3.3-.14-3.35-.15-3.38-.18-3.41-.19-3.44-.22-3.47-.23-3.49-.25-3.51-.27-3.52-.29-3.54-.3-3.54-.32-3.54-.34-3.54-.36-3.54-.37-3.53-.38-3.52-.41-3.49-.41-3.48-.43-3.46-.45-3.42-.46-3.4-.47-3.35-.49-3.32-.49-3.28-.51-3.23-.52-3.18-.54-3.12-.54-3.07-.55-3.01-.57-2.94-.57-2.88-.59-2.81-.59-2.73-.6-2.66-.61-2.57-.62-2.5-.63-2.41-.63-2.32-.64-2.23-.65-2.14-.65-2.05-.66-1.94-.66-1.85-.68-1.75-.67-1.64-.68-1.54-.68-1.43-.69-1.32-.69-1.21-.7-1.1-.7-.99-.7-.88-.7-.76-.71-.64-.71-.53-.7-.41-.72-.29-.71-.18-.71-.06-.71.06-.71.18-.71.29-.71.41-.72.53-.7.64-.71.76-.71.88-.7.99-.7,1.1-.7,1.21-.7,1.32-.69,1.43-.69,1.54-.68,1.64-.68,1.75-.67,1.85-.68,1.94-.66,2.05-.66,2.14-.65,2.23-.65,2.32-.64,2.41-.63,2.5-.63,2.57-.62,2.66-.61,2.73-.6,2.81-.59,2.88-.59,2.94-.57,3.01-.57,3.07-.55,3.12-.54,3.18-.54,3.23-.52,3.28-.51,3.32-.49,3.35-.49,3.4-.47,3.42-.46,3.46-.45,3.48-.43,3.49-.41,3.52-.41,3.53-.38,3.54-.37,3.54-.36,3.54-.34,3.54-.32,3.54-.3,3.52-.29,3.51-.27,3.49-.25,3.47-.23,3.44-.22,3.41-.19,3.38-.18,3.35-.15,3.3-.14,3.26-.11,3.21-.09,3.15-.07,3.11-.05,3.04-.03h5.91s2.85.05,2.85.05l2.78.07,2.7.08,2.63.11,2.55.13,2.47.16,2.38.18,2.29.21,2.2.23,2.11.25,2.02.28,1.92.3,1.82.33,1.72.35,1.61.38,1.51.4,1.41.43,1.29.45,1.19.48,1.08.5.97.52.85.55.75.58.62.6.52.62.39.64.29.67.17.7.05.71-.07.74-.17.76-.3.78-.41.81-.52.82-.63.85-.75.86-.86.89-.97.9-1.08.92-1.19.95-1.3.95-1.4.98-1.5.99-1.61,1.01-1.71,1.02-1.8,1.03-1.9,1.05-1.99,1.06-2.09,1.08-2.18,1.08-2.26,1.09-2.34,1.11-2.43,1.11-2.51,1.12-2.58,1.12-2.65,1.13-2.73,1.14-2.79,1.14-2.85,1.14-2.92,1.14-2.97,1.14-3.03,1.14-3.08,1.15-3.12,1.13-3.17,1.14-3.21,1.13-3.25,1.12-3.28,1.12-3.3,1.11-3.34,1.09-3.35,1.09-3.38,1.08-3.38,1.06-3.4,1.06-3.41,1.03-3.41,1.02-3.41,1-3.4.99-3.4.96-3.39.94-3.37.93-3.35.89-3.33.88-3.3.85-3.27.82-3.24.8-3.21.77-3.16.74-3.12.71-3.07.68-3.02.64-2.97.61-2.91.58-2.85.55-2.79.5-2.72.48-2.65.43-2.58.4-2.51.35-2.43.32-2.35.28-2.27.23-2.18.2-2.1.15-2.01.11-1.92.06-1.82.03-1.73-.02-1.64-.07-1.53-.11-1.44-.16-1.34-.2-1.23-.24-1.13-.3-1.02-.34-.92-.38-.81-.43-.71-.48-.6-.52-.49-.56-.38-.62-.27-.65-.17-.71-.05-.75.05-.79.17-.83.27-.88.38-.92.48-.97.59-1,.7-1.05.8-1.08.91-1.13,1-1.16,1.11-1.21,1.21-1.23,1.31-1.28,1.4-1.31,1.5-1.34,1.59-1.38,1.68-1.4,1.77-1.44,1.86-1.47,1.94-1.49,2.03-1.52,2.1-1.55,2.19-1.57,2.25-1.59,2.34-1.61,2.4-1.63,2.46-1.65,2.53-1.67,2.6-1.68,2.65-1.69,2.71-1.7,2.75-1.72,2.81-1.72,2.86-1.72,2.89-1.74,2.94-1.73,2.97-1.74,3.01-1.73,3.03-1.73,3.07-1.73,3.08-1.72,3.1-1.71,3.12-1.7,3.13-1.69,3.14-1.68,3.15-1.66,3.15-1.64,3.15-1.63,3.14-1.6,3.13-1.58,3.13-1.56,3.1-1.53,3.09-1.5,3.07-1.47,3.04-1.43,3.02-1.41,2.98-1.37,2.95-1.33,2.91-1.3,2.87-1.25,2.83-1.21,2.78-1.17,2.73-1.13,2.67-1.07,2.62-1.03,2.57-.98,2.5-.93,2.44-.88,2.37-.83,2.3-.77,2.24-.72,2.16-.66,2.08-.6,2.01-.54,1.93-.49,1.85-.42,1.76-.36,1.68-.3,1.6-.24,1.5-.18,1.42-.11,1.32-.05,1.24.02,1.14.08,1.05.15.95.22.86.28.76.34.66.41.57.48.47.54.37.61.27.67.18.74.07.81-.02.86-.12.93-.21,1-.31,1.05-.41,1.12-.51,1.18-.59,1.23-.7,1.3-.78,1.35-.88,1.41-.96,1.46-1.06,1.52-1.14,1.57-1.23,1.63-1.31,1.67-1.39,1.72-1.48,1.76-1.56,1.82-1.63,1.85-1.71,1.9-1.78,1.93-1.85,1.98-1.92,2.01-1.99,2.04-2.05,2.08-2.12,2.1-2.17,2.14-2.23,2.16-2.28,2.18-2.34,2.2-2.38,2.23-2.43,2.24-2.47,2.25-2.52,2.27-2.55,2.27-2.58,2.29-2.62,2.29-2.65,2.29-2.67,2.29-2.69,2.29-2.72,2.28-2.73,2.28-2.74,2.26-2.76,2.26-2.76,2.23-2.77,2.23-2.77,2.2-2.77,2.18-2.76,2.15-2.76,2.13-2.75,2.1-2.73,2.06-2.72,2.04-2.7,1.99-2.68,1.96-2.65,1.91-2.62,1.87-2.6,1.83-2.56,1.78-2.52,1.72-2.49,1.68-2.45,1.62-2.4,1.56-2.36,1.51-2.31,1.45-2.26,1.38-2.21,1.33-2.15,1.25-2.09,1.19-2.04,1.12-1.97,1.05-1.92.98-1.84.91-1.78.83-1.72.76-1.64.68-1.57.6-1.5.53-1.42.44-1.35.37-1.27.28-1.2.21-1.11.12-1.04.04-.96-.05-.87-.13-.79-.21-.71-.29-.63-.38-.55-.46-.46-.55-.38-.63-.29-.71-.21-.79-.13-.87-.05-.96.04-1.04.12-1.11.21-1.2.28-1.27.37-1.35.44-1.42.53-1.5.6-1.57.68-1.64.76-1.72.83-1.78.91-1.84.98-1.92,1.05-1.97,1.12-2.04,1.19-2.09,1.25-2.15,1.33-2.21,1.38-2.26,1.45-2.31,1.51-2.36,1.56-2.4,1.62-2.45,1.68-2.49,1.72-2.52,1.78-2.56,1.83-2.6,1.87-2.62,1.91-2.65,1.96-2.68,1.99-2.7,2.04-2.72,2.06-2.73,2.1-2.75,2.13-2.76,2.15-2.76,2.18-2.77,2.2-2.77,2.23-2.77,2.23-2.76,2.26-2.76,2.26-2.74,2.28-2.73,2.28-2.72,2.29-2.69,2.29-2.67,2.29-2.65,2.29-2.62,2.29-2.58,2.27-2.55,2.27-2.52,2.25-2.47,2.24-2.43,2.23-2.38,2.2-2.34,2.18-2.28,2.16-2.23,2.14-2.17,2.1-2.12,2.08-2.05,2.04-1.99,2.01-1.92,1.98-1.85,1.93-1.78,1.9-1.71,1.85-1.63,1.82-1.56,1.76-1.48,1.72-1.39,1.67-1.31,1.63-1.23,1.57-1.14,1.52-1.06,1.46-.96,1.41-.88,1.35-.78,1.3-.7,1.23-.59,1.18-.51,1.12-.41,1.05-.31,1-.21.93-.12.86-.02.81.07.74.18.67.27.61.37.54.47.48.57.41.66.34.76.28.86.22.95.15,1.05.08,1.14.02,1.24-.05,1.32-.11,1.42-.18,1.5-.24,1.6-.3,1.68-.36,1.76-.42,1.85-.49,1.93-.54,2.01-.6,2.08-.66,2.16-.72,2.24-.77,2.3-.83,2.37-.88,2.44-.93,2.5-.98,2.57-1.03,2.62-1.07,2.67-1.13,2.73-1.17,2.78-1.21,2.83-1.25,2.87-1.3,2.91-1.33,2.95-1.37,2.98-1.41,3.02-1.43,3.04-1.47,3.07-1.5,3.09-1.53,3.1-1.56,3.13-1.58,3.13-1.6,3.14-1.63,3.15-1.64,3.15-1.66,3.15-1.68,3.14-1.69,3.13-1.7,3.12-1.71,3.1-1.72,3.08-1.73,3.07-1.73,3.03-1.73,3.01-1.74,2.97-1.73,2.94-1.74,2.89-1.72,2.86-1.72,2.81-1.72,2.75-1.7,2.71-1.69,2.65-1.68,2.6-1.67,2.53-1.65,2.46-1.63,2.4-1.61,2.34-1.59,2.25-1.57,2.19-1.55,2.1-1.52,2.03-1.49,1.94-1.47,1.86-1.44,1.77-1.4,1.68-1.38,1.59-1.34,1.5-1.31,1.4-1.28,1.31-1.23,1.21-1.21,1.11-1.16,1-1.13.91-1.08.8-1.05.7-1,.59-.97.48-.92.38-.88.27-.83.17-.79.05-.75-.05-.71-.17-.65-.27-.62-.38-.56-.49-.52-.6-.48-.71-.43-.81-.38-.92-.34-1.02-.3-1.13-.24-1.23-.2-1.34-.16-1.44-.11-1.53-.07-1.64-.02-1.73.03-1.82.06-1.92.11-2.01.15-2.1.2-2.18.23-2.27.28-2.35.32-2.43.35-2.51.4-2.58.43-2.65.48-2.72.5-2.79.55-2.85.58-2.91.61-2.97.64-3.02.68-3.07.71-3.12.74-3.16.77-3.21.8-3.24.82-3.27.85-3.3.88-3.33.89-3.35.93-3.37.94-3.39.96-3.4.99-3.4,1-3.41,1.02-3.41,1.03-3.41,1.06-3.4,1.06-3.38,1.08-3.38,1.09-3.35,1.09-3.34,1.11-3.3,1.12-3.28,1.12-3.25,1.13-3.21,1.14-3.17,1.13-3.12,1.15-3.08,1.14-3.03,1.14-2.97,1.14-2.92,1.14-2.85,1.14-2.79,1.14-2.73,1.13-2.65,1.12-2.58,1.12-2.51,1.11-2.43,1.11-2.34,1.09-2.26,1.08-2.18,1.08-2.09,1.06-1.99,1.05-1.9,1.03-1.8,1.02-1.71,1.01-1.61.99-1.5.98-1.4.95-1.3.95-1.19.92-1.08.9-.97.89-.86.86-.75.85-.63.82-.52.81-.41.78-.3.76-.17.74-.07.71.05.7.17.67.29.64.39.62.52.6.62.58.75.55.85.52.97.5,1.08.48,1.19.45,1.29.43,1.41.4,1.51.38,1.61.35,1.72.33,1.82.3,1.92.28,2.02.25,2.11.23,2.2.21,2.29.18,2.38.16,2.47.13,2.55.11,2.63.08,2.7.07,2.78.04,2.85v2.92s.01,2.99.01,2.99l-.03,3.04-.05,3.11-.07,3.15-.09,3.21-.11,3.26-.14,3.3-.15,3.35-.18,3.38-.19,3.41-.22,3.44-.23,3.47-.25,3.49-.27,3.51-.29,3.52-.3,3.54-.32,3.54-.34,3.54-.36,3.54-.37,3.54-.38,3.53-.41,3.52-.41,3.49-.43,3.48-.45,3.46-.46,3.42-.47,3.4-.49,3.35-.49,3.32-.51,3.28-.52,3.23-.54,3.18-.54,3.12-.55,3.07-.57,3.01-.57,2.94-.59,2.88-.59,2.81-.6,2.73-.61,2.66-.62,2.57-.63,2.5-.63,2.41-.64,2.32-.65,2.23-.65,2.14-.66,2.05-.66,1.94-.68,1.85-.67,1.75-.68,1.64-.68,1.54-.69,1.43-.69,1.32-.7,1.21-.7,1.1-.7.99-.7.88-.71.76-.71.64-.7.53-.72.41-.71.29-.71.18-.71.06-.71-.06-.71-.18-.71-.29-.72-.41-.7-.53-.71-.64-.71-.76-.7-.88-.7-.99-.7-1.1-.7-1.21-.69-1.32-.69-1.43-.68-1.54-.68-1.64-.67-1.75-.68-1.85-.66-1.94-.66-2.05-.65-2.14-.65-2.23-.64-2.32-.63-2.41-.63-2.5-.62-2.57-.61-2.66-.6-2.73-.59-2.81-.59-2.88-.57-2.94-.57-3.01-.55-3.07-.54-3.12-.54-3.18-.52-3.23-.51-3.28-.49-3.32-.49-3.35-.47-3.4-.46-3.42-.45-3.46-.43-3.48-.41-3.49-.41-3.52-.38-3.53-.37-3.54-.36-3.54-.34-3.54-.32-3.54-.3-3.54-.29-3.52-.27-3.51-.25-3.49-.23-3.47-.22-3.44-.19-3.41-.18-3.38-.15-3.35-.14-3.3-.11-3.26-.09-3.21-.07-3.15-.05-3.11-.03-3.04v-5.91s.05-2.85.05-2.85l.07-2.78.08-2.7.11-2.63.13-2.55.16-2.47.18-2.38.21-2.29.23-2.2.25-2.11.28-2.02.3-1.92.33-1.82.35-1.72.38-1.61.4-1.51.43-1.41.45-1.29.48-1.19.5-1.08.52-.97.55-.85.58-.75.6-.62.62-.52.64-.39.67-.29.7-.17.71-.05.74.07.76.17.78.3.81.41.82.52.85.63.86.75.89.86.9.97.92,1.08.95,1.19.95,1.3.98,1.4.99,1.5,1.01,1.61,1.02,1.71,1.03,1.8,1.05,1.9,1.06,1.99,1.08,2.09,1.08,2.18,1.09,2.26,1.11,2.34,1.11,2.43,1.12,2.51,1.12,2.58,1.13,2.65,1.14,2.73,1.14,2.79,1.14,2.85,1.14,2.92,1.14,2.97,1.14,3.03,1.15,3.08,1.13,3.12,1.14,3.17,1.13,3.21,1.12,3.25,1.12,3.28,1.11,3.3,1.09,3.34,1.09,3.35,1.08,3.38,1.06,3.38,1.06,3.4,1.03,3.41,1.02,3.41,1,3.41.99,3.4.96,3.4.94,3.39.93,3.37.89,3.35.88,3.33.85,3.3.82,3.27.8,3.24.77,3.21.74,3.16.71,3.12.68,3.07.64,3.02.61,2.97.58,2.91.55,2.85.5,2.79.48,2.72.43,2.65.4,2.58.35,2.51.32,2.43.28,2.35.23,2.27.2,2.18.15,2.1.11,2.01.06,1.92.03,1.82-.02,1.73-.07,1.64-.11,1.53-.16,1.44-.2,1.34-.24,1.23-.3,1.13-.34,1.02-.38.92-.43.81-.48.71-.52.6-.56.49-.62.38-.65.27-.71.17-.75.05-.79-.05-.83-.17-.88-.27-.92-.38-.97-.48-1-.59-1.05-.7-1.08-.8-1.13-.91-1.16-1-1.21-1.11-1.23-1.21-1.28-1.31-1.31-1.4-1.34-1.5-1.38-1.59-1.4-1.68-1.44-1.77-1.47-1.86-1.49-1.94-1.52-2.03-1.55-2.1-1.57-2.19-1.59-2.25-1.61-2.34-1.63-2.4-1.65-2.46-1.67-2.53-1.68-2.6-1.69-2.65-1.7-2.71-1.72-2.75-1.72-2.81-1.72-2.86-1.74-2.89-1.73-2.94-1.74-2.97-1.73-3.01-1.73-3.03-1.73-3.07-1.72-3.08-1.71-3.1-1.7-3.12-1.69-3.13-1.68-3.14-1.66-3.15-1.64-3.15-1.63-3.15-1.6-3.14-1.58-3.13-1.56-3.13-1.53-3.1-1.5-3.09-1.47-3.07-1.43-3.04-1.41-3.02-1.37-2.98-1.33-2.95-1.3-2.91-1.25-2.87-1.21-2.83-1.17-2.78-1.13-2.73-1.07-2.67-1.03-2.62-.98-2.57-.93-2.5-.88-2.44-.83-2.37-.77-2.3-.72-2.24-.66-2.16-.6-2.08-.54-2.01-.49-1.93-.42-1.85-.36-1.76-.3-1.68-.24-1.6-.18-1.5-.11-1.42-.05-1.32.02-1.24.08-1.14.15-1.05.22-.95.28-.86.34-.76.41-.66.48-.57.54-.47.61-.37.67-.27.74-.18.81-.07.86.02.93.12,1,.21,1.05.31,1.12.41,1.18.51,1.23.59,1.3.7,1.35.78,1.41.88,1.46.96,1.52,1.06,1.57,1.14,1.63,1.23,1.67,1.31,1.72,1.39,1.76,1.48,1.82,1.56,1.85,1.63,1.9,1.71,1.93,1.78,1.98,1.85,2.01,1.92,2.04,1.99,2.08,2.05,2.1,2.12,2.14,2.17,2.16,2.23,2.18,2.28,2.2,2.34,2.23,2.38,2.24,2.43,2.25,2.47,2.27,2.52,2.27,2.55,2.29,2.58,2.29,2.62,2.29,2.65,2.29,2.67,2.29,2.69,2.28,2.72,2.28,2.73,2.26,2.74,2.26,2.76,2.23,2.76,2.23,2.77,2.2,2.77,2.18,2.77,2.15,2.76,2.13,2.76,2.1,2.75,2.06,2.73,2.04,2.72,1.99,2.7,1.96,2.68,1.91,2.65,1.87,2.62,1.83,2.6,1.78,2.56,1.72,2.52,1.68,2.49,1.62,2.45,1.56,2.4,1.51,2.36,1.45,2.31,1.38,2.26,1.33,2.21,1.25,2.15,1.19,2.09,1.12,2.04,1.05,1.97.98,1.92.91,1.84.83,1.78.76,1.72.68,1.64.6,1.57.53,1.5.44,1.42.37,1.35.28,1.27.21,1.2.12,1.11.04,1.04-.05.96-.13.87-.21.79-.29.71-.38.63-.46.55-.55.46-.63.38-.71.29-.79.21-.87.13-.96.05-1.04-.04-1.11-.12-1.2-.21-1.27-.28-1.35-.37-1.42-.44-1.5-.53-1.57-.6-1.64-.68-1.72-.76-1.78-.83-1.84-.91-1.92-.98-1.97-1.05-2.04-1.12-2.09-1.19-2.15-1.25-2.21-1.33-2.26-1.38-2.31-1.45-2.36-1.51-2.4-1.56-2.45-1.62-2.49-1.68-2.52-1.72-2.56-1.78-2.6-1.83-2.62-1.87-2.65-1.91-2.68-1.96-2.7-1.99-2.72-2.04-2.73-2.06-2.75-2.1-2.76-2.13-2.76-2.15-2.77-2.18-2.77-2.2-2.77-2.23-2.76-2.23-2.76-2.26-2.74-2.26-2.73-2.28-2.72-2.28-2.69-2.29-2.67-2.29-2.65-2.29-2.62-2.29-2.58-2.29-2.55-2.27-2.52-2.27-2.47-2.25-2.43-2.24-2.38-2.23-2.34-2.2-2.28-2.18-2.23-2.16-2.17-2.14-2.12-2.1-2.05-2.08-1.99-2.04-1.92-2.01-1.85-1.98-1.78-1.93-1.71-1.9-1.63-1.85-1.56-1.82-1.48-1.76-1.39-1.72-1.31-1.67-1.23-1.63-1.14-1.57-1.06-1.52-.96-1.46-.88-1.41-.78-1.35-.7-1.3-.59-1.23-.51-1.18-.41-1.12-.31-1.05-.21-1-.12-.93-.02-.86.07-.81.18-.74.27-.67.37-.61.47-.54.57-.48.66-.41.76-.34.86-.28.95-.22,1.05-.15,1.14-.08,1.24-.02,1.32.05,1.42.11,1.5.18,1.6.24,1.68.3,1.76.36,1.85.42,1.93.49,2.01.54,2.08.6,2.16.66,2.24.72,2.3.77,2.37.83,2.44.88,2.5.93,2.57.98,2.62,1.03,2.67,1.07,2.73,1.13,2.78,1.17,2.83,1.21,2.87,1.25,2.91,1.3,2.95,1.33,2.98,1.37,3.02,1.41,3.04,1.43,3.07,1.47,3.09,1.5,3.1,1.53,3.13,1.56,3.13,1.58,3.14,1.6,3.15,1.63,3.15,1.64,3.15,1.66,3.14,1.68,3.13,1.69,3.12,1.7,3.1,1.71,3.08,1.72,3.07,1.73,3.03,1.73,3.01,1.73,2.97,1.74,2.94,1.73,2.89,1.74,2.86,1.72,2.81,1.72,2.75,1.72,2.71,1.7,2.65,1.69,2.6,1.68,2.53,1.67,2.46,1.65,2.4,1.63,2.34,1.61,2.25,1.59,2.19,1.57,2.1,1.55,2.03,1.52,1.94,1.49,1.86,1.47,1.77,1.44,1.68,1.4,1.59,1.38,1.5,1.34,1.4,1.31,1.31,1.28,1.21,1.23,1.11,1.21,1,1.16.91,1.13.8,1.08.7,1.05.59,1,.48.97.38.92.27.88.17.83.05.79-.05.75-.17.71-.27.65-.38.62-.49.56-.6.52-.71.48-.81.43-.92.38-1.02.34-1.13.3-1.23.24-1.34.2-1.44.16-1.53.11-1.64.07-1.73.02-1.82-.03-1.92-.06-2.01-.11-2.1-.15-2.18-.2-2.27-.23-2.35-.28-2.43-.32-2.51-.35-2.58-.4-2.65-.43-2.72-.48-2.79-.5-2.85-.55-2.91-.58-2.97-.61-3.02-.64-3.07-.68-3.12-.71-3.16-.74-3.21-.77-3.24-.8-3.27-.82-3.3-.85-3.33-.88-3.35-.89-3.37-.93-3.39-.94-3.4-.96-3.4-.99-3.41-1-3.41-1.02-3.41-1.03-3.4-1.06-3.38-1.06-3.38-1.08-3.35-1.09-3.34-1.09-3.3-1.11-3.28-1.12-3.25-1.12-3.21-1.13-3.17-1.14-3.12-1.13-3.08-1.15-3.03-1.14-2.97-1.14-2.92-1.14-2.85-1.14-2.79-1.14-2.73-1.14-2.65-1.13-2.58-1.12-2.51-1.12-2.43-1.11-2.34-1.11-2.26-1.09-2.18-1.08-2.09-1.08-1.99-1.06-1.9-1.05-1.8-1.03-1.71-1.02-1.61-1.01-1.5-.99-1.4-.98-1.3-.95-1.19-.95-1.08-.92-.97-.9-.86-.89-.75-.86-.63-.85-.52-.82-.41-.81-.3-.78-.17-.76-.07-.74.05-.71.17-.7.29-.67.39-.64.52-.62.62-.6.75-.58.85-.55.97-.52,1.08-.5,1.19-.48,1.29-.45,1.41-.43,1.51-.4,1.61-.38,1.72-.35,1.82-.33,1.92-.3,2.02-.28,2.11-.25,2.2-.23,2.29-.21,2.38-.18,2.47-.16,2.55-.13,2.63-.11,2.7-.08,2.78-.07,2.85-.04h2.92s2.99-.01,2.99-.01l3.04.03,3.11.05,3.15.07,3.21.09,3.26.11,3.3.14,3.35.15,3.38.18,3.41.19,3.44.22,3.47.23,3.49.25,3.51.27,3.52.29,3.54.3,3.54.32,3.54.34,3.54.36,3.54.37,3.53.38,3.52.41,3.49.41,3.48.43,3.46.45,3.42.46,3.4.47,3.35.49,3.32.49,3.28.51,3.23.52,3.18.54,3.12.54,3.07.55,3.01.57,2.94.57,2.88.59,2.81.59,2.73.6,2.66.61,2.57.62,2.5.63,2.41.63,2.32.64,2.23.65,2.14.65,2.05.66,1.94.66,1.85.68,1.75.67,1.64.68,1.54.68,1.43.69,1.32.69,1.21.7,1.1.7.99.7.88.7.76.71.64.71.53.7.41.72.29.71.18.71.06.71"/>
  </g>
</svg>