<?xml version="1.0" encoding="UTF-8"?>
<svg id="Layer_2" data-name="Layer 2" xmlns="http://www.w3.org/2000/svg" viewBox="0 0 213.55 213.31">
  <defs>
    <style>
      .cls-1 {
        fill: none;
        stroke: #3f28b2;
        stroke-miterlimit: 10;
        stroke-width: .25px;
      }
    </style>
  </defs>
  <g id="Layer_1-2" data-name="Layer 1">
    <path class="cls-1" d="M213.42,106.66l-.02-.59-.04-.6-.07-.59-.1-.59-.13-.6-.15-.6-.18-.6-.21-.6-.24-.61-.27-.61-.29-.61-.32-.62-.35-.62-.37-.62-.39-.63-.43-.64-.46-.64-.47-.64-.5-.65-.53-.66-.56-.67-.57-.67-.6-.67-.63-.67-.65-.69-.67-.69-.69-.7-.71-.7-.75-.72-.76-.72-.78-.74-.8-.74-.82-.75-.84-.76-.87-.77-.88-.77-.9-.77-.91-.79-.93-.8-.96-.8-.96-.82-.98-.82-.99-.84-1.01-.84-1.03-.85-1.04-.87-1.05-.87-1.06-.88-1.08-.88-1.09-.89-1.09-.9-1.1-.9-1.12-.92-1.12-.92-1.14-.94-1.14-.94-1.15-.95-1.16-.95-1.16-.96-1.17-.97-1.18-.98-1.18-.98-1.18-.98-1.18-.99-1.19-.99-1.18-1-1.19-1-1.19-1-1.18-1.01-1.19-1.01-1.19-1.02-1.19-1.02-1.19-1.02-1.19-1.02-1.18-1.02-1.19-1.03-1.18-1.02-1.18-1.03-1.18-1.02-1.17-1.03-1.17-1.02-1.16-1.02-1.15-1.02-1.15-1.01-1.14-1.01-1.13-1.01-1.13-1-1.11-.99-1.11-.99-1.1-.99-1.09-.98-1.08-.98-1.08-.97-1.07-.96-1.06-.95-1.05-.95-1.04-.93-1.03-.92-1.01-.9-1.01-.9-.99-.88-.99-.88-.98-.86-.97-.85-.95-.84-.95-.81-.93-.81-.92-.78-.91-.77-.9-.75-.88-.74-.88-.72-.86-.71-.86-.68-.85-.66-.83-.65-.82-.63-.81-.6-.8-.58-.78-.57-.78-.54-.77-.52-.76-.5-.76-.47-.74-.45-.72-.43-.72-.4-.71-.38-.7-.35-.69-.33-.68-.31-.67-.27-.67-.26-.66-.23-.66-.2-.65-.17-.63-.15-.64-.12-.62-.09-.62-.07-.61-.04h-.6s-.6,0-.6,0l-.59.04-.59.07-.59.1-.58.13-.57.15-.57.18-.57.22-.57.24-.57.26-.57.29-.57.33-.57.35-.56.37-.57.41-.56.43-.57.46-.56.49-.57.51-.57.54-.56.57-.57.59-.57.62-.57.64-.57.67-.57.69-.57.72-.58.74-.58.77-.58.79-.59.81-.59.84-.6.86-.6.88-.61.9-.61.92-.62.95-.63.96-.63.98-.64,1-.64,1.02-.65,1.05-.66,1.06-.66,1.08-.67,1.08-.67,1.11-.67,1.12-.68,1.14-.69,1.16-.7,1.17-.7,1.18-.71,1.19-.72,1.2-.72,1.22-.73,1.23-.74,1.24-.74,1.25-.75,1.26-.76,1.28-.77,1.28-.77,1.29-.77,1.29-.78,1.29-.78,1.3-.78,1.31-.79,1.31-.79,1.32-.81,1.32-.8,1.33-.81,1.33-.81,1.33-.82,1.33-.82,1.33-.83,1.33-.82,1.33-.83,1.33-.83,1.33-.84,1.33-.83,1.32-.84,1.32-.84,1.32-.83,1.31-.84,1.31-.84,1.3-.83,1.3-.83,1.29-.84,1.29-.82,1.29-.83,1.28-.82,1.26-.82,1.27-.81,1.25-.81,1.24-.8,1.23-.8,1.22-.79,1.21-.78,1.2-.78,1.18-.77,1.18-.76,1.17-.76,1.16-.75,1.15-.74,1.14-.73,1.12-.71,1.11-.7,1.09-.69,1.08-.68,1.08-.67,1.06-.66,1.04-.65,1.04-.62,1.01-.62,1.01-.59.98-.58.98-.57.97-.55.95-.54.94-.51.92-.5.91-.47.89-.46.88-.45.88-.42.85-.4.84-.37.83-.36.81-.34.8-.31.79-.29.77-.27.77-.25.75-.23.74-.2.72-.17.71-.15.7-.13.68-.1.67-.08.67-.05.66-.03.65v.63s.02.62.02.62l.05.61.08.6.1.59.13.58.15.57.18.57.22.56.23.55.26.55.29.53.32.53.35.53.37.51.4.51.43.5.45.5.48.49.51.49.53.48.57.48.58.47.62.48.64.46.67.47.69.46.71.46.75.46.77.46.79.46.81.46.85.46.87.46.88.46.91.46.94.46.96.46.98.46,1,.46,1.02.47,1.05.47,1.07.46,1.08.48,1.1.47,1.12.48,1.14.48,1.16.49,1.18.49,1.19.49,1.21.5,1.23.5,1.24.51,1.26.51,1.28.52,1.29.52,1.3.53,1.31.53,1.32.53,1.34.54,1.34.55,1.36.55,1.37.56,1.38.56,1.39.57,1.39.57,1.4.57,1.4.58,1.41.57,1.42.58,1.42.59,1.43.59,1.43.59,1.44.6,1.43.6,1.44.61,1.45.6,1.44.62,1.44.61,1.44.62,1.44.62,1.44.62,1.44.63,1.43.62,1.43.63,1.43.63,1.42.62,1.41.63,1.41.63,1.41.63,1.39.63,1.39.62,1.39.63,1.38.62,1.37.62,1.36.61,1.36.62,1.34.6,1.33.61,1.31.6,1.31.59,1.29.59,1.29.58,1.28.58,1.27.57,1.25.57,1.23.57,1.22.55,1.21.54,1.19.54,1.18.52,1.17.51,1.15.5,1.13.49,1.12.48,1.11.46,1.08.46,1.08.44,1.06.44,1.04.41,1.02.4,1.01.39.99.36.98.36.96.35.95.32.93.31.91.28.89.27.88.26.86.23.85.22.83.19.81.18.79.15.78.13.77.12.75.09.73.07.72.05.69.03h.69l.67-.02.66-.05.65-.06.63-.09.61-.11.6-.14.58-.16.57-.19.56-.21.55-.24.54-.26.52-.28.51-.32.5-.34.48-.36.47-.39.46-.41.46-.45.45-.46.44-.49.42-.52.42-.55.41-.57.4-.59.39-.63.38-.65.37-.67.37-.7.36-.72.36-.76.36-.77.35-.79.35-.83.34-.85.33-.88.33-.89.33-.92.32-.95.32-.97.32-.99.31-1.01.31-1.04.32-1.06.3-1.08.31-1.09.31-1.12.3-1.14.31-1.17.31-1.18.3-1.2.31-1.21.31-1.24.31-1.25.31-1.28.31-1.29.31-1.3.32-1.31.32-1.34.32-1.35.32-1.36.33-1.38.33-1.39.33-1.4.33-1.41.34-1.42.34-1.43.35-1.45.35-1.45.35-1.46.35-1.48.36-1.48.36-1.48.36-1.49.37-1.49.36-1.5.37-1.5.37-1.51.37-1.5.38-1.52.38-1.51.39-1.52.38-1.51.39-1.52.4-1.51.39-1.52.4-1.51.4-1.51.4-1.51.4-1.5.4-1.5.41-1.49.4-1.49.41-1.49.41-1.48.4-1.48.41-1.46.4-1.46.41-1.45.4-1.44.4-1.43.4-1.41.4-1.41.39-1.39.39-1.39.39-1.38.38-1.37.37-1.34.38-1.34.36-1.32.36-1.3.36-1.29.35-1.29.35-1.26.34-1.25.34-1.23.32-1.21.32-1.2.3-1.18.3-1.17.28-1.15.28-1.13.26-1.11.26-1.09.25-1.08.23-1.06.22-1.04.21-1.02.19-1.01.17-.98.16-.96.15-.95.14-.93.12-.91.1-.88.09-.88.06-.85.05-.84.04-.81.02-.79v-.77l-.02-.76-.04-.74-.06-.72-.07-.69-.1-.68-.12-.67-.14-.65-.15-.63-.18-.61-.2-.58-.23-.57-.25-.57-.26-.54-.29-.52-.32-.51-.33-.49-.36-.47-.38-.46-.41-.45-.43-.43-.46-.41-.47-.4-.5-.38-.53-.37-.55-.36-.57-.35-.6-.33-.62-.32-.65-.31-.67-.29-.69-.29-.72-.27-.75-.26-.77-.26-.79-.24-.81-.24-.84-.22-.87-.22-.88-.21-.91-.19-.94-.19-.95-.18-.98-.18-1-.16-1.02-.16-1.05-.15-1.07-.15-1.08-.15-1.11-.15-1.13-.14-1.15-.14-1.17-.13-1.19-.13-1.21-.13-1.22-.12-1.25-.12-1.27-.12-1.29-.12-1.29-.12-1.32-.11-1.33-.11-1.35-.12-1.36-.11-1.39-.11-1.39-.11-1.4-.12-1.42-.11-1.43-.12-1.44-.11-1.46-.12-1.47-.12-1.48-.12-1.49-.12-1.49-.13-1.5-.12-1.51-.13-1.52-.14-1.52-.13-1.54-.14-1.53-.14-1.55-.14-1.55-.14-1.55-.15-1.55-.15-1.56-.15-1.56-.15-1.56-.15-1.57-.15-1.56-.16-1.56-.16-1.56-.16-1.56-.16-1.55-.16-1.55-.17-1.55-.17-1.54-.17-1.54-.17-1.53-.18-1.52-.17-1.52-.18-1.5-.18-1.5-.17-1.49-.18-1.49-.18-1.48-.18-1.47-.18-1.45-.17-1.45-.18-1.43-.18-1.41-.17-1.41-.17-1.39-.17-1.38-.16-1.37-.17-1.35-.15-1.33-.16-1.32-.15-1.3-.15-1.29-.15-1.28-.14-1.25-.14-1.24-.14-1.21-.12-1.2-.12-1.18-.11-1.17-.11-1.14-.09-1.13-.09-1.1-.08-1.08-.06-1.07-.06-1.04-.05-1.03-.05-1-.03-.98-.02h-.96s-.94,0-.94,0l-.92.02-.9.03-.88.05-.86.05-.83.07-.82.08-.78.1-.77.12-.75.13-.73.15-.7.16-.68.18-.67.2-.64.21-.62.23-.6.26-.57.26-.57.29-.53.3-.52.33-.5.34-.47.36-.46.38-.44.41-.42.42-.4.45-.37.46-.36.48-.35.51-.32.53-.31.56-.29.57-.27.59-.26.61-.24.64-.23.67-.21.68-.19.7-.17.73-.16.75-.15.77-.14.79-.12.81-.11.84-.1.86-.08.88-.07.9-.05.93-.05.95-.04.97-.03.99-.02,1.01v1.03s0,1.06,0,1.06l.02,1.08.02,1.09.02,1.11.04,1.14.04,1.15.05,1.18.05,1.19.06,1.21.06,1.23.07,1.25.07,1.27.07,1.28.09,1.3.08,1.31.09,1.33.09,1.35.1,1.37.09,1.38.1,1.39.11,1.41.1,1.41.1,1.43.11,1.44.1,1.46.11,1.47.11,1.48.1,1.49.11,1.49.1,1.5.11,1.51.1,1.52.1,1.53.1,1.53.1,1.54.09,1.55.1,1.55.09,1.56.09,1.55.09,1.57.08,1.56.08,1.57.08,1.57.08,1.57.07,1.57.08,1.56.06,1.57.07,1.56.06,1.56.06,1.56.06,1.55.06,1.55.05,1.54.05,1.53.05,1.53.05,1.52.05,1.51.05,1.5.05,1.5.05,1.49.05,1.48.05,1.47.04,1.46.05,1.44.04,1.43.05,1.42.04,1.4.05,1.39.05,1.38.04,1.37.05,1.34.05,1.33.05,1.32.05,1.29.05,1.28.05,1.27.06,1.24.05,1.23.06,1.2.07,1.19.07,1.17.08,1.15.08,1.12.08,1.11.1,1.08.1,1.07.1,1.04.12,1.03.12.99.14.98.14.95.15.94.15.9.16.89.17.87.18.84.19.82.21.79.22.77.23.75.24.73.26.69.26.68.28.65.29.63.31.61.32.57.33.57.36.53.36.51.38.49.39.46.41.45.43.42.45.39.46.37.48.36.49.33.52.31.53.29.56.26.57.25.59.22.6.2.63.19.65.15.66.15.68.13.71.1.72.09.74.06.77.05.78.03.8.02h.82l.84-.02.87-.03.88-.05.9-.06.92-.08.94-.09.97-.1.98-.13,1-.13,1.02-.15,1.04-.16,1.06-.17,1.08-.17,1.09-.2,1.11-.2,1.13-.21,1.16-.23,1.17-.23,1.18-.24,1.2-.26,1.22-.26,1.23-.26,1.26-.27,1.27-.27,1.29-.28,1.3-.29,1.31-.29,1.33-.3,1.34-.31,1.36-.31,1.38-.31,1.39-.32,1.39-.32,1.41-.32,1.41-.33,1.43-.32,1.45-.33,1.45-.34,1.46-.33,1.48-.33,1.48-.33,1.49-.34,1.49-.33,1.49-.34,1.51-.33,1.51-.33,1.51-.33,1.52-.33,1.53-.33,1.52-.32,1.54-.33,1.53-.32,1.53-.32,1.54-.32,1.53-.31,1.54-.31,1.53-.31,1.54-.3,1.53-.31,1.52-.29,1.53-.3,1.51-.29,1.52-.29,1.51-.29,1.5-.28,1.49-.28,1.49-.27,1.49-.28,1.48-.27,1.46-.26,1.46-.27,1.45-.26,1.43-.26,1.42-.26,1.41-.26,1.39-.26,1.39-.26,1.38-.26,1.35-.25,1.35-.25,1.32-.26,1.31-.25,1.29-.25,1.28-.24,1.26-.25,1.25-.25,1.22-.25,1.2-.25,1.19-.25,1.17-.25,1.14-.26,1.13-.25,1.1-.26,1.08-.26,1.07-.26,1.04-.26,1.02-.26.99-.27.98-.26.95-.28.93-.27.9-.29.88-.28.86-.3.83-.3.8-.31.78-.31.76-.33.74-.33.7-.34.68-.35.66-.36.64-.36.6-.37.58-.38.56-.39.53-.4.51-.42.48-.42.45-.44.44-.45.4-.46.37-.47.36-.48.33-.49.31-.52.27-.52.26-.54.24-.56.2-.57.19-.58.15-.6.14-.61.11-.63.09-.65.07-.66.04-.67.03-.69v-.71l-.02-.72-.05-.74-.06-.77-.08-.77-.1-.79-.12-.8-.15-.83-.15-.85-.18-.86-.2-.88-.21-.9-.24-.91-.25-.93-.26-.95-.28-.97-.29-.98-.32-.99-.32-1.02-.35-1.03-.35-1.06-.37-1.07-.37-1.08-.4-1.09-.4-1.12-.41-1.13-.43-1.15-.44-1.17-.45-1.18-.46-1.19-.46-1.2-.47-1.23-.48-1.24-.49-1.25-.49-1.27-.51-1.29-.51-1.29-.51-1.3-.52-1.32-.53-1.33-.53-1.34-.54-1.35-.54-1.37-.55-1.38-.54-1.38-.56-1.39-.55-1.4-.55-1.41-.56-1.41-.56-1.43-.56-1.43-.55-1.44-.56-1.44-.56-1.45-.56-1.46-.56-1.46-.55-1.46-.56-1.47-.55-1.47-.55-1.47-.55-1.47-.55-1.48-.54-1.47-.54-1.48-.53-1.47-.54-1.47-.53-1.47-.52-1.46-.52-1.46-.52-1.46-.52-1.45-.51-1.45-.5-1.44-.5-1.43-.5-1.42-.49-1.41-.49-1.41-.48-1.4-.48-1.39-.47-1.38-.47-1.38-.46-1.35-.46-1.35-.46-1.33-.46-1.32-.46-1.3-.45-1.29-.45-1.28-.45-1.26-.44-1.25-.44-1.23-.43-1.2-.44-1.19-.43-1.18-.42-1.16-.43-1.14-.42-1.12-.42-1.1-.42-1.08-.42-1.06-.41-1.04-.42-1.01-.41-.99-.42-.98-.42-.95-.41-.92-.42-.9-.41-.88-.42-.85-.42-.83-.43-.81-.42-.77-.43-.76-.43-.73-.44-.71-.44-.67-.44-.66-.45-.62-.45-.6-.46-.57-.46-.55-.46-.52-.47-.5-.47-.46-.49-.44-.49-.42-.49-.38-.51-.36-.51-.34-.53-.3-.53-.28-.54-.26-.56-.23-.56-.2-.57-.17-.57-.15-.59-.12-.6-.1-.62-.06-.62-.05-.64-.03h-.65s-.66.04-.66.04l-.67.05-.68.08-.7.1-.71.13-.72.15-.74.17-.76.19-.77.22-.77.25-.79.26-.81.28-.82.31-.84.32-.85.35-.87.36-.88.38-.89.4-.91.42-.93.45-.94.46-.95.47-.97.48-.98.51-1,.52-1.01.54-1.02.56-1.04.57-1.06.58-1.07.59-1.08.6-1.09.62-1.11.63-1.12.65-1.14.65-1.15.67-1.17.67-1.18.67-1.18.69-1.2.7-1.21.7-1.22.72-1.23.72-1.25.72-1.25.74-1.27.74-1.28.74-1.29.75-1.29.76-1.3.76-1.31.76-1.31.76-1.33.77-1.33.77-1.33.77-1.35.77-1.34.77-1.36.77-1.36.77-1.36.77-1.37.77-1.37.77-1.37.77-1.37.77-1.38.76-1.38.76-1.37.76-1.38.75-1.37.75-1.37.75-1.37.74-1.37.74-1.36.74-1.36.73-1.35.72-1.35.72-1.34.71-1.34.71-1.32.7-1.32.7-1.31.69-1.3.68-1.29.68-1.29.67-1.28.67-1.26.67-1.25.66-1.24.66-1.22.65-1.21.64-1.19.64-1.18.63-1.17.63-1.15.61-1.14.62-1.11.6-1.1.6-1.08.6-1.06.59-1.05.58-1.03.58-1,.57-.98.57-.97.57-.95.57-.92.56-.9.56-.88.56-.86.56-.83.55-.81.55-.78.54-.77.55-.73.54-.71.54-.69.54-.66.53-.64.54-.6.54-.58.53-.56.54-.54.54-.5.53-.47.54-.45.54-.43.55-.39.54-.36.55-.34.55-.32.56-.28.56-.26.56-.23.57-.2.57-.17.57-.15.57-.12.58-.09.59-.06.59-.04.6v.61s0,.61,0,.61l.05.62.07.64.09.64.13.65.15.65.17.67.2.67.23.68.26.69.28.7.3.71.33.72.35.73.38.75.39.76.42.76.45.78.46.78.49.79.51.81.53.82.55.84.57.84.59.86.6.88.63.88.65.89.67.91.68.91.7.93.71.94.73.96.75.97.76.98.77.98.79,1,.8,1.01.81,1.02.83,1.04.84,1.04.85,1.06.87,1.07.87,1.08.88,1.08.89,1.1.89,1.1.9,1.12.92,1.13.91,1.13.93,1.15.93,1.16.94,1.16.95,1.18.95,1.18.95,1.19.96,1.19.96,1.19.96,1.21.96,1.2.97,1.22.97,1.22.97,1.22.97,1.23.96,1.23.97,1.23.97,1.24.96,1.24.96,1.24.96,1.25.96,1.24.95,1.24.95,1.24.95,1.25.94,1.24.94,1.23.93,1.24.92,1.23.92,1.22.92,1.23.91,1.21.9,1.21.89,1.21.89,1.19.88,1.19.88,1.18.88,1.18.86,1.17.86,1.16.86,1.15.84,1.14.83,1.12.83,1.11.82,1.1.81,1.09.8,1.08.79,1.06.78,1.05.78,1.03.77,1.01.77,1,.76.98.75.97.74.95.73.93.73.9.71.89.71.88.7.85.7.83.68.81.68.78.67.77.67.75.67.72.66.69.66.67.64.66.65.62.63.6.63.57.63.56.62.52.62.5.61.47.61.45.6.42.61.39.6.37.59.34.6.31.59.28.59.26.59.23.59.2.59.17.59.15.58.12.59.09.59.05.6.04h.59s.6-.02.6-.02l.59-.05.6-.08.61-.11.61-.14.61-.15.61-.19.62-.22.63-.25.63-.26.63-.3.64-.33.65-.35.65-.38.66-.4.67-.43.67-.46.68-.47.68-.51.68-.52.7-.56.7-.57.72-.6.72-.62.73-.65.74-.67.75-.69.76-.71.77-.73.77-.75.78-.77.79-.78.8-.81.81-.83.82-.85.83-.87.84-.88.85-.9.86-.91.87-.93.88-.94.89-.97.89-.97.9-.98.91-1,.93-1.01.93-1.02.94-1.03.95-1.05.97-1.05.97-1.07.98-1.07.98-1.08.98-1.08,1-1.1,1-1.09,1.01-1.11,1.02-1.11,1.03-1.12,1.03-1.12,1.04-1.13,1.05-1.13,1.05-1.13,1.06-1.14,1.06-1.14,1.07-1.13,1.07-1.15,1.07-1.14,1.08-1.14,1.08-1.14,1.08-1.13,1.08-1.14,1.08-1.14,1.08-1.13,1.08-1.13,1.08-1.12,1.08-1.12,1.08-1.12,1.08-1.11,1.08-1.1,1.08-1.1,1.08-1.1,1.07-1.08,1.07-1.08,1.07-1.08,1.06-1.07,1.05-1.07,1.05-1.06,1.04-1.05,1.03-1.04,1.03-1.03,1.01-1.02,1.01-1.01.99-1.01.99-.99.98-.98.97-.98.96-.97.94-.96.93-.95.92-.94.9-.93.89-.92.88-.9.86-.9.84-.88.83-.88.81-.87.79-.86.77-.85.76-.83.74-.83.72-.81.69-.81.68-.79.66-.78.64-.77.61-.77.6-.76.57-.75.55-.74.53-.73.5-.72.47-.71.46-.7.43-.69.41-.68.37-.68.36-.67.33-.66.3-.67.27-.65.26-.65.22-.64.2-.63.16-.63.15-.62.11-.61.09-.61.05-.61.03-.6v-.6s-.02-.59-.02-.59l-.05-.59-.07-.59-.11-.59-.14-.58-.16-.58-.19-.58-.23-.57-.25-.58-.27-.58-.31-.57-.33-.58-.36-.57-.39-.58-.41-.58-.44-.58-.46-.58-.5-.59-.52-.59-.55-.59-.57-.59-.6-.6-.62-.6-.65-.6-.67-.61-.69-.61-.72-.62-.75-.63-.77-.63-.79-.63-.81-.64-.84-.65-.85-.65-.88-.66-.89-.67-.92-.67-.94-.67-.96-.68-.98-.69-.99-.69-1.01-.7-1.03-.71-1.05-.71-1.07-.72-1.08-.74-1.09-.73-1.11-.75-1.12-.75-1.14-.77-1.15-.77-1.16-.77-1.18-.77-1.18-.78-1.19-.79-1.21-.8-1.21-.81-1.22-.81-1.23-.82-1.25-.83-1.24-.83-1.26-.84-1.26-.85-1.27-.85-1.28-.86-1.27-.86-1.29-.87-1.28-.88-1.29-.88-1.29-.88-1.29-.88-1.29-.88-1.29-.89-1.29-.88-1.29-.89-1.29-.9-1.29-.89-1.28-.9-1.29-.9-1.28-.9-1.28-.9-1.27-.89-1.27-.9-1.26-.9-1.25-.89-1.25-.9-1.25-.89-1.23-.89-1.23-.88-1.22-.88-1.2-.88-1.21-.88-1.19-.88-1.18-.87-1.18-.86-1.17-.85-1.16-.84-1.14-.84-1.14-.83-1.12-.82-1.12-.8-1.1-.8-1.08-.79-1.08-.77-1.07-.77-1.06-.76-1.04-.74-1.03-.73-1.02-.72-1.01-.7-.99-.68-.98-.67-.97-.66-.96-.64-.95-.63-.92-.6-.92-.59-.9-.57-.89-.56-.88-.53-.87-.52-.85-.49-.85-.47-.82-.46-.82-.44-.8-.41-.78-.39-.77-.36-.77-.35-.76-.33-.74-.29-.74-.28-.71-.25-.71-.23-.7-.2-.68-.18-.67-.15-.67-.13-.66-.1-.65-.07-.64-.05-.63-.02h-.62l-.61.03-.6.05-.59.08-.58.11-.58.15-.57.16-.57.19-.57.22-.55.25-.56.27-.54.3-.54.33-.53.36-.53.38-.53.41-.52.44-.51.46-.52.49-.51.52-.5.55-.51.57-.5.6-.5.62-.51.66-.5.67-.5.7-.49.73-.5.76-.5.77-.51.8-.5.82-.5.86-.51.87-.5.9-.51.92-.52.94-.51.97-.52.98-.52,1-.53,1.03-.53,1.04-.53,1.07-.54,1.08-.54,1.11-.55,1.12-.55,1.14-.56,1.16-.56,1.18-.56,1.18-.57,1.21-.57,1.22-.58,1.23-.58,1.25-.58,1.27-.59,1.28-.59,1.29-.61,1.3-.6,1.31-.62,1.32-.61,1.33-.63,1.34-.63,1.35-.63,1.36-.64,1.37-.65,1.38-.65,1.38-.65,1.39-.66,1.39-.67,1.39-.67,1.4-.67,1.39-.67,1.4-.67,1.41-.68,1.4-.68,1.41-.68,1.4-.69,1.41-.68,1.4-.69,1.41-.7,1.4-.69,1.4-.7,1.39-.69,1.4-.7,1.39-.69,1.39-.7,1.39-.7,1.38-.69,1.37-.69,1.37-.7,1.36-.68,1.35-.69,1.34-.68,1.33-.68,1.32-.68,1.32-.67,1.3-.67,1.29-.67,1.28-.67,1.28-.65,1.27-.65,1.25-.65,1.23-.63,1.23-.62,1.21-.62,1.2-.61,1.18-.59,1.18-.59,1.16-.57,1.15-.57,1.13-.56,1.12-.55,1.1-.53,1.08-.52,1.08-.5,1.06-.49,1.04-.47,1.03-.46,1.01-.45,1-.43.98-.42.97-.39.95-.38.94-.36.91-.35.91-.33.88-.31.88-.29.86-.26.84-.25.83-.24.81-.2.79-.19.78-.16.77-.15.76-.12.73-.1.73-.07.7-.05.69-.03.68v.67s0,.66,0,.66l.05.64.06.62.09.62.12.6.15.58.16.57.2.57.22.56.25.55.26.53.3.52.32.51.36.5.37.49.4.48.43.47.46.46.48.46.5.45.54.45.57.43.58.43.61.42.64.42.67.41.69.4.71.4.74.39.77.39.78.38.82.38.84.37.87.37.88.37.92.37.93.36.96.37.98.36,1,.36,1.03.36,1.05.36,1.07.36,1.09.36,1.11.36,1.13.36,1.15.36,1.18.36,1.18.36,1.21.37,1.22.37,1.24.37,1.26.37,1.28.37,1.29.38,1.3.38,1.32.38,1.34.39,1.35.39,1.36.39,1.38.4,1.39.4,1.4.4,1.4.41,1.42.41,1.42.42,1.44.42,1.45.43,1.45.42,1.46.44,1.47.43,1.48.44,1.48.45,1.48.45,1.49.45,1.49.46,1.49.46,1.49.46,1.5.46,1.49.46,1.49.47,1.49.46,1.49.47,1.49.47,1.49.47,1.49.47,1.49.48,1.49.47,1.48.48,1.48.48,1.47.48,1.46.47,1.46.48,1.44.48,1.44.48,1.43.47,1.42.47,1.41.47,1.4.47,1.39.47,1.39.46,1.37.46,1.37.46,1.35.46,1.33.46,1.32.45,1.31.44,1.29.44,1.29.43,1.27.42,1.25.41,1.24.41,1.22.4,1.21.39,1.18.37,1.18.37,1.16.36,1.15.35,1.12.35,1.11.33,1.09.32,1.07.3,1.06.29,1.04.28,1.02.26,1,.26.99.24.97.22.95.21.93.19.91.17.89.16.88.14.86.13.84.1.83.09.8.07.78.05.77.04h.75s.73,0,.73,0l.72-.03.69-.05.68-.06.66-.09.65-.12.63-.14.61-.15.59-.18.58-.2.57-.23.55-.26.53-.26.52-.3.5-.32.48-.35.47-.36.46-.4.45-.41.43-.45.42-.46.4-.49.39-.52.38-.54.37-.57.36-.59.35-.61.33-.64.33-.67.32-.69.3-.72.3-.74.28-.76.28-.79.26-.81.26-.84.26-.86.25-.88.25-.91.23-.93.24-.96.22-.98.22-1,.21-1.02.21-1.04.21-1.07.2-1.09.2-1.1.19-1.13.19-1.15.19-1.18.18-1.19.18-1.21.18-1.23.18-1.24.18-1.27.18-1.29.18-1.29.18-1.32.17-1.33.18-1.34.18-1.37.18-1.38.18-1.39.18-1.41.18-1.41.19-1.43.19-1.44.19-1.45.19-1.47.19-1.47.2-1.49.2-1.49.2-1.49.2-1.51.21-1.51.21-1.52.21-1.52.22-1.53.22-1.54.22-1.54.22-1.54.23-1.55.23-1.54.24-1.55.24-1.55.23-1.56.25-1.55.24-1.55.25-1.54.25-1.55.25-1.54.25-1.54.26-1.53.26-1.53.25-1.52.26-1.52.26-1.51.26-1.5.26-1.49.26-1.49.26-1.48.26-1.48.26-1.46.26-1.45.25-1.44.26-1.43.25-1.41.25-1.4.25-1.39.24-1.39.24-1.36.24-1.35.23-1.34.23-1.31.22-1.3.22-1.29.21-1.27.2-1.26.2-1.24.19-1.22.18-1.2.17-1.18.16-1.17.16-1.15.15-1.13.15-1.11.13-1.08.12-1.08.11-1.06.1-1.03.09-1.01.07-.99.06-.98.05-.95.04-.93.02-.91v-.89s0-.88,0-.88l-.02-.85-.04-.83-.05-.8-.06-.79-.08-.77-.1-.75-.12-.72-.13-.7-.15-.69-.17-.66-.18-.65-.21-.62-.23-.61-.25-.58-.26-.56-.28-.55-.31-.53-.32-.5-.36-.49-.36-.46-.39-.45-.41-.44-.43-.41-.46-.4-.47-.37-.5-.36-.52-.35-.55-.33-.57-.31-.58-.3-.61-.28-.64-.26-.66-.25-.68-.24-.7-.23-.72-.21-.76-.19-.77-.18-.79-.17-.82-.15-.84-.15-.87-.14-.88-.12-.91-.12-.93-.1-.95-.09-.98-.08-1-.07-1.01-.07-1.04-.05-1.07-.05-1.08-.05-1.1-.04-1.12-.03-1.15-.02-1.16-.02h-1.18s-1.2-.02-1.2-.02h-2.46s-1.25,0-1.25,0l-1.28.02h-1.29s-1.3.03-1.3.03l-1.33.03-1.34.02-1.36.03-1.37.03-1.39.03-1.4.03-1.41.04-1.42.03-1.44.04-1.46.03-1.46.04-1.48.03-1.48.03-1.49.04-1.5.03-1.51.03-1.52.03-1.52.03-1.54.02-1.54.02-1.54.03-1.55.02h-1.56s-1.56.03-1.56.03h-1.56s-1.57.02-1.57.02h-3.14s-1.57,0-1.57,0h-3.14s-1.57,0-1.57,0h-1.57s-1.56-.02-1.56-.02l-1.56-.02h-1.56s-1.55-.03-1.55-.03l-1.54-.03-1.54-.02-1.54-.02-1.52-.03-1.52-.03-1.51-.03-1.5-.03-1.49-.04-1.48-.03-1.48-.03-1.46-.04-1.46-.03-1.44-.04-1.42-.03-1.41-.04-1.4-.03-1.39-.03-1.37-.03-1.36-.03-1.34-.02-1.33-.03-1.3-.02h-1.29s-1.28-.03-1.28-.03h-2.49s-1.22,0-1.22,0h-1.2s-1.18.02-1.18.02l-1.16.02-1.15.02-1.12.03-1.1.04-1.08.05-1.07.05-1.04.05-1.01.07-1,.07-.98.08-.95.09-.93.1-.91.12-.88.12-.87.14-.84.15-.82.15-.79.17-.77.18-.76.19-.72.21-.7.23-.68.24-.66.25-.64.26-.61.28-.58.3-.57.31-.55.33-.52.35-.5.36-.47.37-.46.4-.43.41-.41.44-.39.45-.36.46-.36.49-.32.5-.31.53-.28.55-.26.56-.25.58-.23.61-.21.62-.18.65-.17.66-.15.69-.13.7-.12.72-.1.75-.08.77-.06.79-.05.8-.04.83-.02.85v1.77s.03.91.03.91l.04.93.05.95.06.98.07.99.09,1.01.1,1.03.11,1.06.12,1.08.13,1.08.15,1.11.15,1.13.16,1.15.16,1.17.17,1.18.18,1.2.19,1.22.2,1.24.2,1.26.21,1.27.22,1.29.22,1.3.23,1.31.23,1.34.24,1.35.24,1.36.24,1.39.25,1.39.25,1.4.25,1.41.26,1.43.25,1.44.26,1.45.26,1.46.26,1.48.26,1.48.26,1.49.26,1.49.26,1.5.26,1.51.26,1.52.25,1.52.26,1.53.26,1.53.25,1.54.25,1.54.25,1.55.25,1.54.24,1.55.25,1.55.23,1.56.24,1.55.24,1.55.23,1.54.23,1.55.22,1.54.22,1.54.22,1.54.22,1.53.21,1.52.21,1.52.21,1.51.2,1.51.2,1.49.2,1.49.2,1.49.19,1.47.19,1.47.19,1.45.19,1.44.19,1.43.18,1.41.18,1.41.18,1.39.18,1.38.18,1.37.18,1.34.17,1.33.18,1.32.18,1.29.18,1.29.18,1.27.18,1.24.18,1.23.18,1.21.18,1.19.19,1.18.19,1.15.19,1.13.2,1.1.2,1.09.21,1.07.21,1.04.21,1.02.22,1,.22.98.24.96.23.93.25.91.25.88.26.86.26.84.26.81.28.79.28.76.3.74.3.72.32.69.33.67.33.64.35.61.36.59.37.57.38.54.39.52.4.49.42.46.43.45.45.41.46.4.47.36.48.35.5.32.52.3.53.26.55.26.57.23.58.2.59.18.61.15.63.14.65.12.66.09.68.06.69.05.72.03h.73s.75,0,.75,0l.77-.04.78-.05.8-.07.83-.09.84-.1.86-.13.88-.14.89-.16.91-.17.93-.19.95-.21.97-.22.99-.24,1-.26,1.02-.26,1.04-.28,1.06-.29,1.07-.3,1.09-.32,1.11-.33,1.12-.35,1.15-.35,1.16-.36,1.18-.37,1.18-.37,1.21-.39,1.22-.4,1.24-.41,1.25-.41,1.27-.42,1.29-.43,1.29-.44,1.31-.44,1.32-.45,1.33-.46,1.35-.46,1.37-.46,1.37-.46,1.39-.46,1.39-.47,1.4-.47,1.41-.47,1.42-.47,1.43-.47,1.44-.48,1.44-.48,1.46-.48,1.46-.47,1.47-.48,1.48-.48,1.48-.48,1.49-.47,1.49-.48,1.49-.47,1.49-.47,1.49-.47,1.49-.47,1.49-.46,1.49-.47,1.49-.46,1.5-.46,1.49-.46,1.49-.46,1.49-.46,1.49-.45,1.48-.45,1.48-.45,1.48-.44,1.47-.43,1.46-.44,1.45-.42,1.45-.43,1.44-.42,1.42-.42,1.42-.41,1.4-.41,1.4-.4,1.39-.4,1.38-.4,1.36-.39,1.35-.39,1.34-.39,1.32-.38,1.3-.38,1.29-.38,1.28-.37,1.26-.37,1.24-.37,1.22-.37,1.21-.37,1.18-.36,1.18-.36,1.15-.36,1.13-.36,1.11-.36,1.09-.36,1.07-.36,1.05-.36,1.03-.36,1-.36.98-.36.96-.37.93-.36.92-.37.88-.37.87-.37.84-.37.82-.38.78-.38.77-.39.74-.39.71-.4.69-.4.67-.41.64-.42.61-.42.58-.43.57-.43.54-.45.5-.45.48-.46.46-.46.43-.47.4-.48.37-.49.36-.5.32-.51.3-.52.26-.53.25-.55.22-.56.2-.57.16-.57.15-.58.12-.6.09-.62.06-.62.05-.64.02-.66v-.67s-.04-.68-.04-.68l-.05-.69-.07-.7-.1-.73-.12-.73-.15-.76-.16-.77-.19-.78-.2-.79-.24-.81-.25-.83-.26-.84-.29-.86-.31-.88-.33-.88-.35-.91-.36-.91-.38-.94-.39-.95-.42-.97-.43-.98-.45-1-.46-1.01-.47-1.03-.49-1.04-.5-1.06-.52-1.08-.53-1.08-.55-1.1-.56-1.12-.57-1.13-.57-1.15-.59-1.16-.59-1.18-.61-1.18-.62-1.2-.62-1.21-.63-1.23-.65-1.23-.65-1.25-.65-1.27-.67-1.28-.67-1.28-.67-1.29-.67-1.3-.68-1.32-.68-1.32-.68-1.33-.69-1.34-.68-1.35-.7-1.36-.69-1.37-.69-1.37-.7-1.38-.7-1.39-.69-1.39-.7-1.39-.69-1.4-.7-1.39-.69-1.4-.7-1.4-.69-1.41-.68-1.4-.69-1.41-.68-1.4-.68-1.41-.68-1.4-.67-1.41-.67-1.4-.67-1.39-.67-1.4-.67-1.39-.66-1.39-.65-1.39-.65-1.38-.65-1.38-.64-1.37-.63-1.36-.63-1.35-.63-1.34-.61-1.33-.62-1.32-.6-1.31-.61-1.3-.59-1.29-.59-1.28-.58-1.27-.58-1.25-.58-1.23-.57-1.22-.57-1.21-.56-1.18-.56-1.18-.56-1.16-.55-1.14-.55-1.12-.54-1.11-.54-1.08-.53-1.07-.53-1.04-.53-1.03-.52-1-.52-.98-.51-.97-.52-.94-.51-.92-.5-.9-.51-.87-.5-.86-.5-.82-.51-.8-.5-.77-.5-.76-.49-.73-.5-.7-.5-.67-.51-.66-.5-.62-.5-.6-.51-.57-.5-.55-.51-.52-.52-.49-.51-.46-.52-.44-.53-.41-.53-.38-.53-.36-.54-.33-.54-.3-.56-.27-.55-.25-.57-.22-.57-.19-.57-.16-.58-.15-.58-.11-.59-.08-.6-.05-.61-.03h-.62l-.63.02-.64.05-.65.07-.66.1-.67.13-.67.15-.68.18-.7.2-.71.23-.71.25-.74.28-.74.29-.76.33-.77.35-.77.36-.78.39-.8.41-.82.44-.82.46-.85.47-.85.49-.87.52-.88.53-.89.56-.9.57-.92.59-.92.6-.95.63-.96.64-.97.66-.98.67-.99.68-1.01.7-1.02.72-1.03.73-1.04.74-1.06.76-1.07.77-1.08.77-1.08.79-1.1.8-1.12.8-1.12.82-1.14.83-1.14.84-1.16.84-1.17.85-1.18.86-1.18.87-1.19.88-1.21.88-1.2.88-1.22.88-1.23.88-1.23.89-1.25.89-1.25.9-1.25.89-1.26.9-1.27.9-1.27.89-1.28.9-1.28.9-1.29.9-1.28.9-1.29.89-1.29.9-1.29.89-1.29.88-1.29.89-1.29.88-1.29.88-1.29.88-1.29.88-1.28.88-1.29.87-1.27.86-1.28.86-1.27.85-1.26.85-1.26.84-1.24.83-1.25.83-1.23.82-1.22.81-1.21.81-1.21.8-1.19.79-1.18.78-1.18.77-1.16.77-1.15.77-1.14.77-1.12.75-1.11.75-1.09.73-1.08.74-1.07.72-1.05.71-1.03.71-1.01.7-.99.69-.98.69-.96.68-.94.67-.92.67-.89.67-.88.66-.85.65-.84.65-.81.64-.79.63-.77.63-.75.63-.72.62-.69.61-.67.61-.65.6-.62.6-.6.6-.57.59-.55.59-.52.59-.5.59-.46.58-.44.58-.41.58-.39.58-.36.57-.33.58-.31.57-.27.58-.25.58-.23.57-.19.58-.16.58-.14.58-.11.59-.07.59-.05.59-.03.59v.6s.04.6.04.6l.05.61.09.61.11.61.15.62.16.63.2.63.22.64.26.65.27.65.3.67.33.66.36.67.37.68.41.68.43.69.46.7.47.71.5.72.53.73.55.74.57.75.6.76.61.77.64.77.66.78.68.79.69.81.72.81.74.83.76.83.77.85.79.86.81.87.83.88.84.88.86.9.88.9.89.92.9.93.92.94.93.95.94.96.96.97.97.98.98.98.99.99.99,1.01,1.01,1.01,1.01,1.02,1.03,1.03,1.03,1.04,1.04,1.05,1.05,1.06,1.05,1.07,1.06,1.07,1.07,1.08,1.07,1.08,1.07,1.08,1.08,1.1,1.08,1.1,1.08,1.1,1.08,1.11,1.08,1.12,1.08,1.12,1.08,1.12,1.08,1.13,1.08,1.13,1.08,1.14,1.08,1.14,1.08,1.13,1.08,1.14,1.08,1.14,1.07,1.14,1.07,1.15,1.07,1.13,1.06,1.14,1.06,1.14,1.05,1.13,1.05,1.13,1.04,1.13,1.03,1.12,1.03,1.12,1.02,1.11,1.01,1.11,1,1.09,1,1.1.98,1.08.98,1.08.98,1.07.97,1.07.97,1.05.95,1.05.94,1.03.93,1.02.93,1.01.91,1,.9.98.89.97.89.97.88.94.87.93.86.91.85.9.84.88.83.87.82.85.81.83.8.81.79.78.78.77.77.75.77.73.76.71.75.69.74.67.73.65.72.62.72.6.7.57.7.56.68.52.68.51.68.47.67.46.67.43.66.4.65.38.65.35.64.33.63.3.63.26.63.25.62.22.61.19.61.15.61.14.61.11.6.08.59.05.6.03h.59s.6-.05.6-.05l.59-.05.59-.09.58-.12.59-.15.59-.17.59-.2.59-.23.59-.26.59-.28.6-.31.59-.34.6-.37.61-.39.6-.42.61-.45.61-.47.62-.5.62-.52.63-.56.63-.57.63-.6.65-.62.64-.66.66-.67.66-.69.67-.72.67-.75.67-.77.68-.78.68-.81.7-.83.7-.85.71-.88.71-.89.73-.9.73-.93.74-.95.75-.97.76-.98.77-1,.77-1.01.78-1.03.78-1.05.79-1.06.8-1.08.81-1.09.82-1.1.83-1.11.83-1.12.84-1.14.86-1.15.86-1.16.86-1.17.88-1.18.88-1.18.88-1.19.89-1.19.89-1.21.9-1.21.91-1.21.92-1.23.92-1.22.92-1.23.93-1.24.94-1.23.94-1.24.95-1.25.95-1.24.95-1.24.96-1.24.96-1.25.96-1.24.96-1.24.97-1.24.97-1.23.96-1.23.97-1.23.97-1.22.97-1.22.97-1.22.96-1.2.96-1.21.96-1.19.96-1.19.95-1.19.95-1.18.95-1.18.94-1.16.93-1.16.93-1.15.91-1.13.92-1.13.9-1.12.89-1.1.89-1.1.88-1.08.87-1.08.87-1.07.85-1.06.84-1.04.83-1.04.81-1.02.8-1.01.79-1,.77-.98.76-.98.75-.97.73-.96.71-.94.7-.93.68-.91.67-.91.65-.89.63-.88.6-.88.59-.86.57-.84.55-.84.53-.82.51-.81.49-.79.46-.78.45-.78.42-.76.39-.76.38-.75.35-.73.33-.72.3-.71.28-.7.26-.69.23-.68.2-.67.17-.67.15-.65.13-.65.09-.64.07-.64.05-.62.02-.61v-.61s-.05-.6-.05-.6l-.06-.59-.09-.59-.12-.58-.15-.57-.17-.57-.2-.57-.23-.57-.26-.56-.28-.56-.32-.56-.34-.55-.36-.55-.39-.54-.43-.55-.45-.54-.47-.54-.5-.53-.54-.54-.56-.54-.58-.53-.6-.54-.64-.54-.66-.53-.69-.54-.71-.54-.73-.54-.77-.55-.78-.54-.81-.55-.83-.55-.86-.56-.88-.56-.9-.56-.92-.56-.95-.57-.97-.57-.98-.57-1-.57-1.03-.58-1.05-.58-1.06-.59-1.08-.6-1.1-.6-1.11-.6-1.14-.62-1.15-.61-1.17-.63-1.19-.63-1.19-.64-1.21-.64-1.22-.65-1.24-.66-1.25-.66-1.26-.67-1.28-.67-1.29-.67-1.29-.68-1.3-.68-1.31-.69-1.32-.7-1.32-.7-1.34-.71-1.34-.71-1.35-.72-1.35-.72-1.36-.73-1.36-.74-1.37-.74-1.37-.74-1.37-.75-1.37-.75-1.38-.75-1.37-.76-1.38-.76-1.38-.76-1.37-.77-1.37-.77-1.37-.77-1.37-.77-1.36-.77-1.36-.77-1.36-.77-1.34-.77-1.35-.77-1.33-.77-1.33-.77-1.33-.77-1.31-.76-1.31-.76-1.3-.76-1.29-.76-1.29-.75-1.28-.74-1.27-.74-1.25-.74-1.25-.72-1.23-.72-1.22-.72-1.21-.7-1.2-.7-1.18-.69-1.18-.67-1.17-.67-1.15-.67-1.14-.65-1.12-.65-1.11-.63-1.09-.62-1.08-.6-1.07-.59-1.06-.58-1.04-.57-1.02-.56-1.01-.54-1-.52-.98-.51-.97-.48-.95-.47-.94-.46-.93-.45-.91-.42-.89-.4-.88-.38-.87-.36-.85-.35-.84-.32-.82-.31-.81-.28-.79-.26-.77-.25-.77-.22-.76-.19-.74-.17-.72-.15-.71-.13-.7-.1-.68-.08-.67-.05-.66-.03h-.65s-.64.02-.64.02l-.62.05-.62.06-.6.1-.59.12-.57.15-.57.17-.56.2-.56.23-.54.26-.53.28-.53.3-.51.34-.51.36-.49.38-.49.42-.49.44-.47.46-.47.5-.46.52-.46.55-.46.57-.45.6-.45.62-.44.66-.44.67-.44.71-.43.73-.43.76-.42.77-.43.81-.42.83-.42.85-.41.88-.42.9-.41.92-.42.95-.42.98-.41.99-.42,1.01-.41,1.04-.42,1.06-.42,1.08-.42,1.1-.42,1.12-.43,1.14-.42,1.16-.43,1.18-.44,1.19-.43,1.2-.44,1.23-.44,1.25-.45,1.26-.45,1.28-.45,1.29-.46,1.3-.46,1.32-.46,1.33-.46,1.35-.46,1.35-.47,1.38-.47,1.38-.48,1.39-.48,1.4-.49,1.41-.49,1.41-.5,1.42-.5,1.43-.5,1.44-.51,1.45-.52,1.45-.52,1.46-.52,1.46-.52,1.46-.53,1.47-.54,1.47-.53,1.47-.54,1.48-.54,1.47-.55,1.48-.55,1.47-.55,1.47-.55,1.47-.56,1.47-.55,1.46-.56,1.46-.56,1.46-.56,1.45-.56,1.44-.55,1.44-.56,1.43-.56,1.43-.56,1.41-.55,1.41-.55,1.4-.56,1.39-.54,1.38-.55,1.38-.54,1.37-.54,1.35-.53,1.34-.53,1.33-.52,1.32-.51,1.3-.51,1.29-.51,1.29-.49,1.27-.49,1.25-.48,1.24-.47,1.23-.46,1.2-.46,1.19-.45,1.18-.44,1.17-.43,1.15-.41,1.13-.4,1.12-.4,1.09-.37,1.08-.37,1.07-.35,1.06-.35,1.03-.32,1.02-.32.99-.29.98-.28.97-.26.95-.25.93-.24.91-.21.9-.2.88-.18.86-.15.85-.15.83-.12.8-.1.79-.08.77-.06.77-.05.74-.02.72v.71l.03.69.04.67.07.66.09.65.11.63.14.61.15.6.19.58.2.57.24.56.26.54.27.52.31.52.33.49.36.48.37.47.4.46.44.45.45.44.48.42.51.42.53.4.56.39.58.38.6.37.64.36.66.36.68.35.7.34.74.33.76.33.78.31.8.31.83.3.86.3.88.28.9.29.93.27.95.28.98.26.99.27,1.02.26,1.04.26,1.07.26,1.08.26,1.1.26,1.13.25,1.14.26,1.17.25,1.19.25,1.2.25,1.22.25,1.25.25,1.26.25,1.28.24,1.29.25,1.31.25,1.32.26,1.35.25,1.35.25,1.38.26,1.39.26,1.39.26,1.41.26,1.42.26,1.43.26,1.45.26,1.46.27,1.46.26,1.48.27,1.49.28,1.49.27,1.49.28,1.5.28,1.51.29,1.52.29,1.51.29,1.53.3,1.52.29,1.53.31,1.54.3,1.53.31,1.54.31,1.53.31,1.54.32,1.53.32,1.53.32,1.54.33,1.52.32,1.53.33,1.52.33,1.51.33,1.51.33,1.51.33,1.49.34,1.49.33,1.49.34,1.48.33,1.48.33,1.46.33,1.45.34,1.45.33,1.43.32,1.41.33,1.41.32,1.39.32,1.39.32,1.38.31,1.36.31,1.34.31,1.33.3,1.31.29,1.3.29,1.29.28,1.27.27,1.26.27,1.23.26,1.22.26,1.2.26,1.18.24,1.17.23,1.16.23,1.13.21,1.11.2,1.09.2,1.08.17,1.06.17,1.04.16,1.02.15,1,.13.98.13.97.1.94.09.92.08.9.06.88.05.87.03.84.02h.82l.8-.02.78-.03.77-.05.74-.06.72-.09.71-.1.68-.13.66-.15.65-.15.63-.19.6-.2.59-.22.57-.25.56-.26.53-.29.52-.31.49-.33.48-.36.46-.37.45-.39.43-.42.41-.45.39-.46.38-.49.36-.51.36-.53.33-.57.32-.57.31-.61.29-.63.28-.65.26-.68.26-.69.24-.73.23-.75.22-.77.21-.79.19-.82.18-.84.17-.87.16-.89.15-.9.15-.94.14-.95.14-.98.12-.99.12-1.03.1-1.04.1-1.07.1-1.08.08-1.11.08-1.12.08-1.15.07-1.17.07-1.19.06-1.2.05-1.23.06-1.24.05-1.27.05-1.28.05-1.29.05-1.32.05-1.33.05-1.34.04-1.37.05-1.38.05-1.39.04-1.4.05-1.42.04-1.43.05-1.44.04-1.46.05-1.47.05-1.48.05-1.49.05-1.5.05-1.5.05-1.51.05-1.52.05-1.53.05-1.53.05-1.54.06-1.55.06-1.55.06-1.56.06-1.56.07-1.56.06-1.57.08-1.56.07-1.57.08-1.57.08-1.57.08-1.57.08-1.56.09-1.57.09-1.55.09-1.56.1-1.55.09-1.55.1-1.54.1-1.53.1-1.53.1-1.52.11-1.51.1-1.5.11-1.49.1-1.49.11-1.48.11-1.47.1-1.46.11-1.44.1-1.43.1-1.41.11-1.41.1-1.39.09-1.38.1-1.37.09-1.35.09-1.33.08-1.31.09-1.3.07-1.28.07-1.27.07-1.25.06-1.23.06-1.21.05-1.19.05-1.18.04-1.15.04-1.14.02-1.11.02-1.09.02-1.08v-2.09s-.03-1.01-.03-1.01l-.03-.99-.04-.97-.05-.95-.05-.93-.07-.9-.08-.88-.1-.86-.11-.84-.12-.81-.14-.79-.15-.77-.16-.75-.17-.73-.19-.7-.21-.68-.23-.67-.24-.64-.26-.61-.27-.59-.29-.57-.31-.56-.32-.53-.35-.51-.36-.48-.37-.46-.4-.45-.42-.42-.44-.41-.46-.38-.47-.36-.5-.34-.52-.33-.53-.3-.57-.29-.57-.26-.6-.26-.62-.23-.64-.21-.67-.2-.68-.18-.7-.16-.73-.15-.75-.13-.77-.12-.78-.1-.82-.08-.83-.07-.86-.05-.88-.05-.9-.03-.92-.02h-.94s-.96,0-.96,0l-.98.02-1,.03-1.03.05-1.04.05-1.07.06-1.08.06-1.1.08-1.13.09-1.14.09-1.17.11-1.18.11-1.2.12-1.21.12-1.24.14-1.25.14-1.28.14-1.29.15-1.3.15-1.32.15-1.33.16-1.35.15-1.37.17-1.38.16-1.39.17-1.41.17-1.41.17-1.43.18-1.45.18-1.45.17-1.47.18-1.48.18-1.49.18-1.49.18-1.5.17-1.5.18-1.52.18-1.52.17-1.53.18-1.54.17-1.54.17-1.55.17-1.55.17-1.55.16-1.56.16-1.56.16-1.56.16-1.56.16-1.57.15-1.56.15-1.56.15-1.56.15-1.55.15-1.55.15-1.55.14-1.55.14-1.53.14-1.54.14-1.52.13-1.52.14-1.51.13-1.5.12-1.49.13-1.49.12-1.48.12-1.47.12-1.46.12-1.44.11-1.43.12-1.42.11-1.4.12-1.39.11-1.39.11-1.36.11-1.35.12-1.33.11-1.32.11-1.29.12-1.29.12-1.27.12-1.25.12-1.22.12-1.21.13-1.19.13-1.17.13-1.15.14-1.13.14-1.11.15-1.08.15-1.07.15-1.05.15-1.02.16-1,.16-.98.18-.95.18-.94.19-.91.19-.88.21-.87.22-.84.22-.81.24-.79.24-.77.26-.75.26-.72.27-.69.29-.67.29-.65.31-.62.32-.6.33-.57.35-.55.36-.53.37-.5.38-.47.4-.46.41-.43.43-.41.45-.38.46-.36.47-.33.49-.32.51-.29.52-.26.54-.25.57-.23.57-.2.58-.18.61-.15.63-.14.65-.12.67-.1.68-.07.69-.06.72-.04.74-.02.76v.77l.02.79.04.81.05.84.06.85.09.88.1.88.12.91.14.93.15.95.16.96.17.98.19,1.01.21,1.02.22,1.04.23,1.06.25,1.08.26,1.09.26,1.11.28,1.13.28,1.15.3,1.17.3,1.18.32,1.2.32,1.21.34,1.23.34,1.25.35,1.26.35,1.29.36,1.29.36,1.3.36,1.32.38,1.34.37,1.34.38,1.37.39,1.38.39,1.39.39,1.39.4,1.41.4,1.41.4,1.43.4,1.44.41,1.45.4,1.46.41,1.46.4,1.48.41,1.48.41,1.49.4,1.49.41,1.49.4,1.5.4,1.5.4,1.51.4,1.51.4,1.51.39,1.52.4,1.51.39,1.52.38,1.51.39,1.52.38,1.51.38,1.52.37,1.5.37,1.51.37,1.5.36,1.5.37,1.49.36,1.49.36,1.48.36,1.48.35,1.48.35,1.46.35,1.45.35,1.45.34,1.43.34,1.42.33,1.41.33,1.4.33,1.39.33,1.38.32,1.36.32,1.35.32,1.34.32,1.31.31,1.3.31,1.29.31,1.28.31,1.25.31,1.24.31,1.21.3,1.2.31,1.18.31,1.17.3,1.14.31,1.12.31,1.09.3,1.08.32,1.06.31,1.04.31,1.01.32.99.32.97.32.95.33.92.33.89.33.88.34.85.35.83.35.79.36.77.36.76.36.72.37.7.37.67.38.65.39.63.4.59.41.57.42.55.42.52.44.49.45.46.46.45.46.41.47.39.48.36.5.34.51.32.52.28.54.26.55.24.56.21.57.19.58.16.6.14.61.11.63.09.65.06.66.05.67.02h.69l.69-.03.72-.05.73-.07.75-.09.77-.12.78-.13.79-.15.81-.18.83-.19.85-.22.86-.23.88-.26.89-.27.91-.28.93-.31.95-.32.96-.35.98-.36.99-.36,1.01-.39,1.02-.4,1.04-.41,1.06-.44,1.08-.44,1.08-.46,1.11-.46,1.12-.48,1.13-.49,1.15-.5,1.17-.51,1.18-.52,1.19-.54,1.21-.54,1.22-.55,1.23-.57,1.25-.57,1.27-.57,1.28-.58,1.29-.58,1.29-.59,1.31-.59,1.31-.6,1.33-.61,1.34-.6,1.36-.62,1.36-.61,1.37-.62,1.38-.62,1.39-.63,1.39-.62,1.39-.63,1.41-.63,1.41-.63,1.41-.63,1.42-.62,1.43-.63,1.43-.63,1.43-.62,1.44-.63,1.44-.62,1.44-.62,1.44-.62,1.44-.61,1.44-.62,1.45-.6,1.44-.61,1.43-.6,1.44-.6,1.43-.59,1.43-.59,1.42-.59,1.42-.58,1.41-.57,1.4-.58,1.4-.57,1.39-.57,1.39-.57,1.38-.56,1.37-.56,1.36-.55,1.34-.55,1.34-.54,1.32-.53,1.31-.53,1.3-.53,1.29-.52,1.28-.52,1.26-.51,1.24-.51,1.23-.5,1.21-.5,1.19-.49,1.18-.49,1.16-.49,1.14-.48,1.12-.48,1.1-.47,1.08-.48,1.07-.46,1.05-.47,1.02-.47,1-.46.98-.46.96-.46.94-.46.91-.46.88-.46.87-.46.85-.46.81-.46.79-.46.77-.46.75-.46.71-.46.69-.46.67-.47.64-.46.62-.48.58-.47.57-.48.53-.48.51-.49.48-.49.45-.5.43-.5.4-.51.37-.51.35-.53.32-.53.29-.53.26-.55.23-.55.22-.56.18-.57.15-.57.13-.58.1-.59.08-.6.05-.61.03-.62v-.63s-.04-.65-.04-.65l-.05-.66-.08-.67-.1-.67-.13-.68-.15-.7-.17-.71-.2-.72-.23-.74-.25-.75-.27-.77-.29-.77-.31-.79-.34-.8-.36-.81-.37-.83-.4-.84-.42-.85-.45-.88-.46-.88-.47-.89-.5-.91-.51-.92-.54-.94-.55-.95-.57-.97-.58-.98-.59-.98-.62-1.01-.62-1.01-.65-1.04-.66-1.04-.67-1.06-.68-1.08-.69-1.08-.7-1.09-.71-1.11-.73-1.12-.74-1.14-.75-1.15-.76-1.16-.76-1.17-.77-1.18-.78-1.18-.78-1.2-.79-1.21-.8-1.22-.8-1.23-.81-1.24-.81-1.25-.82-1.27-.82-1.26-.83-1.28-.82-1.29-.84-1.29-.83-1.29-.83-1.3-.84-1.3-.84-1.31-.83-1.31-.84-1.32-.84-1.32-.83-1.32-.84-1.33-.83-1.33-.83-1.33-.82-1.33-.83-1.33-.82-1.33-.82-1.33-.81-1.33-.81-1.33-.8-1.33-.81-1.32-.79-1.32-.79-1.31-.78-1.31-.78-1.3-.78-1.29-.77-1.29-.77-1.29-.77-1.28-.76-1.28-.75-1.26-.74-1.25-.74-1.24-.73-1.23-.72-1.22-.72-1.2-.71-1.19-.7-1.18-.7-1.17-.69-1.16-.68-1.14-.67-1.12-.67-1.11-.67-1.08-.66-1.08-.66-1.06-.65-1.05-.64-1.02-.64-1-.63-.98-.63-.96-.62-.95-.61-.92-.61-.9-.6-.88-.6-.86-.59-.84-.59-.81-.58-.79-.58-.77-.58-.74-.57-.72-.57-.69-.57-.67-.57-.64-.57-.62-.57-.59-.56-.57-.57-.54-.57-.51-.56-.49-.57-.46-.56-.43-.57-.41-.56-.37-.57-.35-.57-.33-.57-.29-.57-.26-.57-.24-.57-.22-.57-.18-.57-.15-.58-.13-.59-.1-.59-.07-.59-.04-.6-.02h-.6s-.61.05-.61.05l-.62.07-.62.09-.64.12-.63.15-.65.17-.66.2-.66.23-.67.26-.67.27-.68.31-.69.33-.7.35-.71.38-.72.4-.72.43-.74.45-.76.47-.76.5-.77.52-.78.54-.78.57-.8.58-.81.6-.82.63-.83.65-.85.66-.86.68-.86.71-.88.72-.88.74-.9.75-.91.77-.92.78-.93.81-.95.81-.95.84-.97.85-.98.86-.99.88-.99.88-1.01.9-1.01.9-1.03.92-1.04.93-1.05.95-1.06.95-1.07.96-1.08.97-1.08.98-1.09.98-1.1.99-1.11.99-1.11.99-1.13,1-1.13,1.01-1.14,1.01-1.15,1.01-1.15,1.02-1.16,1.02-1.17,1.02-1.17,1.03-1.18,1.02-1.18,1.03-1.18,1.02-1.18,1.03-1.18,1.02-1.19,1.02-1.18,1.02-1.19,1.02-1.19,1.02-1.19,1.01-1.18,1.01-1.19,1-1.19,1-1.18,1-1.19.99-1.18.99-1.18.98-1.18.98-1.18.98-1.17.97-1.16.96-1.16.95-1.15.95-1.14.94-1.14.94-1.12.92-1.12.92-1.1.9-1.09.9-1.09.89-1.08.88-1.06.88-1.05.87-1.04.87-1.03.85-1.01.84-.99.84-.98.82-.96.82-.96.8-.93.8-.91.79-.9.77-.88.77-.87.77-.84.76-.82.75-.8.74-.78.74-.76.72-.75.72-.71.7-.69.7-.67.69-.65.69-.63.67-.6.67-.57.67-.56.67-.53.66-.5.65-.47.64-.46.64-.43.64-.39.63-.37.62-.35.62-.32.62-.29.61-.27.61-.24.61-.21.6-.18.6-.15.6-.13.6-.1.59-.07.59-.04.6-.02.59.02.59.04.6.07.59.1.59.13.6.15.6.18.6.21.6.24.61.27.61.29.61.32.62.35.62.37.62.39.63.43.64.46.64.47.64.5.65.53.66.56.67.57.67.6.67.63.67.65.69.67.69.69.7.71.7.75.72.76.72.78.74.8.74.82.75.84.76.87.77.88.77.9.77.91.79.93.8.96.8.96.82.98.82.99.84,1.01.84,1.03.85,1.04.87,1.05.87,1.06.88,1.08.88,1.09.89,1.09.9,1.1.9,1.12.92,1.12.92,1.14.94,1.14.94,1.15.95,1.16.95,1.16.96,1.17.97,1.18.98,1.18.98,1.18.98,1.18.99,1.19.99,1.18,1,1.19,1,1.19,1,1.18,1.01,1.19,1.01,1.19,1.02,1.19,1.02,1.18,1.02,1.19,1.02,1.18,1.02,1.18,1.03,1.18,1.02,1.18,1.03,1.18,1.02,1.17,1.03,1.17,1.02,1.16,1.02,1.15,1.02,1.15,1.01,1.14,1.01,1.13,1.01,1.13,1,1.11.99,1.11.99,1.1.99,1.09.98,1.08.98,1.08.97,1.07.96,1.06.95,1.05.95,1.04.93,1.03.92,1.01.9,1.01.9.99.88.99.88.98.86.97.85.95.84.95.81.93.81.92.78.91.77.9.75.88.74.88.72.86.71.86.68.85.66.83.65.82.63.81.6.8.58.78.57.78.54.77.52.76.5.76.47.74.45.72.43.72.4.71.38.7.35.69.33.68.31.67.27.67.26.66.23.66.2.65.17.63.15.64.12.62.09.62.07.61.04h.6s.6,0,.6,0l.59-.04.59-.07.59-.1.58-.13.57-.15.57-.18.57-.22.57-.24.57-.26.57-.29.57-.33.57-.35.56-.37.57-.41.56-.43.57-.46.56-.49.57-.51.57-.54.56-.57.57-.59.57-.62.57-.64.57-.67.57-.69.57-.72.58-.74.58-.77.58-.79.59-.81.59-.84.6-.86.6-.88.61-.9.61-.92.62-.95.63-.96.63-.98.64-1,.64-1.02.65-1.05.66-1.06.66-1.08.67-1.08.67-1.11.67-1.12.68-1.14.69-1.16.7-1.17.7-1.19.71-1.19.72-1.2.72-1.22.73-1.23.74-1.24.74-1.25.75-1.26.76-1.28.77-1.28.77-1.29.77-1.29.78-1.29.78-1.3.78-1.31.79-1.31.79-1.32.81-1.32.8-1.33.81-1.33.81-1.33.82-1.33.82-1.33.83-1.33.82-1.33.83-1.33.83-1.33.84-1.33.83-1.32.84-1.32.84-1.32.83-1.31.84-1.31.84-1.3.83-1.3.83-1.29.84-1.29.82-1.29.83-1.28.82-1.26.82-1.27.81-1.25.81-1.24.8-1.23.8-1.22.79-1.21.78-1.2.78-1.19.77-1.18.76-1.17.76-1.16.75-1.15.74-1.14.73-1.12.71-1.11.7-1.09.69-1.08.68-1.08.67-1.06.66-1.04.65-1.04.62-1.01.62-1.01.59-.98.58-.98.57-.97.55-.95.54-.94.51-.92.5-.91.47-.89.46-.88.45-.88.42-.85.4-.84.37-.83.36-.81.34-.8.31-.79.29-.77.27-.77.25-.75.23-.74.2-.72.17-.71.15-.7.13-.68.1-.67.08-.67.05-.66.03-.65v-.63s-.02-.62-.02-.62l-.05-.61-.08-.6-.1-.59-.13-.58-.15-.57-.18-.57-.22-.56-.23-.55-.26-.55-.29-.53-.32-.53-.35-.53-.37-.51-.4-.51-.43-.5-.45-.5-.48-.49-.51-.49-.53-.48-.57-.48-.58-.47-.62-.48-.64-.46-.67-.47-.69-.46-.71-.46-.75-.46-.77-.46-.79-.46-.81-.46-.85-.46-.87-.46-.88-.46-.91-.46-.94-.46-.96-.46-.98-.46-1-.46-1.02-.47-1.05-.47-1.07-.46-1.08-.48-1.1-.47-1.12-.48-1.14-.48-1.16-.49-1.18-.49-1.19-.49-1.21-.5-1.23-.5-1.24-.51-1.26-.51-1.28-.52-1.29-.52-1.3-.53-1.31-.53-1.32-.53-1.34-.54-1.34-.55-1.36-.55-1.37-.56-1.38-.56-1.39-.57-1.39-.57-1.4-.57-1.4-.58-1.41-.57-1.42-.58-1.42-.59-1.43-.59-1.43-.59-1.44-.6-1.43-.6-1.44-.61-1.45-.6-1.44-.62-1.44-.61-1.44-.62-1.44-.62-1.44-.62-1.44-.63-1.43-.62-1.43-.63-1.43-.63-1.42-.62-1.41-.63-1.41-.63-1.41-.63-1.39-.63-1.39-.62-1.39-.63-1.38-.62-1.37-.62-1.36-.61-1.36-.62-1.34-.6-1.33-.61-1.31-.6-1.31-.59-1.29-.59-1.29-.58-1.28-.58-1.27-.57-1.25-.57-1.23-.57-1.22-.55-1.21-.54-1.19-.54-1.18-.52-1.17-.51-1.15-.5-1.13-.49-1.12-.48-1.11-.46-1.08-.46-1.08-.44-1.06-.44-1.04-.41-1.02-.4-1.01-.39-.99-.36-.98-.36-.96-.35-.95-.32-.93-.31-.91-.28-.89-.27-.88-.26-.86-.23-.85-.22-.83-.19-.81-.18-.79-.15-.78-.13-.77-.12-.75-.09-.73-.07-.72-.05-.69-.03h-.69l-.67.02-.66.05-.65.06-.63.09-.61.11-.6.14-.58.16-.57.19-.56.21-.55.24-.54.26-.52.28-.51.32-.5.34-.48.36-.47.39-.46.41-.46.45-.45.46-.44.49-.42.52-.42.55-.41.57-.4.59-.39.63-.38.65-.37.67-.37.7-.36.72-.36.76-.36.77-.35.79-.35.83-.34.85-.33.88-.33.89-.33.92-.32.95-.32.97-.32.99-.31,1.01-.31,1.04-.32,1.06-.3,1.08-.31,1.09-.31,1.12-.3,1.14-.31,1.17-.31,1.18-.3,1.2-.31,1.21-.31,1.24-.31,1.25-.31,1.28-.31,1.29-.31,1.3-.32,1.31-.32,1.34-.32,1.35-.32,1.36-.33,1.38-.33,1.39-.33,1.4-.33,1.41-.34,1.42-.34,1.43-.35,1.45-.35,1.45-.35,1.46-.35,1.48-.36,1.48-.36,1.48-.36,1.49-.37,1.49-.36,1.5-.37,1.5-.37,1.51-.37,1.5-.38,1.52-.38,1.51-.39,1.52-.38,1.51-.39,1.52-.4,1.51-.39,1.52-.4,1.51-.4,1.51-.4,1.51-.4,1.5-.4,1.5-.41,1.49-.4,1.49-.41,1.49-.41,1.48-.4,1.48-.41,1.46-.4,1.46-.41,1.45-.4,1.44-.4,1.43-.4,1.41-.4,1.41-.39,1.39-.39,1.39-.39,1.38-.38,1.37-.37,1.34-.38,1.34-.36,1.32-.36,1.3-.36,1.29-.35,1.29-.35,1.26-.34,1.25-.34,1.23-.32,1.21-.32,1.2-.3,1.18-.3,1.17-.28,1.15-.28,1.13-.26,1.11-.26,1.09-.25,1.08-.23,1.06-.22,1.04-.21,1.02-.19,1.01-.17.98-.16.96-.15.95-.14.93-.12.91-.1.88-.09.88-.06.85-.05.84-.04.81-.02.79v.77l.02.76.04.74.06.72.07.69.1.68.12.67.14.65.15.63.18.61.2.58.23.57.25.57.26.54.29.52.32.51.33.49.36.47.38.46.41.45.43.43.46.41.47.4.5.38.53.37.55.36.57.35.6.33.62.32.65.31.67.29.69.29.72.27.75.26.77.26.79.24.81.24.84.22.87.22.88.21.91.19.94.19.95.18.98.18,1,.16,1.02.16,1.05.15,1.07.15,1.08.15,1.11.15,1.13.14,1.15.14,1.17.13,1.19.13,1.21.13,1.22.12,1.25.12,1.27.12,1.29.12,1.29.12,1.32.11,1.33.11,1.35.12,1.36.11,1.39.11,1.39.11,1.4.12,1.42.11,1.43.12,1.44.11,1.46.12,1.47.12,1.48.12,1.49.12,1.49.13,1.5.12,1.51.13,1.52.14,1.52.13,1.54.14,1.53.14,1.55.14,1.55.14,1.55.15,1.55.15,1.56.15,1.56.15,1.56.15,1.57.15,1.56.16,1.56.16,1.56.16,1.56.16,1.55.16,1.55.17,1.55.17,1.54.17,1.54.17,1.53.18,1.52.17,1.52.18,1.5.18,1.5.17,1.49.18,1.49.18,1.48.18,1.47.18,1.45.17,1.45.18,1.43.18,1.41.17,1.41.17,1.39.17,1.38.16,1.37.17,1.35.15,1.33.16,1.32.15,1.3.15,1.29.15,1.28.14,1.25.14,1.24.14,1.21.12,1.2.12,1.18.11,1.17.11,1.14.09,1.13.09,1.1.08,1.08.06,1.07.06,1.04.05,1.03.05,1,.03.98.02h.96s.94,0,.94,0l.92-.02.9-.03.88-.05.86-.05.83-.07.82-.08.78-.1.77-.12.75-.13.73-.15.7-.16.68-.18.67-.2.64-.21.62-.23.6-.26.57-.26.57-.29.53-.3.52-.33.5-.34.47-.36.46-.38.44-.41.42-.42.4-.45.37-.46.36-.48.35-.51.32-.53.31-.56.29-.57.27-.59.26-.61.24-.64.23-.67.21-.68.19-.7.17-.73.16-.75.15-.77.14-.79.12-.81.11-.84.1-.86.08-.88.07-.9.05-.93.05-.95.04-.97.03-.99.02-1.01v-1.03s0-1.06,0-1.06l-.02-1.08-.02-1.09-.02-1.11-.04-1.14-.04-1.15-.05-1.18-.05-1.19-.06-1.21-.06-1.23-.07-1.25-.07-1.27-.07-1.28-.09-1.3-.08-1.31-.09-1.33-.09-1.35-.1-1.37-.09-1.38-.1-1.39-.11-1.41-.1-1.41-.1-1.43-.11-1.44-.1-1.46-.11-1.47-.11-1.48-.1-1.49-.11-1.49-.1-1.5-.11-1.51-.1-1.52-.1-1.53-.1-1.53-.1-1.54-.09-1.55-.1-1.55-.09-1.56-.09-1.55-.09-1.57-.08-1.56-.08-1.57-.08-1.57-.08-1.57-.07-1.57-.08-1.56-.06-1.57-.07-1.56-.06-1.56-.06-1.56-.06-1.55-.06-1.55-.05-1.54-.05-1.53-.05-1.53-.05-1.52-.05-1.51-.05-1.5-.05-1.5-.05-1.49-.05-1.48-.05-1.47-.04-1.46-.05-1.44-.04-1.43-.05-1.42-.04-1.4-.05-1.39-.05-1.38-.04-1.37-.05-1.34-.05-1.33-.05-1.32-.05-1.29-.05-1.28-.05-1.27-.06-1.24-.05-1.23-.06-1.2-.07-1.19-.07-1.17-.08-1.15-.08-1.12-.08-1.11-.1-1.08-.1-1.07-.1-1.04-.12-1.03-.12-.99-.14-.98-.14-.95-.15-.94-.15-.9-.16-.89-.17-.87-.18-.84-.19-.82-.21-.79-.22-.77-.23-.75-.24-.73-.26-.69-.26-.68-.28-.65-.29-.63-.31-.61-.32-.57-.33-.57-.36-.53-.36-.51-.38-.49-.39-.46-.41-.45-.43-.42-.45-.39-.46-.37-.48-.36-.49-.33-.52-.31-.53-.29-.56-.26-.57-.25-.59-.22-.6-.2-.63-.19-.65-.15-.66-.15-.68-.13-.71-.1-.72-.09-.74-.06-.77-.05-.78-.03-.8-.02h-.82l-.84.02-.87.03-.88.05-.9.06-.92.08-.94.09-.97.1-.98.13-1,.13-1.02.15-1.04.16-1.06.17-1.08.17-1.09.2-1.11.2-1.13.21-1.16.23-1.17.23-1.18.24-1.2.26-1.22.26-1.23.26-1.26.27-1.27.27-1.29.28-1.3.29-1.31.29-1.33.3-1.34.31-1.36.31-1.38.31-1.39.32-1.39.32-1.41.32-1.41.33-1.43.32-1.45.33-1.45.34-1.46.33-1.48.33-1.48.33-1.49.34-1.49.33-1.49.34-1.51.33-1.51.33-1.51.33-1.52.33-1.53.33-1.52.32-1.54.33-1.53.32-1.53.32-1.54.32-1.53.31-1.54.31-1.53.31-1.54.3-1.53.31-1.52.29-1.53.3-1.51.29-1.52.29-1.51.29-1.5.28-1.49.28-1.49.27-1.49.28-1.48.27-1.46.26-1.46.27-1.45.26-1.43.26-1.42.26-1.41.26-1.39.26-1.39.26-1.38.26-1.35.25-1.35.25-1.32.26-1.31.25-1.29.25-1.28.24-1.26.25-1.25.25-1.22.25-1.2.25-1.19.25-1.17.25-1.14.26-1.13.25-1.1.26-1.08.26-1.07.26-1.04.26-1.02.26-.99.27-.98.26-.95.28-.93.27-.9.29-.88.28-.86.3-.83.3-.8.31-.78.31-.76.33-.74.33-.7.34-.68.35-.66.36-.64.36-.6.37-.58.38-.56.39-.53.4-.51.42-.48.42-.45.44-.44.45-.4.46-.37.47-.36.48-.33.49-.31.52-.27.52-.26.54-.24.56-.2.57-.19.58-.15.6-.14.61-.11.63-.09.65-.07.66-.04.67-.03.69v.71l.02.72.05.74.06.77.08.77.1.79.12.8.15.83.15.85.18.86.2.88.21.9.24.91.25.93.26.95.28.97.29.98.32.99.32,1.02.35,1.03.35,1.06.37,1.07.37,1.08.4,1.09.4,1.12.41,1.13.43,1.15.44,1.17.45,1.18.46,1.19.46,1.2.47,1.23.48,1.24.49,1.25.49,1.27.51,1.29.51,1.29.51,1.3.52,1.32.53,1.33.53,1.34.54,1.35.54,1.37.55,1.38.54,1.38.56,1.39.55,1.4.55,1.41.56,1.41.56,1.43.56,1.43.55,1.44.56,1.44.56,1.45.56,1.46.56,1.46.55,1.46.56,1.47.55,1.47.55,1.47.55,1.47.55,1.48.54,1.47.54,1.48.53,1.47.54,1.47.53,1.47.52,1.46.52,1.46.52,1.46.52,1.45.51,1.45.5,1.44.5,1.43.5,1.42.49,1.41.49,1.41.48,1.4.48,1.39.47,1.38.47,1.38.46,1.35.46,1.35.46,1.33.46,1.32.46,1.3.45,1.29.45,1.28.45,1.26.44,1.25.44,1.23.43,1.2.44,1.19.43,1.18.42,1.16.43,1.14.42,1.12.42,1.1.42,1.08.42,1.06.41,1.04.42,1.01.41.99.42.98.42.95.41.92.42.9.41.88.42.85.42.83.43.81.42.77.43.76.43.73.44.71.44.67.44.66.45.62.45.6.46.57.46.55.46.52.47.5.47.46.49.44.49.42.49.38.51.36.51.34.53.3.53.28.54.26.56.23.56.2.57.17.57.15.59.12.6.1.62.06.62.05.64.03h.65s.66-.04.66-.04l.67-.05.68-.08.7-.1.71-.13.72-.15.74-.17.76-.19.77-.22.77-.25.79-.26.81-.28.82-.31.84-.32.85-.35.87-.36.88-.38.89-.4.91-.42.93-.45.94-.46.95-.47.97-.48.98-.51,1-.52,1.01-.54,1.02-.56,1.04-.57,1.06-.58,1.07-.59,1.08-.6,1.09-.62,1.11-.63,1.12-.65,1.14-.65,1.15-.67,1.17-.67,1.18-.67,1.18-.69,1.2-.7,1.21-.7,1.22-.72,1.23-.72,1.25-.72,1.25-.74,1.27-.74,1.28-.74,1.29-.75,1.29-.76,1.3-.76,1.31-.76,1.31-.76,1.33-.77,1.33-.77,1.33-.77,1.35-.77,1.34-.77,1.36-.77,1.36-.77,1.36-.77,1.37-.77,1.37-.77,1.37-.77,1.37-.77,1.38-.76,1.38-.76,1.37-.76,1.38-.75,1.37-.75,1.37-.75,1.37-.74,1.37-.74,1.36-.74,1.36-.73,1.35-.72,1.35-.72,1.34-.71,1.34-.71,1.32-.7,1.32-.7,1.31-.69,1.3-.68,1.29-.68,1.29-.67,1.28-.67,1.26-.67,1.25-.66,1.24-.66,1.22-.65,1.21-.64,1.19-.64,1.19-.63,1.17-.63,1.15-.61,1.14-.62,1.11-.6,1.1-.6,1.08-.6,1.06-.59,1.05-.58,1.03-.58,1-.57.98-.57.97-.57.95-.57.92-.56.9-.56.88-.56.86-.56.83-.55.81-.55.78-.54.77-.55.73-.54.71-.54.69-.54.66-.53.64-.54.6-.54.58-.53.56-.54.54-.54.5-.53.47-.54.45-.54.43-.55.39-.54.36-.55.34-.55.32-.56.28-.56.26-.56.23-.57.2-.57.17-.57.15-.57.12-.58.09-.59.06-.59.04-.6v-.61s0-.61,0-.61l-.05-.62-.07-.64-.09-.64-.13-.65-.15-.65-.17-.67-.2-.67-.23-.68-.26-.69-.28-.7-.3-.71-.33-.72-.35-.73-.38-.75-.39-.76-.42-.76-.45-.78-.46-.78-.49-.79-.51-.81-.53-.82-.55-.84-.57-.84-.59-.86-.6-.88-.63-.88-.65-.89-.67-.91-.68-.91-.7-.93-.71-.94-.73-.96-.75-.97-.76-.98-.77-.98-.79-1-.8-1.01-.81-1.02-.83-1.04-.84-1.04-.85-1.06-.87-1.07-.87-1.08-.88-1.08-.89-1.1-.89-1.1-.9-1.12-.92-1.13-.91-1.13-.93-1.15-.93-1.16-.94-1.16-.95-1.18-.95-1.18-.95-1.18-.96-1.19-.96-1.19-.96-1.21-.96-1.2-.97-1.22-.97-1.22-.97-1.22-.97-1.23-.96-1.23-.97-1.23-.97-1.24-.96-1.24-.96-1.24-.96-1.25-.96-1.24-.95-1.24-.95-1.24-.95-1.25-.94-1.24-.94-1.23-.93-1.24-.92-1.23-.92-1.22-.92-1.23-.91-1.21-.9-1.21-.89-1.21-.89-1.19-.88-1.19-.88-1.18-.88-1.18-.86-1.17-.86-1.16-.86-1.15-.84-1.14-.83-1.12-.83-1.11-.82-1.1-.81-1.09-.8-1.08-.79-1.06-.78-1.05-.78-1.03-.77-1.01-.77-1-.76-.98-.75-.97-.74-.95-.73-.93-.73-.9-.71-.89-.71-.88-.7-.85-.7-.83-.68-.81-.68-.78-.67-.77-.67-.75-.67-.72-.66-.69-.66-.67-.64-.66-.65-.62-.63-.6-.63-.57-.63-.56-.62-.52-.62-.5-.61-.47-.61-.45-.6-.42-.61-.39-.6-.37-.59-.34-.6-.31-.59-.28-.59-.26-.59-.23-.59-.2-.59-.17-.59-.15-.58-.12-.59-.09-.59-.05-.6-.04h-.59s-.6.02-.6.02l-.59.05-.6.08-.61.11-.61.14-.61.15-.61.19-.62.22-.63.25-.63.26-.63.3-.64.33-.65.35-.65.38-.66.4-.67.43-.67.46-.68.47-.68.51-.68.52-.7.56-.7.57-.72.6-.72.62-.73.65-.74.67-.75.69-.76.71-.77.73-.77.75-.78.77-.79.78-.8.81-.81.83-.82.85-.83.87-.84.88-.85.9-.86.91-.87.93-.88.94-.89.97-.89.97-.9.98-.91,1-.93,1.01-.93,1.02-.94,1.03-.95,1.05-.97,1.05-.97,1.07-.98,1.07-.98,1.08-.98,1.08-1,1.1-1,1.09-1.01,1.11-1.02,1.11-1.03,1.12-1.03,1.12-1.04,1.13-1.05,1.13-1.05,1.13-1.06,1.14-1.06,1.14-1.07,1.13-1.07,1.15-1.07,1.14-1.08,1.14-1.08,1.14-1.08,1.13-1.08,1.14-1.08,1.14-1.08,1.13-1.08,1.13-1.08,1.12-1.08,1.12-1.08,1.12-1.08,1.11-1.08,1.1-1.08,1.1-1.08,1.1-1.07,1.08-1.07,1.08-1.07,1.08-1.06,1.07-1.05,1.07-1.05,1.06-1.04,1.05-1.03,1.04-1.03,1.03-1.01,1.02-1.01,1.01-.99,1.01-.99.99-.98.98-.97.98-.96.97-.94.96-.93.95-.92.94-.9.93-.89.92-.88.9-.86.9-.84.88-.83.88-.81.87-.79.86-.77.85-.76.83-.74.83-.72.81-.69.81-.68.79-.66.78-.64.77-.61.77-.6.76-.57.75-.55.74-.53.73-.5.72-.47.71-.46.7-.43.69-.41.68-.37.68-.36.67-.33.66-.3.67-.27.65-.26.65-.22.64-.2.63-.16.63-.15.62-.11.61-.09.61-.05.61-.03.6v.6s.02.59.02.59l.05.59.07.59.11.59.14.58.16.58.19.58.23.57.25.58.27.58.31.57.33.58.36.57.39.58.41.58.44.58.46.58.5.59.52.59.55.59.57.59.6.6.62.6.65.6.67.61.69.61.72.62.75.63.77.63.79.63.81.64.84.65.85.65.88.66.89.67.92.67.94.67.96.68.98.69.99.69,1.01.7,1.03.71,1.05.71,1.07.72,1.08.74,1.09.73,1.11.75,1.12.75,1.14.77,1.15.77,1.16.77,1.18.77,1.18.78,1.19.79,1.21.8,1.21.81,1.22.81,1.23.82,1.25.83,1.24.83,1.26.84,1.26.85,1.27.85,1.28.86,1.27.86,1.29.87,1.28.88,1.29.88,1.29.88,1.29.88,1.29.88,1.29.89,1.29.88,1.29.89,1.29.9,1.29.89,1.28.9,1.29.9,1.28.9,1.28.9,1.27.89,1.27.9,1.26.9,1.25.89,1.25.9,1.25.89,1.23.89,1.23.88,1.22.88,1.2.88,1.21.88,1.19.88,1.18.87,1.18.86,1.17.85,1.16.84,1.14.84,1.14.83,1.12.82,1.12.8,1.1.8,1.08.79,1.08.77,1.07.77,1.06.76,1.04.74,1.03.73,1.02.72,1.01.7.99.68.98.67.97.66.96.64.95.63.92.6.92.59.9.57.89.56.88.53.87.52.85.49.85.47.82.46.82.44.8.41.78.39.77.36.77.35.76.33.74.29.74.28.71.25.71.23.7.2.68.18.67.15.67.13.66.1.65.07.64.05.63.02h.62l.61-.03.6-.05.59-.08.58-.11.58-.15.57-.16.57-.19.57-.22.55-.25.56-.27.54-.3.54-.33.53-.36.53-.38.53-.41.52-.44.51-.46.52-.49.51-.52.5-.55.51-.57.5-.6.5-.62.51-.66.5-.67.5-.7.49-.73.5-.76.5-.77.51-.8.5-.82.5-.86.51-.87.5-.9.51-.92.52-.94.51-.97.52-.98.52-1,.53-1.03.53-1.04.53-1.07.54-1.08.54-1.11.55-1.12.55-1.14.56-1.16.56-1.18.56-1.19.57-1.21.57-1.22.58-1.23.58-1.25.58-1.27.59-1.28.59-1.29.61-1.3.6-1.31.62-1.32.61-1.33.63-1.34.63-1.35.63-1.36.64-1.37.65-1.38.65-1.38.65-1.39.66-1.39.67-1.39.67-1.4.67-1.39.67-1.4.67-1.41.68-1.4.68-1.41.68-1.4.69-1.41.68-1.4.69-1.41.7-1.4.69-1.4.7-1.39.69-1.4.7-1.39.69-1.39.7-1.39.7-1.38.69-1.37.69-1.37.7-1.36.68-1.35.69-1.34.68-1.33.68-1.32.68-1.32.67-1.3.67-1.29.67-1.28.67-1.28.65-1.27.65-1.25.65-1.23.63-1.23.62-1.21.62-1.2.61-1.18.59-1.18.59-1.16.57-1.15.57-1.13.56-1.12.55-1.1.53-1.08.52-1.08.5-1.06.49-1.04.47-1.03.46-1.01.45-1,.43-.98.42-.97.39-.95.38-.94.36-.91.35-.91.33-.88.31-.88.29-.86.26-.84.25-.83.24-.81.2-.79.19-.78.16-.77.15-.76.12-.73.1-.73.07-.7.05-.69.03-.68v-.67s0-.66,0-.66l-.05-.64-.06-.62-.09-.62-.12-.6-.15-.58-.16-.57-.2-.57-.22-.56-.25-.55-.26-.53-.3-.52-.32-.51-.36-.5-.37-.49-.4-.48-.43-.47-.46-.46-.48-.46-.5-.45-.54-.45-.57-.43-.58-.43-.61-.42-.64-.42-.67-.41-.69-.4-.71-.4-.74-.39-.77-.39-.78-.38-.82-.38-.84-.37-.87-.37-.88-.37-.92-.37-.93-.36-.96-.37-.98-.36-1-.36-1.03-.36-1.05-.36-1.07-.36-1.09-.36-1.11-.36-1.13-.36-1.15-.36-1.18-.36-1.18-.36-1.21-.37-1.22-.37-1.24-.37-1.26-.37-1.28-.37-1.29-.38-1.3-.38-1.32-.38-1.34-.39-1.35-.39-1.36-.39-1.38-.4-1.39-.4-1.4-.4-1.4-.41-1.42-.41-1.42-.42-1.44-.42-1.45-.43-1.45-.42-1.46-.44-1.47-.43-1.48-.44-1.48-.45-1.48-.45-1.49-.45-1.49-.46-1.49-.46-1.49-.46-1.5-.46-1.49-.46-1.49-.47-1.49-.46-1.49-.47-1.49-.47-1.49-.47-1.49-.47-1.49-.48-1.49-.47-1.48-.48-1.48-.48-1.47-.48-1.46-.47-1.46-.48-1.44-.48-1.44-.48-1.43-.47-1.42-.47-1.41-.47-1.4-.47-1.39-.47-1.39-.46-1.37-.46-1.37-.46-1.35-.46-1.33-.46-1.32-.45-1.31-.44-1.29-.44-1.29-.43-1.27-.42-1.25-.41-1.24-.41-1.22-.4-1.21-.39-1.18-.37-1.18-.37-1.16-.36-1.15-.35-1.12-.35-1.11-.33-1.09-.32-1.07-.3-1.06-.29-1.04-.28-1.02-.26-1-.26-.99-.24-.97-.22-.95-.21-.93-.19-.91-.17-.89-.16-.88-.14-.86-.13-.84-.1-.83-.09-.8-.07-.78-.05-.77-.04h-.75s-.73,0-.73,0l-.72.03-.69.05-.68.06-.66.09-.65.12-.63.14-.61.15-.59.18-.58.2-.57.23-.55.26-.53.26-.52.3-.5.32-.48.35-.47.36-.46.4-.45.41-.43.45-.42.46-.4.49-.39.52-.38.54-.37.57-.36.59-.35.61-.33.64-.33.67-.32.69-.3.72-.3.74-.28.76-.28.79-.26.81-.26.84-.26.86-.25.88-.25.91-.23.93-.24.96-.22.98-.22,1-.21,1.02-.21,1.04-.21,1.07-.2,1.09-.2,1.1-.19,1.13-.19,1.15-.19,1.18-.18,1.18-.18,1.21-.18,1.23-.18,1.24-.18,1.27-.18,1.29-.18,1.29-.18,1.32-.17,1.33-.18,1.34-.18,1.37-.18,1.38-.18,1.39-.18,1.41-.18,1.41-.19,1.43-.19,1.44-.19,1.45-.19,1.47-.19,1.47-.2,1.49-.2,1.49-.2,1.49-.2,1.51-.21,1.51-.21,1.52-.21,1.52-.22,1.53-.22,1.54-.22,1.54-.22,1.54-.23,1.55-.23,1.54-.24,1.55-.24,1.55-.23,1.56-.25,1.55-.24,1.55-.25,1.54-.25,1.55-.25,1.54-.25,1.54-.26,1.53-.26,1.53-.25,1.52-.26,1.52-.26,1.51-.26,1.5-.26,1.49-.26,1.49-.26,1.48-.26,1.48-.26,1.46-.26,1.45-.25,1.44-.26,1.43-.25,1.41-.25,1.4-.25,1.39-.24,1.39-.24,1.36-.24,1.35-.23,1.34-.23,1.31-.22,1.3-.22,1.29-.21,1.27-.2,1.26-.2,1.24-.19,1.22-.18,1.2-.17,1.18-.16,1.17-.16,1.15-.15,1.13-.15,1.11-.13,1.08-.12,1.08-.11,1.06-.1,1.03-.09,1.01-.07.99-.06.98-.05.95-.04.93-.02.91v.89s0,.88,0,.88l.02.85.04.83.05.8.06.79.08.77.1.75.12.72.13.7.15.69.17.66.18.65.21.62.23.61.25.58.26.56.28.55.31.53.32.5.36.49.36.46.39.45.41.44.43.41.46.4.47.37.5.36.52.35.55.33.57.31.58.3.61.28.64.26.66.25.68.24.7.23.72.21.76.19.77.18.79.17.82.15.84.15.87.14.88.12.91.12.93.1.95.09.98.08,1,.07,1.01.07,1.04.05,1.07.05,1.08.05,1.1.04,1.12.03,1.15.02,1.16.02h1.18s1.2.02,1.2.02h2.46s1.25,0,1.25,0l1.28-.02h1.29s1.3-.03,1.3-.03l1.33-.03,1.34-.02,1.36-.03,1.37-.03,1.39-.03,1.4-.03,1.41-.04,1.42-.03,1.44-.04,1.46-.03,1.46-.04,1.48-.03,1.48-.03,1.49-.04,1.5-.03,1.51-.03,1.52-.03,1.52-.03,1.54-.02,1.54-.02,1.54-.03,1.55-.02h1.56s1.56-.03,1.56-.03h1.56s1.57-.02,1.57-.02h3.14s1.57,0,1.57,0h3.14s1.57,0,1.57,0h1.57s1.56.02,1.56.02l1.56.02h1.56s1.55.03,1.55.03l1.54.03,1.54.02,1.54.02,1.52.03,1.52.03,1.51.03,1.5.03,1.49.04,1.48.03,1.48.03,1.46.04,1.46.03,1.44.04,1.42.03,1.41.04,1.4.03,1.39.03,1.37.03,1.36.03,1.34.02,1.33.03,1.3.02h1.29s1.28.03,1.28.03h2.49s1.22,0,1.22,0h1.2s1.18-.02,1.18-.02l1.16-.02,1.15-.02,1.12-.03,1.1-.04,1.08-.05,1.07-.05,1.04-.05,1.01-.07,1-.07.98-.08.95-.09.93-.1.91-.12.88-.12.87-.14.84-.15.82-.15.79-.17.77-.18.76-.19.72-.21.7-.23.68-.24.66-.25.64-.26.61-.28.58-.3.57-.31.55-.33.52-.35.5-.36.47-.37.46-.4.43-.41.41-.44.39-.45.36-.46.36-.49.32-.5.31-.53.28-.55.26-.56.25-.58.23-.61.21-.62.18-.65.17-.66.15-.69.13-.7.12-.72.1-.75.08-.77.06-.79.05-.8.04-.83.02-.85v-1.77s-.03-.91-.03-.91l-.04-.93-.05-.95-.06-.98-.07-.99-.09-1.01-.1-1.03-.11-1.06-.12-1.08-.13-1.08-.15-1.11-.15-1.13-.16-1.15-.16-1.17-.17-1.18-.18-1.2-.19-1.22-.2-1.24-.2-1.26-.21-1.27-.22-1.29-.22-1.3-.23-1.31-.23-1.34-.24-1.35-.24-1.36-.24-1.39-.25-1.39-.25-1.4-.25-1.41-.26-1.43-.25-1.44-.26-1.45-.26-1.46-.26-1.48-.26-1.48-.26-1.49-.26-1.49-.26-1.5-.26-1.51-.26-1.52-.25-1.52-.26-1.53-.26-1.53-.25-1.54-.25-1.54-.25-1.55-.25-1.54-.24-1.55-.25-1.55-.23-1.56-.24-1.55-.24-1.55-.23-1.54-.23-1.55-.22-1.54-.22-1.54-.22-1.54-.22-1.53-.21-1.52-.21-1.52-.21-1.51-.2-1.51-.2-1.49-.2-1.49-.2-1.49-.19-1.47-.19-1.47-.19-1.45-.19-1.44-.19-1.43-.18-1.41-.18-1.41-.18-1.39-.18-1.38-.18-1.37-.18-1.34-.17-1.33-.18-1.32-.18-1.29-.18-1.29-.18-1.27-.18-1.24-.18-1.23-.18-1.21-.18-1.18-.19-1.18-.19-1.15-.19-1.13-.2-1.1-.2-1.09-.21-1.07-.21-1.04-.21-1.02-.22-1-.22-.98-.24-.96-.23-.93-.25-.91-.25-.88-.26-.86-.26-.84-.26-.81-.28-.79-.28-.76-.3-.74-.3-.72-.32-.69-.33-.67-.33-.64-.35-.61-.36-.59-.37-.57-.38-.54-.39-.52-.4-.49-.42-.46-.43-.45-.45-.41-.46-.4-.47-.36-.48-.35-.5-.32-.52-.3-.53-.26-.55-.26-.57-.23-.58-.2-.59-.18-.61-.15-.63-.14-.65-.12-.66-.09-.68-.06-.69-.05-.72-.03h-.73s-.75,0-.75,0l-.77.04-.78.05-.8.07-.83.09-.84.1-.86.13-.88.14-.89.16-.91.17-.93.19-.95.21-.97.22-.99.24-1,.26-1.02.26-1.04.28-1.06.29-1.07.3-1.09.32-1.11.33-1.12.35-1.15.35-1.16.36-1.18.37-1.18.37-1.21.39-1.22.4-1.24.41-1.25.41-1.27.42-1.29.43-1.29.44-1.31.44-1.32.45-1.33.46-1.35.46-1.37.46-1.37.46-1.39.46-1.39.47-1.4.47-1.41.47-1.42.47-1.43.47-1.44.48-1.44.48-1.46.48-1.46.47-1.47.48-1.48.48-1.48.48-1.49.47-1.49.48-1.49.47-1.49.47-1.49.47-1.49.47-1.49.46-1.49.47-1.49.46-1.5.46-1.49.46-1.49.46-1.49.46-1.49.45-1.48.45-1.48.45-1.48.44-1.47.43-1.46.44-1.45.42-1.45.43-1.44.42-1.42.42-1.42.41-1.4.41-1.4.4-1.39.4-1.38.4-1.36.39-1.35.39-1.34.39-1.32.38-1.3.38-1.29.38-1.28.37-1.26.37-1.24.37-1.22.37-1.21.37-1.18.36-1.18.36-1.15.36-1.13.36-1.11.36-1.09.36-1.07.36-1.05.36-1.03.36-1,.36-.98.36-.96.37-.93.36-.92.37-.88.37-.87.37-.84.37-.82.38-.78.38-.77.39-.74.39-.71.4-.69.4-.67.41-.64.42-.61.42-.58.43-.57.43-.54.45-.5.45-.48.46-.46.46-.43.47-.4.48-.37.49-.36.5-.32.51-.3.52-.26.53-.25.55-.22.56-.2.57-.16.57-.15.58-.12.6-.09.62-.06.62-.05.64-.02.66v.67s.04.68.04.68l.05.69.07.7.1.73.12.73.15.76.16.77.19.78.2.79.24.81.25.83.26.84.29.86.31.88.33.88.35.91.36.91.38.94.39.95.42.97.43.98.45,1,.46,1.01.47,1.03.49,1.04.5,1.06.52,1.08.53,1.08.55,1.1.56,1.12.57,1.13.57,1.15.59,1.16.59,1.18.61,1.18.62,1.2.62,1.21.63,1.23.65,1.23.65,1.25.65,1.27.67,1.28.67,1.28.67,1.29.67,1.3.68,1.32.68,1.32.68,1.33.69,1.34.68,1.35.7,1.36.69,1.37.69,1.37.7,1.38.7,1.39.69,1.39.7,1.39.69,1.4.7,1.39.69,1.4.7,1.4.69,1.41.68,1.4.69,1.41.68,1.4.68,1.41.68,1.4.67,1.41.67,1.4.67,1.39.67,1.4.67,1.39.66,1.39.65,1.39.65,1.38.65,1.38.64,1.37.63,1.36.63,1.35.63,1.34.61,1.33.62,1.32.6,1.31.61,1.3.59,1.29.59,1.28.58,1.27.58,1.25.58,1.23.57,1.22.57,1.21.56,1.19.56,1.18.56,1.16.55,1.14.55,1.12.54,1.11.54,1.08.53,1.07.53,1.04.53,1.03.52,1,.52.98.51.97.52.94.51.92.5.9.51.87.5.86.5.82.51.8.5.77.5.76.49.73.5.7.5.67.51.66.5.62.5.6.51.57.5.55.51.52.52.49.51.46.52.44.53.41.53.38.53.36.54.33.54.3.56.27.55.25.57.22.57.19.57.16.58.15.58.11.59.08.6.05.61.03h.62l.63-.02.64-.05.65-.07.66-.1.67-.13.67-.15.68-.18.7-.2.71-.23.71-.25.74-.28.74-.29.76-.33.77-.35.77-.36.78-.39.8-.41.82-.44.82-.46.85-.47.85-.49.87-.52.88-.53.89-.56.9-.57.92-.59.92-.6.95-.63.96-.64.97-.66.98-.67.99-.68,1.01-.7,1.02-.72,1.03-.73,1.04-.74,1.06-.76,1.07-.77,1.08-.77,1.08-.79,1.1-.8,1.12-.8,1.12-.82,1.14-.83,1.14-.84,1.16-.84,1.17-.85,1.18-.86,1.18-.87,1.19-.88,1.21-.88,1.2-.88,1.22-.88,1.23-.88,1.23-.89,1.25-.89,1.25-.9,1.25-.89,1.26-.9,1.27-.9,1.27-.89,1.28-.9,1.28-.9,1.29-.9,1.28-.9,1.29-.89,1.29-.9,1.29-.89,1.29-.88,1.29-.89,1.29-.88,1.29-.88,1.29-.88,1.29-.88,1.28-.88,1.29-.87,1.27-.86,1.28-.86,1.27-.85,1.26-.85,1.26-.84,1.24-.83,1.25-.83,1.23-.82,1.22-.81,1.21-.81,1.21-.8,1.19-.79,1.18-.78,1.18-.77,1.16-.77,1.15-.77,1.14-.77,1.12-.75,1.11-.75,1.09-.73,1.08-.74,1.07-.72,1.05-.71,1.03-.71,1.01-.7.99-.69.98-.69.96-.68.94-.67.92-.67.89-.67.88-.66.85-.65.84-.65.81-.64.79-.63.77-.63.75-.63.72-.62.69-.61.67-.61.65-.6.62-.6.6-.6.57-.59.55-.59.52-.59.5-.59.46-.58.44-.58.41-.58.39-.58.36-.57.33-.58.31-.57.27-.58.25-.58.23-.57.19-.58.16-.58.14-.58.11-.59.07-.59.05-.59.03-.59v-.6s-.04-.6-.04-.6l-.05-.61-.09-.61-.11-.61-.15-.62-.16-.63-.2-.63-.22-.64-.26-.65-.27-.65-.3-.67-.33-.66-.36-.67-.37-.68-.41-.68-.43-.69-.46-.7-.47-.71-.5-.72-.53-.73-.55-.74-.57-.75-.6-.76-.61-.77-.64-.77-.66-.78-.68-.79-.69-.81-.72-.81-.74-.83-.76-.83-.77-.85-.79-.86-.81-.87-.83-.88-.84-.88-.86-.9-.88-.9-.89-.92-.9-.93-.92-.94-.93-.95-.94-.96-.96-.97-.97-.98-.98-.98-.99-.99-.99-1.01-1.01-1.01-1.01-1.02-1.03-1.03-1.03-1.04-1.04-1.05-1.05-1.06-1.05-1.07-1.06-1.07-1.07-1.08-1.07-1.08-1.07-1.08-1.08-1.1-1.08-1.1-1.08-1.1-1.08-1.11-1.08-1.12-1.08-1.12-1.08-1.12-1.08-1.13-1.08-1.13-1.08-1.14-1.08-1.14-1.08-1.13-1.08-1.14-1.08-1.14-1.07-1.14-1.07-1.15-1.07-1.13-1.06-1.14-1.06-1.14-1.05-1.13-1.05-1.13-1.04-1.13-1.03-1.12-1.03-1.12-1.02-1.11-1.01-1.11-1-1.09-1-1.1-.98-1.08-.98-1.08-.98-1.07-.97-1.07-.97-1.05-.95-1.05-.94-1.03-.93-1.02-.93-1.01-.91-1-.9-.98-.89-.97-.89-.97-.88-.94-.87-.93-.86-.91-.85-.9-.84-.88-.83-.87-.82-.85-.81-.83-.8-.81-.79-.78-.78-.77-.77-.75-.77-.73-.76-.71-.75-.69-.74-.67-.73-.65-.72-.62-.72-.6-.7-.57-.7-.56-.68-.52-.68-.51-.68-.47-.67-.46-.67-.43-.66-.4-.65-.38-.65-.35-.64-.33-.63-.3-.63-.26-.63-.25-.62-.22-.61-.19-.61-.15-.61-.14-.61-.11-.6-.08-.59-.05-.6-.03h-.59s-.6.05-.6.05l-.59.05-.59.09-.58.12-.59.15-.59.17-.59.2-.59.23-.59.26-.59.28-.6.31-.59.34-.6.37-.61.39-.6.42-.61.45-.61.47-.62.5-.62.52-.63.56-.63.57-.63.6-.65.62-.64.66-.66.67-.66.69-.67.72-.67.75-.67.77-.68.78-.68.81-.7.83-.7.85-.71.88-.71.89-.73.9-.73.93-.74.95-.75.97-.76.98-.77,1-.77,1.01-.78,1.03-.78,1.05-.79,1.06-.8,1.08-.81,1.09-.82,1.1-.83,1.11-.83,1.12-.84,1.14-.86,1.15-.86,1.16-.86,1.17-.88,1.18-.88,1.18-.88,1.19-.89,1.19-.89,1.21-.9,1.21-.91,1.21-.92,1.23-.92,1.22-.92,1.23-.93,1.24-.94,1.23-.94,1.24-.95,1.25-.95,1.24-.95,1.24-.96,1.24-.96,1.25-.96,1.24-.96,1.24-.97,1.24-.97,1.23-.96,1.23-.97,1.23-.97,1.22-.97,1.22-.97,1.22-.96,1.2-.96,1.21-.96,1.19-.96,1.19-.95,1.18-.95,1.18-.95,1.18-.94,1.16-.93,1.16-.93,1.15-.91,1.13-.92,1.13-.9,1.12-.89,1.1-.89,1.1-.88,1.08-.87,1.08-.87,1.07-.85,1.06-.84,1.04-.83,1.04-.81,1.02-.8,1.01-.79,1-.77.98-.76.98-.75.97-.73.96-.71.94-.7.93-.68.91-.67.91-.65.89-.63.88-.6.88-.59.86-.57.84-.55.84-.53.82-.51.81-.49.79-.46.78-.45.78-.42.76-.39.76-.38.75-.35.73-.33.72-.3.71-.28.7-.26.69-.23.68-.2.67-.17.67-.15.65-.13.65-.09.64-.07.64-.05.62-.02.61v.61s.05.6.05.6l.06.59.09.59.12.58.15.57.17.57.2.57.23.57.26.56.28.56.32.56.34.55.36.55.39.54.43.55.45.54.47.54.5.53.54.54.56.54.58.53.6.54.64.54.66.53.69.54.71.54.73.54.77.55.78.54.81.55.83.55.86.56.88.56.9.56.92.56.95.57.97.57.98.57,1,.57,1.03.58,1.05.58,1.06.59,1.08.6,1.1.6,1.11.6,1.14.62,1.15.61,1.17.63,1.18.63,1.19.64,1.21.64,1.22.65,1.24.66,1.25.66,1.26.67,1.28.67,1.29.67,1.29.68,1.3.68,1.31.69,1.32.7,1.32.7,1.34.71,1.34.71,1.35.72,1.35.72,1.36.73,1.36.74,1.37.74,1.37.74,1.37.75,1.37.75,1.38.75,1.37.76,1.38.76,1.38.76,1.37.77,1.37.77,1.37.77,1.37.77,1.36.77,1.36.77,1.36.77,1.34.77,1.35.77,1.33.77,1.33.77,1.33.77,1.31.76,1.31.76,1.3.76,1.29.76,1.29.75,1.28.74,1.27.74,1.25.74,1.25.72,1.23.72,1.22.72,1.21.7,1.2.7,1.18.69,1.18.67,1.17.67,1.15.67,1.14.65,1.12.65,1.11.63,1.09.62,1.08.6,1.07.59,1.06.58,1.04.57,1.02.56,1.01.54,1,.52.98.51.97.48.95.47.94.46.93.45.91.42.89.4.88.38.87.36.85.35.84.32.82.31.81.28.79.26.77.25.77.22.76.19.74.17.72.15.71.13.7.1.68.08.67.05.66.03h.65s.64-.02.64-.02l.62-.05.62-.06.6-.1.59-.12.57-.15.57-.17.56-.2.56-.23.54-.26.53-.28.53-.3.51-.34.51-.36.49-.38.49-.42.49-.44.47-.46.47-.5.46-.52.46-.55.46-.57.45-.6.45-.62.44-.66.44-.67.44-.71.43-.73.43-.76.42-.77.43-.81.42-.83.42-.85.41-.88.42-.9.41-.92.42-.95.42-.98.41-.99.42-1.01.41-1.04.42-1.06.42-1.08.42-1.1.42-1.12.43-1.14.42-1.16.43-1.18.44-1.19.43-1.2.44-1.23.44-1.25.45-1.26.45-1.28.45-1.29.46-1.3.46-1.32.46-1.33.46-1.35.46-1.35.47-1.38.47-1.38.48-1.39.48-1.4.49-1.41.49-1.41.5-1.42.5-1.43.5-1.44.51-1.45.52-1.45.52-1.46.52-1.46.52-1.46.53-1.47.54-1.47.53-1.47.54-1.48.54-1.47.55-1.48.55-1.47.55-1.47.55-1.47.56-1.47.55-1.46.56-1.46.56-1.46.56-1.45.56-1.44.55-1.44.56-1.43.56-1.43.56-1.41.55-1.41.55-1.4.56-1.39.54-1.38.55-1.38.54-1.37.54-1.35.53-1.34.53-1.33.52-1.32.51-1.3.51-1.29.51-1.29.49-1.27.49-1.25.48-1.24.47-1.23.46-1.2.46-1.19.45-1.18.44-1.17.43-1.15.41-1.13.4-1.12.4-1.09.37-1.08.37-1.07.35-1.06.35-1.03.32-1.02.32-.99.29-.98.28-.97.26-.95.25-.93.24-.91.21-.9.2-.88.18-.86.15-.85.15-.83.12-.8.1-.79.08-.77.06-.77.05-.74.02-.72v-.71l-.03-.69-.04-.67-.07-.66-.09-.65-.11-.63-.14-.61-.15-.6-.19-.58-.2-.57-.24-.56-.26-.54-.27-.52-.31-.52-.33-.49-.36-.48-.37-.47-.4-.46-.44-.45-.45-.44-.48-.42-.51-.42-.53-.4-.56-.39-.58-.38-.6-.37-.64-.36-.66-.36-.68-.35-.7-.34-.74-.33-.76-.33-.78-.31-.8-.31-.83-.3-.86-.3-.88-.28-.9-.29-.93-.27-.95-.28-.98-.26-.99-.27-1.02-.26-1.04-.26-1.07-.26-1.08-.26-1.1-.26-1.13-.25-1.14-.26-1.17-.25-1.19-.25-1.2-.25-1.22-.25-1.25-.25-1.26-.25-1.28-.24-1.29-.25-1.31-.25-1.32-.26-1.35-.25-1.35-.25-1.38-.26-1.39-.26-1.39-.26-1.41-.26-1.42-.26-1.43-.26-1.45-.26-1.46-.27-1.46-.26-1.48-.27-1.49-.28-1.49-.27-1.49-.28-1.5-.28-1.51-.29-1.52-.29-1.51-.29-1.53-.3-1.52-.29-1.53-.31-1.54-.3-1.53-.31-1.54-.31-1.53-.31-1.54-.32-1.53-.32-1.53-.32-1.54-.33-1.52-.32-1.53-.33-1.52-.33-1.51-.33-1.51-.33-1.51-.33-1.49-.34-1.49-.33-1.49-.34-1.48-.33-1.48-.33-1.46-.33-1.45-.34-1.45-.33-1.43-.32-1.41-.33-1.41-.32-1.39-.32-1.39-.32-1.38-.31-1.36-.31-1.34-.31-1.33-.3-1.31-.29-1.3-.29-1.29-.28-1.27-.27-1.26-.27-1.23-.26-1.22-.26-1.2-.26-1.18-.24-1.17-.23-1.16-.23-1.13-.21-1.11-.2-1.09-.2-1.08-.17-1.06-.17-1.04-.16-1.02-.15-1-.13-.98-.13-.97-.1-.94-.09-.92-.08-.9-.06-.88-.05-.87-.03-.84-.02h-.82l-.8.02-.78.03-.77.05-.74.06-.72.09-.71.1-.68.13-.66.15-.65.15-.63.19-.6.2-.59.22-.57.25-.56.26-.53.29-.52.31-.49.33-.48.36-.46.37-.45.39-.43.42-.41.45-.39.46-.38.49-.36.51-.36.53-.33.57-.32.57-.31.61-.29.63-.28.65-.26.68-.26.69-.24.73-.23.75-.22.77-.21.79-.19.82-.18.84-.17.87-.16.89-.15.9-.15.94-.14.95-.14.98-.12.99-.12,1.03-.1,1.04-.1,1.07-.1,1.08-.08,1.11-.08,1.12-.08,1.15-.07,1.17-.07,1.19-.06,1.2-.05,1.23-.06,1.24-.05,1.27-.05,1.28-.05,1.29-.05,1.32-.05,1.33-.05,1.34-.04,1.37-.05,1.38-.05,1.39-.04,1.4-.05,1.42-.04,1.43-.05,1.44-.04,1.46-.05,1.47-.05,1.48-.05,1.49-.05,1.5-.05,1.5-.05,1.51-.05,1.52-.05,1.53-.05,1.53-.05,1.54-.06,1.55-.06,1.55-.06,1.56-.06,1.56-.07,1.56-.06,1.57-.08,1.56-.07,1.57-.08,1.57-.08,1.57-.08,1.57-.08,1.56-.09,1.57-.09,1.55-.09,1.56-.1,1.55-.09,1.55-.1,1.54-.1,1.53-.1,1.53-.1,1.52-.11,1.51-.1,1.5-.11,1.49-.1,1.49-.11,1.48-.11,1.47-.1,1.46-.11,1.44-.1,1.43-.1,1.41-.11,1.41-.1,1.39-.09,1.38-.1,1.37-.09,1.35-.09,1.33-.08,1.31-.09,1.3-.07,1.28-.07,1.27-.07,1.25-.06,1.23-.06,1.21-.05,1.19-.05,1.18-.04,1.15-.04,1.14-.02,1.11-.02,1.09-.02,1.08v2.09s.03,1.01.03,1.01l.03.99.04.97.05.95.05.93.07.9.08.88.1.86.11.84.12.81.14.79.15.77.16.75.17.73.19.7.21.68.23.67.24.64.26.61.27.59.29.57.31.56.32.53.35.51.36.48.37.46.4.45.42.42.44.41.46.38.47.36.5.34.52.33.53.3.57.29.57.26.6.26.62.23.64.21.67.2.68.18.7.16.73.15.75.13.77.12.78.1.82.08.83.07.86.05.88.05.9.03.92.02h.94s.96,0,.96,0l.98-.02,1-.03,1.03-.05,1.04-.05,1.07-.06,1.08-.06,1.1-.08,1.13-.09,1.14-.09,1.17-.11,1.18-.11,1.2-.12,1.21-.12,1.24-.14,1.25-.14,1.28-.14,1.29-.15,1.3-.15,1.32-.15,1.33-.16,1.35-.15,1.37-.17,1.38-.16,1.39-.17,1.41-.17,1.41-.17,1.43-.18,1.45-.18,1.45-.17,1.47-.18,1.48-.18,1.49-.18,1.49-.18,1.5-.17,1.5-.18,1.52-.18,1.52-.17,1.53-.18,1.54-.17,1.54-.17,1.55-.17,1.55-.17,1.55-.16,1.56-.16,1.56-.16,1.56-.16,1.56-.16,1.57-.15,1.56-.15,1.56-.15,1.56-.15,1.55-.15,1.55-.15,1.55-.14,1.55-.14,1.53-.14,1.54-.14,1.52-.13,1.52-.14,1.51-.13,1.5-.12,1.49-.13,1.49-.12,1.48-.12,1.47-.12,1.46-.12,1.44-.11,1.43-.12,1.42-.11,1.4-.12,1.39-.11,1.39-.11,1.36-.11,1.35-.12,1.33-.11,1.32-.11,1.29-.12,1.29-.12,1.27-.12,1.25-.12,1.22-.12,1.21-.13,1.19-.13,1.17-.13,1.15-.14,1.13-.14,1.11-.15,1.08-.15,1.07-.15,1.05-.15,1.02-.16,1-.16.98-.18.95-.18.94-.19.91-.19.88-.21.87-.22.84-.22.81-.24.79-.24.77-.26.75-.26.72-.27.69-.29.67-.29.65-.31.62-.32.6-.33.57-.35.55-.36.53-.37.5-.38.47-.4.46-.41.43-.43.41-.45.38-.46.36-.47.33-.49.32-.51.29-.52.26-.54.25-.57.23-.57.2-.58.18-.61.15-.63.14-.65.12-.67.1-.68.07-.69.06-.72.04-.74.02-.76v-.77l-.02-.79-.04-.81-.05-.84-.06-.85-.09-.88-.1-.88-.12-.91-.14-.93-.15-.95-.16-.96-.17-.98-.19-1.01-.21-1.02-.22-1.04-.23-1.06-.25-1.08-.26-1.09-.26-1.11-.28-1.13-.28-1.15-.3-1.17-.3-1.18-.32-1.2-.32-1.21-.34-1.23-.34-1.25-.35-1.26-.35-1.29-.36-1.29-.36-1.3-.36-1.32-.38-1.34-.37-1.34-.38-1.37-.39-1.38-.39-1.39-.39-1.39-.4-1.41-.4-1.41-.4-1.43-.4-1.44-.41-1.45-.4-1.46-.41-1.46-.4-1.48-.41-1.48-.41-1.49-.4-1.49-.41-1.49-.4-1.5-.4-1.5-.4-1.51-.4-1.51-.4-1.51-.39-1.52-.4-1.51-.39-1.52-.38-1.51-.39-1.52-.38-1.51-.38-1.52-.37-1.5-.37-1.51-.37-1.5-.36-1.5-.37-1.49-.36-1.49-.36-1.48-.36-1.48-.35-1.48-.35-1.46-.35-1.45-.35-1.45-.34-1.43-.34-1.42-.33-1.41-.33-1.4-.33-1.39-.33-1.38-.32-1.36-.32-1.35-.32-1.34-.32-1.31-.31-1.3-.31-1.29-.31-1.28-.31-1.25-.31-1.24-.31-1.21-.3-1.2-.31-1.18-.31-1.17-.3-1.14-.31-1.12-.31-1.09-.3-1.08-.32-1.06-.31-1.04-.31-1.01-.32-.99-.32-.97-.32-.95-.33-.92-.33-.89-.33-.88-.34-.85-.35-.83-.35-.79-.36-.77-.36-.76-.36-.72-.37-.7-.37-.67-.38-.65-.39-.63-.4-.59-.41-.57-.42-.55-.42-.52-.44-.49-.45-.46-.46-.45-.46-.41-.47-.39-.48-.36-.5-.34-.51-.32-.52-.28-.54-.26-.55-.24-.56-.21-.57-.19-.58-.16-.6-.14-.61-.11-.63-.09-.65-.06-.66-.05-.67-.02h-.69l-.69.03-.72.05-.73.07-.75.09-.77.12-.78.13-.79.15-.81.18-.83.19-.85.22-.86.23-.88.26-.89.27-.91.28-.93.31-.95.32-.96.35-.98.36-.99.36-1.01.39-1.02.4-1.04.41-1.06.44-1.08.44-1.08.46-1.11.46-1.12.48-1.13.49-1.15.5-1.17.51-1.18.52-1.19.54-1.21.54-1.22.55-1.23.57-1.25.57-1.27.57-1.28.58-1.29.58-1.29.59-1.31.59-1.31.6-1.33.61-1.34.6-1.36.62-1.36.61-1.37.62-1.38.62-1.39.63-1.39.62-1.39.63-1.41.63-1.41.63-1.41.63-1.42.62-1.43.63-1.43.63-1.43.62-1.44.63-1.44.62-1.44.62-1.44.62-1.44.61-1.44.62-1.45.6-1.44.61-1.43.6-1.44.6-1.43.59-1.43.59-1.42.59-1.42.58-1.41.57-1.4.58-1.4.57-1.39.57-1.39.57-1.38.56-1.37.56-1.36.55-1.34.55-1.34.54-1.32.53-1.31.53-1.3.53-1.29.52-1.28.52-1.26.51-1.24.51-1.23.5-1.21.5-1.19.49-1.18.49-1.16.49-1.14.48-1.12.48-1.1.47-1.08.48-1.07.46-1.05.47-1.02.47-1,.46-.98.46-.96.46-.94.46-.91.46-.88.46-.87.46-.85.46-.81.46-.79.46-.77.46-.75.46-.71.46-.69.46-.67.47-.64.46-.62.48-.58.47-.57.48-.53.48-.51.49-.48.49-.45.5-.43.5-.4.51-.37.51-.35.53-.32.53-.29.53-.26.55-.23.55-.22.56-.18.57-.15.57-.13.58-.1.59-.08.6-.05.61-.03.62v.63s.04.65.04.65l.05.66.08.67.1.67.13.68.15.7.17.71.2.72.23.74.25.75.27.77.29.77.31.79.34.8.36.81.37.83.4.84.42.85.45.88.46.88.47.89.5.91.51.92.54.94.55.95.57.97.58.98.59.98.62,1.01.62,1.01.65,1.04.66,1.04.67,1.06.68,1.08.69,1.08.7,1.09.71,1.11.73,1.12.74,1.14.75,1.15.76,1.16.76,1.17.77,1.18.78,1.19.78,1.2.79,1.21.8,1.22.8,1.23.81,1.24.81,1.25.82,1.27.82,1.26.83,1.28.82,1.29.84,1.29.83,1.29.83,1.3.84,1.3.84,1.31.83,1.31.84,1.32.84,1.32.83,1.32.84,1.33.83,1.33.83,1.33.82,1.33.83,1.33.82,1.33.82,1.33.81,1.33.81,1.33.8,1.33.81,1.32.79,1.32.79,1.31.78,1.31.78,1.3.78,1.29.77,1.29.77,1.29.77,1.28.76,1.28.75,1.26.74,1.25.74,1.24.73,1.23.72,1.22.72,1.2.71,1.19.7,1.19.7,1.17.69,1.16.68,1.14.67,1.12.67,1.11.67,1.08.66,1.08.66,1.06.65,1.05.64,1.02.64,1,.63.98.63.96.62.95.61.92.61.9.6.88.6.86.59.84.59.81.58.79.58.77.58.74.57.72.57.69.57.67.57.64.57.62.57.59.56.57.57.54.57.51.56.49.57.46.56.43.57.41.56.37.57.35.57.33.57.29.57.26.57.24.57.22.57.18.57.15.58.13.59.1.59.07.59.04.6.02h.6s.61-.05.61-.05l.62-.07.62-.09.64-.12.63-.15.65-.17.66-.2.66-.23.67-.26.67-.27.68-.31.69-.33.7-.35.71-.38.72-.4.72-.43.74-.45.76-.47.76-.5.77-.52.78-.54.78-.57.8-.58.81-.6.82-.63.83-.65.85-.66.86-.68.86-.71.88-.72.88-.74.9-.75.91-.77.92-.78.93-.81.95-.81.95-.84.97-.85.98-.86.99-.88.99-.88,1.01-.9,1.01-.9,1.03-.92,1.04-.93,1.05-.95,1.06-.95,1.07-.96,1.08-.97,1.08-.98,1.09-.98,1.1-.99,1.11-.99,1.11-.99,1.13-1,1.13-1.01,1.14-1.01,1.15-1.01,1.15-1.02,1.16-1.02,1.17-1.02,1.17-1.03,1.18-1.02,1.18-1.03,1.18-1.02,1.19-1.03,1.18-1.02,1.19-1.02,1.19-1.02,1.19-1.02,1.19-1.02,1.19-1.01,1.18-1.01,1.19-1,1.19-1,1.18-1,1.19-.99,1.18-.99,1.18-.98,1.18-.98,1.18-.98,1.17-.97,1.16-.96,1.16-.95,1.15-.95,1.14-.94,1.14-.94,1.12-.92,1.12-.92,1.1-.9,1.09-.9,1.09-.89,1.08-.88,1.06-.88,1.05-.87,1.04-.87,1.03-.85,1.01-.84.99-.84.98-.82.96-.82.96-.8.93-.8.91-.79.9-.77.88-.77.87-.77.84-.76.82-.75.8-.74.78-.74.76-.72.75-.72.71-.7.69-.7.67-.69.65-.69.63-.67.6-.67.57-.67.56-.67.53-.66.5-.65.47-.64.46-.64.43-.64.39-.63.37-.62.35-.62.32-.62.29-.61.27-.61.24-.61.21-.6.18-.6.15-.6.13-.6.1-.59.07-.59.04-.6.02-.59"/>
  </g>
</svg>