<?xml version="1.0" encoding="UTF-8"?>
<svg id="Layer_2" data-name="Layer 2" xmlns="http://www.w3.org/2000/svg" viewBox="0 0 215.4 216.19">
  <defs>
    <style>
      .cls-1 {
        fill: none;
        stroke: #3f28b2;
        stroke-miterlimit: 10;
        stroke-width: .06px;
      }
    </style>
  </defs>
  <g id="Layer_1-2" data-name="Layer 1">
    <path class="cls-1" d="M215.28,108.09l-.15,2.19-.47,2.19-.79,2.18-1.08,2.18-1.4,2.19-1.7,2.17-2,2.18-2.27,2.16-2.57,2.17-2.84,2.14-3.11,2.13-3.36,2.13-3.59,2.11-3.84,2.09-4.05,2.09-4.25,2.05-4.45,2.03-4.63,2-4.79,1.98-4.95,1.94-5.08,1.9-5.18,1.86-5.3,1.83-5.37,1.77-5.44,1.72-5.5,1.66-5.52,1.59-5.55,1.53-5.54,1.46-5.52,1.38-5.49,1.31-5.44,1.21-5.37,1.12-5.3,1.02-5.18.93-5.09.81-4.95.69-4.82.59-4.65.46-4.49.33-4.3.2-4.12.06-3.91-.08-3.7-.22-3.48-.38-3.25-.53-3.02-.68-2.77-.85-2.51-1-2.26-1.17-2-1.33-1.74-1.48-1.47-1.66-1.21-1.83-.93-2-.68-2.16-.4-2.31-.15-2.49.12-2.63.38-2.79.62-2.95.87-3.07,1.12-3.23,1.35-3.36,1.58-3.49,1.8-3.62,2-3.72,2.21-3.83,2.41-3.92,2.59-4.02,2.77-4.09,2.92-4.16,3.09-4.22,3.22-4.26,3.35-4.3,3.48-4.32,3.57-4.34,3.66-4.34,3.75-4.31,3.82-4.3,3.88-4.25,3.92-4.21,3.95-4.13,3.98-4.06,3.98-3.97,3.99-3.86,3.97-3.75,3.95-3.62,3.92-3.48,3.88-3.32,3.83-3.16,3.77-2.97,3.69-2.79,3.62-2.58,3.53-2.38,3.44-2.16,3.35-1.92,3.23-1.68,3.12-1.44,3-1.19,2.89-.93,2.76-.66,2.64-.39,2.5-.12,2.36.15,2.23.44,2.09.72,1.96,1,1.8,1.27,1.67,1.57,1.52,1.84,1.39,2.11,1.25,2.38,1.11,2.64.98,2.91.85,3.16.71,3.39.58,3.64.46,3.86.33,4.08.22,4.28.09,4.48v4.65s-.14,4.83-.14,4.83l-.22,4.98-.33,5.11-.42,5.24-.52,5.35-.61,5.44-.69,5.52-.78,5.58-.86,5.62-.93,5.65-1.01,5.67-1.07,5.65-1.13,5.62-1.2,5.6-1.26,5.52-1.32,5.44-1.37,5.36-1.43,5.24-1.46,5.11-1.52,4.98-1.57,4.82-1.6,4.64-1.65,4.45-1.68,4.25-1.73,4.04-1.76,3.8-1.8,3.57-1.84,3.32-1.87,3.06-1.91,2.78-1.94,2.51-1.97,2.23-2,1.93-2.05,1.63-2.06,1.33-2.11,1.01-2.13.72-2.16.39-2.19.09-2.21-.24-2.25-.53-2.27-.85-2.3-1.15-2.32-1.46-2.34-1.74-2.36-2.04-2.39-2.32-2.39-2.59-2.41-2.86-2.43-3.12-2.43-3.36-2.44-3.59-2.44-3.82-2.44-4.03-2.44-4.22-2.43-4.41-2.4-4.57-2.39-4.72-2.37-4.87-2.33-4.98-2.31-5.09-2.26-5.18-2.23-5.25-2.16-5.31-2.11-5.35-2.05-5.38-1.98-5.38-1.9-5.37-1.81-5.36-1.72-5.31-1.63-5.25-1.52-5.18-1.41-5.1-1.3-4.99-1.17-4.88-1.05-4.76-.9-4.61-.77-4.46-.61-4.29-.46-4.11-.31-3.93-.13-3.73.02-3.52.21-3.31.38-3.09.55-2.86.75-2.63.92-2.39,1.12-2.14,1.31-1.91,1.5-1.65,1.68-1.4,1.87-1.15,2.06-.9,2.24-.66,2.44-.4,2.6-.15,2.79.08,2.97.32,3.13.55,3.29.79,3.45,1.01,3.6,1.23,3.73,1.43,3.88,1.64,4.01,1.83,4.11,2.01,4.23,2.19,4.31,2.36,4.41,2.51,4.48,2.66,4.54,2.8,4.58,2.92,4.63,3.04,4.64,3.15,4.65,3.24,4.64,3.32,4.64,3.39,4.59,3.46,4.56,3.5,4.49,3.56,4.43,3.58,4.32,3.59,4.23,3.62,4.12,3.62,3.98,3.6,3.84,3.58,3.69,3.56,3.51,3.52,3.33,3.48,3.13,3.44,2.93,3.37,2.72,3.3,2.49,3.24,2.26,3.16,2,3.07,1.76,2.99,1.5,2.9,1.23,2.79.94,2.7.67,2.6.39,2.49.09,2.38-.19,2.27-.49,2.16-.78,2.05-1.06,1.93-1.37,1.81-1.65,1.71-1.94,1.59-2.21,1.47-2.5,1.37-2.77,1.25-3.03,1.14-3.3,1.04-3.53.93-3.77.82-4.01.72-4.22.62-4.42.52-4.62.44-4.79.33-4.96.25-5.1.15-5.24.07-5.37-.02-5.47-.09-5.55-.16-5.62-.26-5.68-.32-5.71-.4-5.73-.47-5.73-.54-5.71-.6-5.68-.67-5.63-.74-5.56-.79-5.47-.87-5.37-.92-5.24-.98-5.11-1.05-4.96-1.11-4.79-1.15-4.61-1.23-4.42-1.28-4.21-1.33-3.99-1.4-3.75-1.46-3.51-1.51-3.25-1.58-2.98-1.64-2.72-1.7-2.43-1.74-2.14-1.81-1.85-1.87-1.54-1.93-1.25-1.99-.94-2.05-.64-2.11-.33-2.17v-2.21s.28-2.29.28-2.29l.59-2.33.9-2.39,1.2-2.44,1.48-2.49,1.78-2.53,2.06-2.58,2.33-2.63,2.59-2.66,2.84-2.7,3.1-2.72,3.32-2.76,3.56-2.78,3.76-2.8,3.95-2.8,4.15-2.83,4.31-2.82,4.46-2.82,4.61-2.82,4.72-2.79,4.84-2.76,4.95-2.74,5.02-2.7,5.08-2.65,5.14-2.6,5.16-2.54,5.17-2.46,5.18-2.4,5.17-2.31,5.14-2.21,5.09-2.12,5.03-2,4.95-1.9,4.88-1.77,4.76-1.63,4.65-1.5,4.52-1.34,4.39-1.19,4.23-1.04,4.08-.86,3.91-.68,3.72-.51,3.55-.32,3.33-.12,3.15.07,2.92.26,2.71.47,2.5.68,2.27.88,2.04,1.1,1.81,1.32,1.58,1.52,1.34,1.73,1.12,1.94.88,2.14.66,2.36.42,2.57.2,2.76v2.96s-.26,3.15-.26,3.15l-.45,3.33-.66,3.51-.86,3.68-1.06,3.83-1.25,3.99-1.43,4.13-1.6,4.28-1.78,4.39-1.92,4.5-2.09,4.61-2.21,4.69-2.36,4.77-2.47,4.82-2.58,4.88-2.7,4.91-2.78,4.94-2.86,4.94-2.95,4.92-3.02,4.9-3.06,4.87-3.12,4.82-3.16,4.74-3.18,4.66-3.2,4.56-3.22,4.44-3.22,4.31-3.22,4.18-3.2,4.02-3.19,3.84-3.16,3.66-3.13,3.48-3.09,3.25-3.05,3.04-2.99,2.82-2.95,2.57-2.89,2.31-2.83,2.06-2.74,1.78-2.69,1.52-2.62,1.23-2.53.94-2.45.65-2.37.35-2.3.06-2.2-.25-2.12-.55-2.03-.85-1.96-1.14-1.85-1.46-1.78-1.74-1.68-2.04-1.6-2.32-1.51-2.6-1.44-2.89-1.34-3.15-1.26-3.4-1.18-3.64-1.1-3.9-1.01-4.11-.94-4.32-.86-4.54-.79-4.72-.71-4.89-.64-5.05-.57-5.19-.48-5.32-.42-5.44-.34-5.54-.28-5.61-.2-5.68-.14-5.71-.07-5.75v-5.76l.06-5.74.14-5.73.2-5.68.28-5.62.34-5.54.41-5.44.48-5.32.57-5.21.62-5.07.71-4.9.79-4.72.85-4.54.94-4.34,1.01-4.13,1.1-3.9,1.18-3.65,1.25-3.42,1.34-3.16,1.43-2.9,1.51-2.62,1.6-2.33,1.68-2.05,1.77-1.77,1.85-1.46,1.94-1.17,2.04-.86,2.11-.57,2.2-.26,2.29.05,2.37.34,2.45.64,2.53.93,2.6,1.21,2.69,1.51,2.74,1.77,2.82,2.05,2.89,2.3,2.95,2.56,2.99,2.8,3.04,3.03,3.1,3.25,3.12,3.46,3.17,3.65,3.18,3.84,3.2,4.01,3.22,4.17,3.22,4.31,3.22,4.44,3.2,4.55,3.19,4.65,3.16,4.75,3.11,4.81,3.07,4.87,3.02,4.9,2.95,4.92,2.87,4.94,2.78,4.94,2.7,4.91,2.59,4.88,2.47,4.83,2.37,4.77,2.21,4.69,2.09,4.61,1.94,4.51,1.77,4.39,1.61,4.28,1.44,4.15,1.26,3.99,1.06,3.84.87,3.69.67,3.52.46,3.33.25,3.16.04,2.96-.2,2.77-.41,2.58-.65,2.37-.87,2.16-1.11,1.96-1.34,1.73-1.57,1.53-1.8,1.32-2.03,1.11-2.26.9-2.49.68-2.7.48-2.92.28-3.13.07-3.33-.12-3.52-.31-3.72-.49-3.9-.68-4.06-.85-4.23-1.02-4.38-1.18-4.52-1.34-4.64-1.48-4.77-1.63-4.85-1.76-4.96-1.88-5.03-2.01-5.09-2.11-5.12-2.21-5.17-2.31-5.17-2.39-5.18-2.46-5.16-2.54-5.14-2.59-5.09-2.65-5.02-2.7-4.94-2.73-4.85-2.77-4.74-2.79-4.62-2.8-4.46-2.82-4.32-2.83-4.15-2.82-3.96-2.82-3.77-2.79-3.56-2.78-3.33-2.76-3.11-2.73-2.85-2.7-2.6-2.66-2.34-2.63-2.07-2.58-1.79-2.54-1.5-2.49-1.21-2.44-.91-2.39-.61-2.34-.29-2.27v-2.23l.31-2.17.62-2.11.93-2.06,1.23-1.99,1.54-1.93,1.84-1.87,2.13-1.81,2.41-1.76,2.7-1.7,2.98-1.64,3.24-1.58,3.5-1.52,3.73-1.46,3.98-1.39,4.19-1.34,4.41-1.28,4.61-1.23,4.78-1.17,4.95-1.11,5.11-1.05,5.24-.99,5.36-.92,5.47-.86,5.55-.81,5.63-.73,5.68-.68,5.7-.6,5.74-.54,5.73-.47,5.71-.4,5.68-.33,5.63-.26,5.55-.18,5.47-.09,5.37-.02,5.25.07,5.11.15,4.96.24,4.81.33,4.62.42,4.43.52,4.23.61,4.02.72,3.78.82,3.55.92,3.3,1.04,3.04,1.13,2.78,1.25,2.51,1.37,2.24,1.47,1.94,1.58,1.66,1.7,1.38,1.81,1.08,1.93.79,2.04.49,2.16.21,2.26-.08,2.38-.38,2.49-.66,2.59-.93,2.7-1.21,2.79-1.48,2.89-1.74,2.99-1.99,3.06-2.25,3.16-2.47,3.23-2.71,3.31-2.93,3.37-3.12,3.43-3.32,3.48-3.51,3.52-3.68,3.56-3.84,3.58-3.98,3.6-4.1,3.62-4.23,3.6-4.32,3.6-4.42,3.58-4.5,3.55-4.55,3.52-4.59,3.45-4.63,3.4-4.65,3.32-4.65,3.24-4.64,3.16-4.63,3.04-4.58,2.93-4.54,2.8-4.48,2.66-4.41,2.52-4.32,2.37-4.23,2.19-4.12,2.03-4.01,1.84-3.89,1.64-3.75,1.45-3.6,1.23-3.45,1.02-3.31.79-3.13.57-2.97.33-2.8.11-2.62-.15-2.44-.39-2.26-.65-2.06-.88-1.88-1.14-1.68-1.39-1.51-1.65-1.31-1.88-1.13-2.14-.93-2.37-.75-2.63-.57-2.85-.39-3.07-.21-3.31-.05-3.51.13-3.72.29-3.92.46-4.1.6-4.29.77-4.45.9-4.61,1.04-4.75,1.17-4.88,1.28-4.99,1.41-5.09,1.51-5.18,1.63-5.25,1.72-5.31,1.8-5.35,1.9-5.37,1.98-5.38,2.04-5.38,2.11-5.35,2.16-5.31,2.23-5.27,2.26-5.18,2.3-5.09,2.33-4.99,2.37-4.87,2.39-4.72,2.4-4.58,2.43-4.42,2.44-4.23,2.44-4.03,2.44-3.83,2.44-3.6,2.43-3.37,2.43-3.13,2.41-2.86,2.4-2.62,2.38-2.33,2.37-2.05,2.34-1.76,2.32-1.47,2.3-1.17,2.27-.86,2.25-.55,2.21-.24,2.19.07,2.17.38,2.13.7,2.1,1.01,2.07,1.31,2.04,1.63,2,1.91,1.98,2.21,1.94,2.5,1.91,2.78,1.87,3.04,1.84,3.31,1.8,3.56,1.77,3.8,1.73,4.03,1.68,4.24,1.65,4.45,1.6,4.63,1.57,4.81,1.52,4.97,1.47,5.11,1.43,5.24,1.37,5.35,1.32,5.44,1.26,5.52,1.2,5.58,1.14,5.62,1.08,5.65,1,5.67.94,5.65.86,5.62.78,5.6.7,5.51.62,5.45.52,5.36.44,5.24.33,5.12.24,4.98.13,4.83v4.66s-.08,4.49-.08,4.49l-.21,4.29-.32,4.09-.46,3.86-.58,3.65-.71,3.4-.84,3.17-.97,2.91-1.11,2.66-1.24,2.39-1.38,2.12-1.52,1.85-1.66,1.57-1.8,1.3-1.94,1.01-2.09.73-2.21.45-2.36.16-2.5-.11-2.63-.38-2.74-.65-2.89-.92-2.99-1.18-3.12-1.43-3.23-1.68-3.33-1.91-3.44-2.14-3.52-2.37-3.62-2.57-3.7-2.78-3.76-2.97-3.83-3.15-3.86-3.31-3.92-3.48-3.95-3.6-3.98-3.75-3.98-3.85-3.98-3.97-3.98-4.05-3.96-4.13-3.91-4.21-3.89-4.25-3.82-4.3-3.75-4.31-3.68-4.34-3.57-4.34-3.48-4.32-3.36-4.3-3.23-4.26-3.09-4.23-2.93-4.16-2.77-4.1-2.6-4.01-2.41-3.93-2.23-3.83-2.01-3.73-1.81-3.6-1.59-3.5-1.35-3.37-1.13-3.23-.88-3.09-.64-2.95-.39-2.8-.13-2.64.14-2.49.39-2.32.67-2.17.93-1.99,1.19-1.84,1.46-1.67,1.73-1.5,1.99-1.34,2.25-1.17,2.51-1.01,2.76-.85,2.99-.7,3.24-.53,3.48-.39,3.69-.22,3.9-.09,4.11.06,4.3.19,4.48.33,4.65.46,4.81.58,4.95.7,5.08.8,5.18.92,5.29,1.02,5.37,1.12,5.43,1.2,5.49,1.31,5.52,1.38,5.55,1.45,5.55,1.53,5.52,1.59,5.49,1.66,5.45,1.72,5.38,1.77,5.29,1.81,5.2,1.86,5.09,1.9,4.95,1.94,4.79,1.97,4.64,2,4.46,2.04,4.26,2.05,4.06,2.07,3.84,2.1,3.6,2.11,3.37,2.12,3.12,2.13,2.85,2.16,2.58,2.16,2.3,2.16,2,2.18,1.71,2.17,1.41,2.18,1.11,2.19.79,2.18.48,2.19.18,2.19-.14,2.19-.46,2.18-.77,2.19-1.08,2.18-1.38,2.19-1.68,2.17-1.99,2.18-2.27,2.16-2.54,2.17-2.83,2.14-3.1,2.13-3.35,2.13-3.59,2.11-3.82,2.1-4.05,2.07-4.24,2.05-4.45,2.04-4.62,2-4.78,1.98-4.94,1.93-5.08,1.91-5.18,1.86-5.29,1.83-5.37,1.77-5.44,1.72-5.49,1.67-5.54,1.59-5.54,1.54-5.55,1.46-5.52,1.39-5.49,1.3-5.44,1.23-5.38,1.12-5.29,1.04-5.21.92-5.08.82-4.96.71-4.82.59-4.66.46-4.49.34-4.32.2-4.12.07-3.92-.08-3.71-.21-3.49-.37-3.26-.53-3.02-.67-2.78-.84-2.52-1-2.27-1.15-2.01-1.32-1.76-1.5-1.48-1.65-1.23-1.81-.94-1.99-.7-2.14-.41-2.31-.16-2.47.11-2.63.37-2.79.61-2.93.87-3.07,1.1-3.22,1.34-3.36,1.58-3.48,1.79-3.6,2-3.72,2.2-3.82,2.4-3.92,2.58-4.02,2.76-4.09,2.92-4.15,3.07-4.22,3.22-4.26,3.35-4.3,3.46-4.32,3.57-4.34,3.66-4.34,3.73-4.32,3.82-4.29,3.88-4.26,3.91-4.21,3.96-4.13,3.97-4.06,3.99-3.98,3.98-3.86,3.97-3.76,3.96-3.62,3.92-3.49,3.88-3.32,3.83-3.17,3.77-2.98,3.7-2.79,3.62-2.59,3.53-2.38,3.45-2.17,3.35-1.93,3.23-1.7,3.13-1.45,3.02-1.2,2.89-.94,2.77-.67,2.63-.4,2.51-.13,2.37.14,2.23.42,2.1.71,1.96.99,1.81,1.26,1.67,1.55,1.53,1.81,1.39,2.11,1.26,2.37,1.11,2.63.99,2.9.85,3.15.72,3.38.58,3.63.47,3.85.33,4.06.22,4.28.11,4.46v4.65s-.13,4.82-.13,4.82l-.22,4.97-.32,5.11-.42,5.23-.52,5.35-.61,5.44-.7,5.51-.77,5.58-.86,5.63-.93,5.64-1,5.67-1.07,5.65-1.13,5.63-1.2,5.58-1.25,5.52-1.32,5.45-1.37,5.36-1.41,5.25-1.47,5.12-1.51,4.98-1.57,4.82-1.6,4.65-1.65,4.46-1.68,4.26-1.72,4.04-1.77,3.82-1.79,3.58-1.84,3.33-1.87,3.07-1.91,2.79-1.93,2.53-1.98,2.23-2,1.94-2.04,1.65-2.07,1.34-2.1,1.02-2.13.73-2.16.4-2.19.11-2.21-.21-2.25-.53-2.26-.84-2.3-1.13-2.32-1.45-2.34-1.73-2.37-2.03-2.38-2.31-2.39-2.58-2.41-2.85-2.43-3.11-2.43-3.35-2.44-3.59-2.44-3.81-2.44-4.02-2.44-4.22-2.43-4.39-2.4-4.56-2.39-4.72-2.37-4.85-2.34-4.98-2.31-5.08-2.26-5.18-2.21-5.25-2.18-5.3-2.11-5.36-2.05-5.37-1.97-5.38-1.91-5.38-1.81-5.35-1.73-5.31-1.63-5.27-1.53-5.18-1.41-5.1-1.3-5.01-1.18-4.88-1.05-4.76-.91-4.63-.77-4.46-.62-4.3-.47-4.12-.31-3.93-.14-3.73.02-3.53.19-3.32.38-3.1.55-2.87.73-2.64.93-2.4,1.11-2.16,1.3-1.91,1.48-1.66,1.67-1.41,1.86-1.17,2.06-.92,2.24-.66,2.41-.41,2.6-.16,2.79.07,2.96.32,3.12.54,3.29.78,3.44,1,3.59,1.21,3.73,1.43,3.88,1.63,3.99,1.81,4.11,2,4.22,2.19,4.31,2.34,4.41,2.51,4.46,2.65,4.54,2.79,4.58,2.92,4.62,3.03,4.65,3.15,4.65,3.24,4.64,3.31,4.64,3.39,4.59,3.46,4.56,3.5,4.5,3.56,4.42,3.58,4.34,3.59,4.24,3.62,4.12,3.6,3.98,3.6,3.85,3.59,3.69,3.56,3.52,3.52,3.35,3.49,3.15,3.43,2.95,3.37,2.72,3.31,2.51,3.24,2.26,3.17,2.01,3.07,1.77,2.99,1.51,2.9,1.24,2.8.95,2.71.68,2.59.4,2.5.11,2.38-.18,2.29-.47,2.16-.77,2.05-1.06,1.94-1.35,1.83-1.64,1.71-1.92,1.59-2.21,1.48-2.47,1.37-2.76,1.26-3.03,1.14-3.27,1.04-3.52.94-3.77.82-3.99.73-4.21.62-4.42.53-4.61.42-4.78.34-4.95.25-5.1.15-5.24.08h-5.36s-5.45-.11-5.45-.11l-5.55-.18-5.62-.25-5.68-.32-5.71-.4-5.73-.46-5.73-.54-5.71-.6-5.68-.67-5.63-.73-5.56-.79-5.48-.86-5.37-.92-5.25-.99-5.11-1.04-4.97-1.11-4.81-1.15-4.62-1.23-4.42-1.27-4.22-1.33-3.99-1.4-3.77-1.45-3.51-1.52-3.26-1.57-3-1.64-2.72-1.68-2.44-1.76-2.16-1.8-1.86-1.87-1.57-1.93-1.26-1.99-.95-2.04-.65-2.11-.34-2.17-.02-2.21.27-2.27.59-2.33.88-2.39,1.18-2.44,1.47-2.49,1.77-2.53,2.05-2.58,2.31-2.62,2.59-2.66,2.84-2.7,3.07-2.72,3.32-2.76,3.53-2.78,3.75-2.8,3.95-2.8,4.13-2.82,4.3-2.83,4.46-2.82,4.59-2.8,4.74-2.79,4.83-2.77,4.94-2.74,5.02-2.7,5.08-2.65,5.14-2.6,5.16-2.54,5.17-2.47,5.18-2.4,5.17-2.31,5.14-2.23,5.09-2.12,5.03-2.01,4.96-1.9,4.88-1.77,4.77-1.65,4.65-1.5,4.54-1.35,4.39-1.19,4.24-1.04,4.09-.87,3.91-.7,3.73-.51,3.55-.33,3.35-.13,3.15.06,2.95.26,2.72.46,2.5.67,2.29.88,2.05,1.08,1.81,1.3,1.6,1.52,1.35,1.72,1.13,1.93.9,2.14.66,2.34.44,2.56.21,2.76v2.95s-.24,3.13-.24,3.13l-.45,3.32-.65,3.5-.86,3.68-1.05,3.83-1.24,3.98-1.43,4.13-1.59,4.26-1.77,4.38-1.92,4.5-2.07,4.61-2.21,4.68-2.34,4.77-2.46,4.82-2.58,4.88-2.69,4.91-2.78,4.94-2.87,4.94-2.93,4.92-3.02,4.9-3.06,4.87-3.11,4.82-3.16,4.75-3.18,4.66-3.2,4.56-3.22,4.45-3.22,4.32-3.22,4.17-3.2,4.03-3.19,3.85-3.16,3.68-3.13,3.48-3.1,3.27-3.05,3.04-2.99,2.83-2.96,2.58-2.89,2.32-2.82,2.07-2.76,1.79-2.69,1.53-2.62,1.24-2.53.95-2.46.66-2.38.38-2.29.06-2.21-.24-2.12-.53-2.04-.84-1.96-1.14-1.86-1.44-1.78-1.73-1.68-2.03-1.6-2.31-1.52-2.59-1.44-2.86-1.34-3.15-1.26-3.38-1.19-3.65-1.1-3.88-1.02-4.1-.94-4.32-.86-4.52-.79-4.71-.72-4.89-.64-5.04-.57-5.19-.49-5.31-.41-5.44-.35-5.52-.28-5.61-.21-5.68-.14-5.71-.07-5.75v-5.75l.06-5.75.13-5.73.2-5.68.27-5.62.34-5.54.41-5.45.48-5.34.57-5.21.62-5.07.71-4.91.78-4.74.85-4.55.93-4.35,1.01-4.13,1.1-3.91,1.17-3.66,1.26-3.43,1.33-3.17,1.43-2.91,1.51-2.63,1.59-2.34,1.67-2.06,1.77-1.78,1.85-1.47,1.94-1.18,2.03-.87,2.11-.58,2.2-.27,2.29.02,2.36.33,2.45.62,2.52.92,2.6,1.2,2.69,1.5,2.74,1.76,2.82,2.04,2.87,2.29,2.95,2.56,2.99,2.78,3.04,3.03,3.09,3.24,3.13,3.44,3.16,3.65,3.18,3.83,3.2,4.01,3.22,4.16,3.23,4.31,3.22,4.43,3.2,4.55,3.18,4.65,3.16,4.74,3.12,4.81,3.06,4.87,3.03,4.9,2.95,4.92,2.87,4.94,2.79,4.92,2.7,4.92,2.6,4.88,2.49,4.83,2.36,4.77,2.23,4.7,2.1,4.61,1.94,4.52,1.78,4.39,1.63,4.29,1.44,4.15,1.27,4.01,1.07,3.85.87,3.69.68,3.52.47,3.35.26,3.16.04,2.98-.18,2.78-.41,2.57-.64,2.38-.86,2.17-1.1,1.97-1.33,1.74-1.57,1.54-1.79,1.33-2.03,1.11-2.24.91-2.47.69-2.7.49-2.91.28-3.12.08-3.32-.11-3.52-.29-3.71-.49-3.89-.67-4.06-.84-4.22-1.01-4.38-1.18-4.51-1.33-4.64-1.48-4.76-1.63-4.85-1.76-4.95-1.87-5.03-2-5.09-2.11-5.12-2.2-5.17-2.31-5.17-2.39-5.18-2.46-5.16-2.53-5.14-2.59-5.09-2.65-5.03-2.7-4.94-2.73-4.85-2.77-4.75-2.79-4.62-2.8-4.48-2.82-4.32-2.82-4.16-2.83-3.97-2.8-3.77-2.8-3.57-2.78-3.35-2.76-3.12-2.73-2.86-2.7-2.62-2.67-2.36-2.62-2.09-2.59-1.79-2.54-1.52-2.49-1.23-2.45-.92-2.39-.62-2.33-.32-2.29v-2.23s.29-2.17.29-2.17l.6-2.12.92-2.05,1.21-2,1.53-1.93,1.83-1.87,2.11-1.81,2.41-1.77,2.69-1.7,2.96-1.64,3.23-1.58,3.49-1.52,3.73-1.46,3.96-1.4,4.19-1.34,4.39-1.3,4.59-1.23,4.78-1.17,4.95-1.11,5.1-1.05,5.23-.99,5.36-.93,5.47-.86,5.55-.81,5.62-.74,5.68-.67,5.7-.61,5.74-.54,5.73-.48,5.71-.4,5.68-.33,5.63-.26,5.56-.18,5.47-.11,5.37-.02,5.25.06,5.12.15,4.97.24,4.81.33,4.63.41,4.44.52,4.24.61,4.02.71,3.79.82,3.56.92,3.31,1.02,3.05,1.13,2.79,1.25,2.52,1.35,2.25,1.46,1.96,1.58,1.68,1.7,1.38,1.8,1.1,1.93.81,2.03.51,2.16.22,2.26-.07,2.37-.37,2.49-.65,2.58-.92,2.7-1.2,2.78-1.47,2.89-1.73,2.98-1.99,3.07-2.23,3.15-2.47,3.23-2.7,3.31-2.91,3.36-3.12,3.43-3.32,3.48-3.5,3.52-3.66,3.56-3.83,3.58-3.98,3.6-4.1,3.6-4.22,3.62-4.32,3.6-4.42,3.58-4.49,3.55-4.55,3.52-4.59,3.46-4.63,3.39-4.65,3.33-4.65,3.25-4.64,3.15-4.63,3.05-4.58,2.93-4.55,2.82-4.48,2.66-4.41,2.53-4.34,2.37-4.23,2.2-4.12,2.03-4.01,1.85-3.89,1.65-3.76,1.46-3.62,1.24-3.46,1.02-3.31.81-3.15.58-2.97.34-2.82.11-2.63-.14-2.44-.38-2.27-.64-2.07-.88-1.88-1.13-1.7-1.38-1.52-1.63-1.32-1.88-1.13-2.12-.94-2.37-.77-2.62-.58-2.84-.39-3.06-.22-3.3-.05-3.51.13-3.71.28-3.91.45-4.1.6-4.28.75-4.44.88-4.61,1.04-4.74,1.15-4.88,1.28-4.98,1.4-5.09,1.52-5.18,1.61-5.24,1.71-5.31,1.81-5.35,1.88-5.37,1.97-5.38,2.04-5.38,2.11-5.36,2.16-5.31,2.21-5.25,2.26-5.2,2.3-5.1,2.34-4.98,2.36-4.88,2.39-4.74,2.41-4.59,2.41-4.42,2.44-4.23,2.44-4.05,2.44-3.83,2.44-3.62,2.43-3.38,2.43-3.15,2.41-2.87,2.4-2.63,2.38-2.34,2.37-2.06,2.34-1.78,2.32-1.47,2.3-1.18,2.27-.87,2.25-.57,2.23-.26,2.19.06,2.17.37,2.13.68,2.1,1,2.07,1.3,2.05,1.6,2,1.91,1.98,2.19,1.94,2.49,1.91,2.77,1.87,3.04,1.84,3.29,1.81,3.56,1.77,3.78,1.72,4.03,1.7,4.23,1.65,4.44,1.61,4.63,1.57,4.79,1.52,4.96,1.47,5.11,1.43,5.23,1.37,5.35,1.32,5.44,1.27,5.51,1.2,5.58,1.14,5.63,1.08,5.64,1,5.67.94,5.65.87,5.63.78,5.58.71,5.52.62,5.45.52,5.36.44,5.25.34,5.12.24,4.99.13,4.83.02,4.68-.08,4.49-.21,4.3-.32,4.1-.45,3.88-.57,3.66-.71,3.42-.82,3.18-.97,2.92-1.1,2.67-1.24,2.4-1.38,2.13-1.52,1.86-1.65,1.58-1.79,1.31-1.94,1.02-2.07.74-2.21.46-2.34.18-2.49-.09-2.63-.37-2.74-.65-2.87-.9-2.99-1.17-3.11-1.43-3.23-1.66-3.33-1.9-3.43-2.14-3.52-2.36-3.62-2.56-3.69-2.77-3.76-2.97-3.82-3.13-3.88-3.31-3.92-3.45-3.95-3.62-3.97-3.73-3.98-3.85-3.99-3.96-3.97-4.05-3.96-4.13-3.92-4.21-3.88-4.24-3.83-4.3-3.75-4.31-3.68-4.34-3.58-4.34-3.48-4.32-3.37-4.31-3.23-4.26-3.09-4.22-2.95-4.17-2.78-4.1-2.62-4.02-2.41-3.93-2.24-3.83-2.03-3.73-1.83-3.62-1.59-3.5-1.38-3.37-1.13-3.24-.9-3.1-.65-2.96-.4-2.8-.14-2.64.13-2.5.38-2.33.66-2.17.92-2,1.18-1.85,1.45-1.67,1.72-1.51,1.98-1.34,2.24-1.18,2.5-1.02,2.74-.85,2.99-.71,3.23-.53,3.46-.39,3.68-.25,3.9-.09,4.1.06,4.29.18,4.48.33,4.64.45,4.79.57,4.94.7,5.08.8,5.18.92,5.28,1.01,5.37,1.11,5.43,1.21,5.49,1.3,5.52,1.37,5.55,1.46,5.54,1.52,5.54,1.59,5.49,1.66,5.45,1.71,5.38,1.77,5.3,1.81,5.2,1.86,5.09,1.9,4.96,1.94,4.81,1.97,4.64,2,4.46,2.03,4.28,2.05,4.08,2.07,3.85,2.1,3.62,2.11,3.38,2.12,3.13,2.13,2.86,2.16,2.59,2.16,2.31,2.16,2.01,2.18,1.72,2.17,1.43,2.18,1.12,2.19.81,2.18.49,2.19.19,2.19-.13,2.19-.45,2.18-.75,2.19-1.06,2.18-1.38,2.19-1.67,2.17-1.97,2.18-2.26,2.16-2.53,2.17-2.82,2.14-3.09,2.13-3.33,2.13-3.58,2.11-3.82,2.1-4.03,2.07-4.24,2.06-4.44,2.03-4.62,2.01-4.77,1.97-4.94,1.94-5.07,1.91-5.18,1.87-5.28,1.81-5.37,1.78-5.44,1.72-5.49,1.66-5.52,1.61-5.55,1.53-5.54,1.47-5.52,1.39-5.5,1.31-5.44,1.21-5.38,1.13-5.3,1.04-5.21.93-5.09.82-4.96.71-4.83.6-4.66.47-4.5.34-4.32.21-4.13.07-3.93-.07-3.71-.21-3.5-.37-3.27-.52-3.03-.66-2.79-.84-2.54-.99-2.27-1.14-2.03-1.32-1.77-1.48-1.5-1.65-1.24-1.8-.95-1.98-.71-2.14-.42-2.31-.16-2.46.09-2.62.34-2.78.61-2.92.85-3.07,1.1-3.22,1.33-3.35,1.55-3.48,1.79-3.6,1.99-3.71,2.19-3.82,2.39-3.92,2.58-4.01,2.76-4.08,2.91-4.16,3.07-4.22,3.2-4.25,3.33-4.3,3.46-4.32,3.56-4.34,3.66-4.34,3.73-4.32,3.82-4.29,3.86-4.26,3.92-4.21,3.95-4.15,3.97-4.06,3.99-3.98,3.98-3.88,3.98-3.76,3.95-3.63,3.92-3.49,3.89-3.33,3.83-3.17,3.77-2.99,3.7-2.8,3.63-2.6,3.53-2.39,3.45-2.17,3.35-1.94,3.25-1.71,3.13-1.46,3.02-1.21,2.89-.95,2.78-.68,2.64-.41,2.51-.14,2.37.13,2.24.41,2.1.7,1.97.98,1.81,1.25,1.68,1.53,1.53,1.81,1.4,2.09,1.26,2.36,1.13,2.63.98,2.89.86,3.13.72,3.37.6,3.62.46,3.84.34,4.06.24,4.26.11,4.46v4.64s-.12,4.81-.12,4.81l-.22,4.96-.32,5.11-.42,5.23-.51,5.34-.6,5.44-.69,5.51-.77,5.57-.86,5.63-.92,5.64-1,5.67-1.07,5.65-1.13,5.63-1.19,5.6-1.26,5.52-1.31,5.45-1.37,5.37-1.41,5.25-1.46,5.12-1.52,4.99-1.55,4.83-1.6,4.65-1.64,4.48-1.68,4.26-1.73,4.06-1.76,3.83-1.8,3.59-1.83,3.33-1.87,3.09-1.91,2.82-1.93,2.53-1.97,2.25-2.01,1.96-2.03,1.65-2.07,1.35-2.1,1.05-2.13.73-2.16.44-2.19.11-2.21-.2-2.24-.51-2.27-.82-2.3-1.13-2.32-1.43-2.33-1.72-2.37-2.01-2.38-2.3-2.39-2.57-2.41-2.84-2.43-3.1-2.43-3.35-2.44-3.57-2.44-3.79-2.44-4.02-2.44-4.21-2.43-4.38-2.4-4.56-2.39-4.71-2.38-4.85-2.33-4.97-2.31-5.08-2.27-5.18-2.21-5.24-2.18-5.31-2.11-5.35-2.05-5.37-1.98-5.38-1.91-5.38-1.83-5.35-1.72-5.32-1.64-5.25-1.53-5.2-1.43-5.1-1.31-5.01-1.18-4.9-1.05-4.76-.92-4.63-.78-4.46-.62-4.31-.47-4.13-.32-3.95-.15-3.75v-3.55s.2-3.32.2-3.32l.37-3.11.55-2.89.72-2.65.92-2.4,1.1-2.17,1.3-1.93,1.47-1.67,1.67-1.43,1.85-1.17,2.05-.93,2.23-.67,2.41-.42,2.6-.18,2.77.06,2.95.31,3.12.54,3.27.77,3.44.98,3.59,1.21,3.72,1.41,3.86,1.61,3.99,1.81,4.11,2,4.21,2.17,4.31,2.34,4.39,2.5,4.48,2.65,4.52,2.79,4.58,2.91,4.62,3.03,4.64,3.13,4.65,3.24,4.65,3.31,4.64,3.39,4.59,3.45,4.56,3.5,4.5,3.56,4.43,3.57,4.35,3.6,4.23,3.6,4.13,3.62,3.99,3.6,3.85,3.58,3.7,3.57,3.53,3.52,3.35,3.49,3.16,3.43,2.95,3.38,2.74,3.31,2.51,3.24,2.27,3.17,2.03,3.09,1.78,2.99,1.52,2.91,1.25,2.8.97,2.71.69,2.6.41,2.5.12,2.39-.16,2.27-.46,2.18-.75,2.05-1.05,1.94-1.33,1.83-1.63,1.71-1.92,1.6-2.19,1.48-2.47,1.38-2.74,1.26-3,1.15-3.26,1.05-3.52.93-3.75.84-3.98.73-4.21.64-4.41.53-4.59.44-4.78.34-4.95.25-5.09.16-5.23.07h-5.36l-5.45-.09-5.55-.16-5.61-.25-5.68-.32-5.7-.39-5.74-.46-5.73-.54-5.71-.59-5.69-.67-5.63-.73-5.56-.79-5.48-.86-5.37-.92-5.27-.98-5.12-1.04-4.97-1.1-4.81-1.17-4.63-1.21-4.43-1.27-4.23-1.33-4.01-1.4-3.77-1.45-3.53-1.51-3.27-1.57-3-1.64-2.73-1.68-2.46-1.74-2.17-1.81-1.87-1.86-1.58-1.93-1.27-1.98-.97-2.05-.66-2.1-.35-2.17-.05-2.21.26-2.27.58-2.33.87-2.38,1.17-2.44,1.46-2.47,1.76-2.53,2.04-2.58,2.3-2.62,2.58-2.66,2.83-2.7,3.06-2.72,3.31-2.76,3.53-2.78,3.73-2.79,3.95-2.82,4.12-2.82,4.29-2.82,4.45-2.83,4.59-2.8,4.72-2.79,4.83-2.77,4.94-2.74,5.01-2.7,5.08-2.66,5.14-2.6,5.16-2.54,5.17-2.47,5.18-2.4,5.17-2.32,5.14-2.23,5.09-2.13,5.04-2.01,4.96-1.9,4.88-1.78,4.77-1.65,4.66-1.51,4.54-1.35,4.41-1.2,4.25-1.05,4.09-.87,3.92-.7,3.73-.52,3.56-.34,3.36-.14,3.16.05,2.95.26,2.73.45,2.51.66,2.3.87,2.06,1.08,1.83,1.28,1.6,1.51,1.37,1.71,1.14,1.92.91,2.14.67,2.33.45,2.54.22,2.74v2.95l-.22,3.12-.44,3.32-.64,3.49-.85,3.66-1.04,3.83-1.24,3.97-1.41,4.12-1.59,4.26-1.76,4.38-1.92,4.49-2.06,4.59-2.2,4.69-2.34,4.76-2.46,4.83-2.58,4.87-2.67,4.91-2.78,4.92-2.86,4.94-2.95,4.94-3,4.9-3.06,4.88-3.11,4.81-3.15,4.75-3.18,4.68-3.2,4.56-3.22,4.45-3.22,4.34-3.22,4.18-3.22,4.04-3.18,3.85-3.17,3.69-3.13,3.49-3.1,3.27-3.05,3.06-2.99,2.83-2.96,2.58-2.89,2.34-2.83,2.07-2.76,1.81-2.7,1.54-2.62,1.25-2.53.97-2.46.67-2.38.39-2.3.08-2.21-.22-2.12-.52-2.05-.82-1.96-1.13-1.86-1.43-1.78-1.72-1.7-2.01-1.6-2.3-1.53-2.58-1.43-2.85-1.35-3.13-1.27-3.38-1.19-3.63-1.1-3.86-1.02-4.1-.95-4.31-.86-4.51-.79-4.7-.72-4.88-.65-5.04-.57-5.18-.49-5.32-.42-5.42-.35-5.54-.28-5.61-.21-5.67-.14-5.71-.08-5.75v-5.75s.06-5.75.06-5.75l.13-5.73.2-5.68.26-5.62.34-5.55.41-5.45.48-5.34.54-5.22.64-5.08.7-4.91.78-4.75.85-4.55.93-4.36,1-4.15,1.1-3.92,1.17-3.68,1.25-3.44,1.33-3.18,1.41-2.91,1.51-2.65,1.59-2.36,1.67-2.07,1.76-1.79,1.85-1.48,1.94-1.19,2.01-.9,2.11-.58,2.2-.29,2.27.02,2.36.31,2.45.61,2.52.91,2.6,1.19,2.67,1.48,2.74,1.74,2.8,2.03,2.87,2.29,2.95,2.53,2.99,2.78,3.04,3,3.09,3.23,3.12,3.44,3.16,3.64,3.18,3.83,3.2,3.99,3.22,4.16,3.23,4.3,3.22,4.43,3.2,4.54,3.18,4.65,3.16,4.72,3.12,4.81,3.07,4.87,3.02,4.89,2.96,4.94,2.89,4.94,2.79,4.92,2.71,4.91,2.59,4.89,2.5,4.83,2.37,4.78,2.23,4.7,2.1,4.62,1.96,4.51,1.79,4.41,1.63,4.29,1.45,4.16,1.27,4.01,1.08,3.86.9,3.7.68,3.52.47,3.36.27,3.17.05,2.98-.16,2.79-.4,2.58-.62,2.39-.86,2.18-1.08,1.97-1.32,1.76-1.55,1.55-1.78,1.33-2.01,1.13-2.24.91-2.46.71-2.69.49-2.9.29-3.11.09-3.31-.09-3.52-.29-3.7-.48-3.88-.66-4.06-.84-4.22-1-4.36-1.18-4.51-1.32-4.64-1.47-4.75-1.61-4.85-1.76-4.95-1.87-5.02-1.99-5.09-2.11-5.12-2.2-5.17-2.3-5.17-2.39-5.18-2.46-5.16-2.53-5.14-2.59-5.09-2.65-5.03-2.69-4.95-2.73-4.87-2.77-4.75-2.78-4.62-2.8-4.49-2.83-4.32-2.82-4.17-2.82-3.98-2.82-3.78-2.8-3.57-2.78-3.36-2.76-3.12-2.73-2.89-2.7-2.63-2.67-2.37-2.63-2.09-2.58-1.81-2.54-1.53-2.5-1.24-2.45-.93-2.39-.64-2.34-.33-2.29-.02-2.23.28-2.17.59-2.12.91-2.06,1.2-1.99,1.52-1.94,1.8-1.87,2.11-1.83,2.39-1.76,2.67-1.71,2.96-1.64,3.22-1.58,3.48-1.53,3.72-1.46,3.95-1.4,4.18-1.35,4.39-1.28,4.58-1.23,4.77-1.18,4.94-1.11,5.1-1.05,5.23-.99,5.35-.93,5.45-.87,5.55-.81,5.62-.74,5.68-.68,5.7-.61,5.74-.54,5.73-.48,5.71-.41,5.68-.33,5.63-.26,5.56-.19,5.48-.11,5.38-.02,5.25.06,5.12.14,4.98.24,4.82.32,4.64.42,4.44.51,4.25.61,4.03.71,3.8.8,3.57.92,3.31,1.02,3.07,1.13,2.8,1.24,2.52,1.34,2.26,1.46,1.98,1.58,1.68,1.7,1.4,1.8,1.11,1.91.81,2.04.53,2.14.22,2.25-.06,2.37-.34,2.47-.64,2.58-.91,2.69-1.19,2.79-1.46,2.89-1.72,2.97-1.98,3.06-2.21,3.16-2.46,3.22-2.7,3.3-2.9,3.37-3.11,3.42-3.31,3.48-3.5,3.52-3.66,3.56-3.82,3.58-3.97,3.59-4.1,3.62-4.21,3.62-4.32,3.59-4.41,3.59-4.49,3.55-4.55,3.52-4.59,3.46-4.63,3.4-4.65,3.33-4.65,3.25-4.64,3.16-4.63,3.05-4.58,2.95-4.55,2.8-4.49,2.69-4.41,2.53-4.34,2.38-4.23,2.2-4.13,2.04-4.02,1.86-3.89,1.66-3.77,1.46-3.62,1.25-3.46,1.04-3.32.81-3.15.59-2.99.35-2.82.12-2.63-.13-2.46-.38-2.26-.61-2.09-.87-1.91-1.12-1.71-1.37-1.51-1.63-1.33-1.86-1.14-2.12-.95-2.36-.77-2.6-.59-2.83-.4-3.06-.22-3.27-.06-3.5.12-3.71.28-3.9.44-4.09.59-4.28.75-4.44.88-4.58,1.02-4.74,1.15-4.88,1.27-4.98,1.4-5.08,1.51-5.17,1.61-5.25,1.71-5.3,1.8-5.35,1.88-5.37,1.97-5.4,2.04-5.37,2.1-5.36,2.16-5.31,2.21-5.27,2.26-5.2,2.3-5.1,2.33-4.99,2.37-4.88,2.38-4.75,2.41-4.59,2.41-4.43,2.44-4.24,2.44-4.05,2.44-3.84,2.44-3.63,2.43-3.39,2.43-3.15,2.41-2.9,2.4-2.63,2.38-2.37,2.37-2.07,2.34-1.78,2.33-1.5,2.3-1.19,2.27-.9,2.25-.58,2.23-.27,2.19.05,2.17.35,2.13.67,2.11.98,2.07,1.3,2.04,1.59,2.01,1.88,1.98,2.19,1.94,2.47,1.91,2.74,1.87,3.03,1.85,3.29,1.8,3.53,1.77,3.78,1.73,4.01,1.7,4.23,1.65,4.43,1.61,4.62,1.57,4.79,1.52,4.96,1.47,5.1,1.44,5.23,1.37,5.34,1.33,5.44,1.26,5.51,1.21,5.57,1.14,5.63,1.08,5.65,1.01,5.65.94,5.65.87,5.63.79,5.58.71,5.54.61,5.45.54,5.36.44,5.27.34,5.12.24,5.01.14,4.84.02,4.68-.08,4.5-.2,4.31-.32,4.1-.44,3.89-.57,3.68-.69,3.43-.82,3.18-.95,2.95-1.1,2.67-1.24,2.41-1.37,2.14-1.51,1.87-1.65,1.6-1.79,1.31-1.92,1.04-2.07.75-2.2.48-2.34.19-2.49-.08-2.62-.35-2.74-.64-2.86-.9-2.99-1.14-3.11-1.41-3.22-1.65-3.32-1.9-3.43-2.12-3.52-2.34-3.6-2.57-3.69-2.76-3.76-2.95-3.82-3.13-3.88-3.3-3.91-3.45-3.95-3.6-3.97-3.73-3.99-3.85-3.98-3.95-3.98-4.05-3.96-4.13-3.92-4.19-3.88-4.25-3.83-4.29-3.76-4.31-3.68-4.34-3.58-4.34-3.49-4.32-3.36-4.31-3.24-4.26-3.1-4.23-2.96-4.16-2.78-4.11-2.62-4.02-2.44-3.93-2.24-3.84-2.04-3.75-1.83-3.62-1.61-3.51-1.38-3.37-1.15-3.24-.9-3.11-.66-2.96-.41-2.82-.15-2.65.12-2.5.38-2.34.64-2.17.91-2.01,1.17-1.85,1.45-1.68,1.7-1.52,1.97-1.34,2.23-1.19,2.49-1.02,2.73-.86,2.98-.71,3.23-.55,3.44-.39,3.68-.25,3.89-.11,4.09.05,4.29.18,4.46.32,4.63.45,4.79.57,4.94.68,5.07.8,5.17.91,5.29,1.01,5.36,1.11,5.43,1.2,5.49,1.3,5.52,1.37,5.54,1.45,5.55,1.53,5.52,1.58,5.5,1.66,5.45,1.71,5.38,1.77,5.3,1.8,5.21,1.86,5.1,1.9,4.96,1.94,4.81,1.97,4.65,1.99,4.48,2.03,4.29,2.06,4.08,2.06,3.86,2.1,3.64,2.11,3.38,2.12,3.15,2.13,2.87,2.16,2.6,2.16,2.32,2.16,2.03,2.18,1.74,2.17,1.44,2.18,1.13,2.19.82,2.18.51,2.19.2,2.19-.12,2.19-.44,2.18-.74,2.19-1.05,2.18-1.35,2.18-1.66,2.18-1.96,2.18-2.25,2.16-2.52,2.17-2.82,2.14-3.06,2.14-3.32,2.12-3.57,2.11-3.81,2.1-4.03,2.09-4.23,2.05-4.43,2.04-4.61,2-4.77,1.98-4.92,1.94-5.07,1.91-5.17,1.87-5.29,1.83-5.36,1.78-5.44,1.72-5.49,1.66-5.52,1.61-5.54,1.54-5.55,1.46-5.52,1.4-5.5,1.31-5.44,1.23-5.38,1.13-5.3,1.04-5.21.94-5.1.82-4.97.72-4.83.6-4.68.47-4.51.35-4.34.21-4.13.08-3.95-.07-3.72-.2-3.51-.35-3.27-.51-3.05-.67-2.79-.81-2.56-.99-2.29-1.14-2.04-1.31-1.78-1.47-1.51-1.64-1.24-1.8-.98-1.98-.71-2.13-.45-2.3-.18-2.45.08-2.62.34-2.77.59-2.92.84-3.07,1.1-3.2,1.32-3.35,1.54-3.46,1.78-3.59,1.98-3.71,2.19-3.82,2.38-3.91,2.57-4.01,2.74-4.08,2.91-4.16,3.06-4.21,3.2-4.25,3.33-4.3,3.45-4.32,3.56-4.34,3.65-4.34,3.73-4.32,3.82-4.3,3.86-4.25,3.91-4.22,3.96-4.15,3.97-4.08,3.98-3.98,3.98-3.88,3.98-3.76,3.96-3.64,3.92-3.5,3.89-3.33,3.83-3.18,3.77-2.99,3.71-2.82,3.63-2.62,3.55-2.39,3.45-2.19,3.35-1.96,3.25-1.71,3.13-1.47,3.03-1.23,2.9-.97,2.78-.7,2.64-.42,2.52-.15,2.38.12,2.24.4,2.11.68,1.97.95,1.83,1.25,1.68,1.52,1.54,1.8,1.4,2.07,1.27,2.34,1.13,2.62.99,2.86.86,3.13.73,3.36.6,3.6.47,3.84.34,4.05.24,4.25.12,4.45v4.63l-.12,4.81-.21,4.96-.32,5.1-.41,5.22-.51,5.34-.6,5.44-.68,5.51-.77,5.57-.85,5.62-.93,5.65-.99,5.65-1.06,5.65-1.13,5.63-1.2,5.6-1.25,5.54-1.31,5.45-1.37,5.37-1.41,5.27-1.46,5.12-1.51,4.99-1.55,4.84-1.6,4.66-1.64,4.48-1.68,4.29-1.72,4.06-1.77,3.84-1.79,3.6-1.84,3.35-1.86,3.1-1.91,2.83-1.93,2.54-1.97,2.26-2,1.97-2.04,1.67-2.06,1.37-2.1,1.06-2.13.74-2.16.45-2.19.12-2.21-.19-2.24-.49-2.26-.8-2.3-1.12-2.32-1.41-2.34-1.71-2.36-2-2.38-2.29-2.4-2.56-2.4-2.83-2.43-3.09-2.43-3.33-2.44-3.56-2.44-3.79-2.44-4.01-2.44-4.19-2.43-4.38-2.41-4.55-2.39-4.7-2.37-4.85-2.34-4.96-2.31-5.08-2.26-5.17-2.23-5.25-2.18-5.3-2.11-5.35-2.06-5.37-1.98-5.38-1.91-5.38-1.83-5.36-1.73-5.31-1.64-5.27-1.54-5.19-1.43-5.11-1.31-5.01-1.19-4.9-1.06-4.77-.92-4.63-.78-4.48-.64-4.31-.48-4.15-.32-3.95-.16-3.76v-3.56s.19-3.33.19-3.33l.37-3.12.53-2.9.72-2.65.91-2.43,1.1-2.18,1.28-1.93,1.46-1.68,1.66-1.44,1.85-1.18,2.04-.94,2.21-.68,2.41-.44,2.59-.19,2.76.06,2.95.28,3.11.53,3.27.75,3.43.98,3.58,1.2,3.72,1.4,3.86,1.61,3.98,1.8,4.1,1.99,4.22,2.17,4.3,2.33,4.39,2.5,4.46,2.64,4.54,2.78,4.57,2.91,4.62,3.03,4.64,3.13,4.65,3.23,4.65,3.31,4.63,3.38,4.61,3.45,4.57,3.5,4.5,3.55,4.43,3.58,4.35,3.6,4.24,3.6,4.13,3.62,3.99,3.6,3.86,3.58,3.71,3.57,3.53,3.52,3.36,3.49,3.17,3.44,2.96,3.38,2.74,3.31,2.52,3.25,2.29,3.17,2.04,3.09,1.79,2.99,1.53,2.91"/>
  </g>
</svg>