<?xml version="1.0" encoding="UTF-8"?>
<svg id="Layer_2" data-name="Layer 2" xmlns="http://www.w3.org/2000/svg" viewBox="0 0 213.31 213.31">
  <defs>
    <style>
      .cls-1 {
        fill: none;
        stroke: #3f28b2;
        stroke-miterlimit: 10;
        stroke-width: .25px;
      }
    </style>
  </defs>
  <g id="Layer_1-2" data-name="Layer 1">
    <path class="cls-1" d="M213.19,106.66v.12l-.02.12-.02.12-.02.12-.03.12-.05.1-.05.12-.05.12-.05.12-.09.12-.07.12-.09.1-.09.12-.1.12-.1.1-.12.12-.12.12-.14.1-.12.12-.16.1-.16.12-.16.1-.16.1-.17.12-.19.1-.19.1-.19.1-.21.1-.21.1-.21.1-.23.1-.24.1-.23.1-.26.09-.24.1-.26.09-.28.1-.26.09-.3.09-.28.1-.3.09-.31.09-.3.09-.33.07-.31.09-.33.09-.35.07-.33.09-.37.07-.35.07-.37.07-.37.07-.38.07-.38.07-.4.07-.38.05-.42.07-.4.05-.42.05-.42.05-.44.05-.44.05-.44.05-.45.03-.45.05-.47.03-.47.03-.47.03-.47.03-.49.03-.49.03-.51.02-.51.02-.51.03-.51.02-.52.02h-.52l-.54.02h-.54l-.54.02h-1.1l-.56-.02h-1.14l-.58-.02-.59-.02-.58-.02-.59-.02-.59-.02-.61-.03-.59-.03-.63-.02-.61-.03-.61-.05-.63-.03-.63-.05-.65-.03-.63-.05-.65-.05-.66-.05-.65-.07-.66-.05-.66-.07-.66-.07-.66-.07-.68-.09-.68-.07-.68-.09-.68-.09-.7-.09-.68-.09-.7-.09-.72-.1-.7-.1-.72-.1-.7-.1-.73-.1-.72-.12-.72-.12-.73-.12-.73-.12-.73-.12-.73-.12-.73-.14-.75-.14-.73-.14-.75-.14-.75-.16-.75-.14-.75-.16-.77-.16-.77-.17-.75-.16-.77-.17-.77-.16-.77-.17-.79-.19-.77-.17-.79-.19-.77-.17-.79-.19-.79-.19-.79-.21-.79-.19-.79-.21-.79-.21-.8-.21-.79-.21-.8-.23-.79-.21-.8-.23-.8-.23-.79-.23-.8-.24-.8-.23-.8-.24-.8-.24-.8-.24-.8-.26-.82-.24-.8-.26-.8-.26-.8-.26-.82-.26-.8-.26-.8-.28-.82-.26-.8-.28-.8-.28-.82-.3-.8-.28-.82-.3-.8-.28-.8-.3-.82-.31-.8-.3-.8-.3-.8-.31-.82-.31-.8-.3-.8-.33-.8-.31-.8-.31-.8-.33-.8-.31-.8-.33-.8-.33-.8-.33-.8-.35-.79-.33-.8-.35-.79-.33-.8-.35-.79-.35-.79-.35-.79-.37-.8-.35-.77-.37-.79-.35-.79-.37-.79-.37-.77-.37-.79-.37-.77-.38-.77-.37-.77-.38-.77-.37-.77-.38-.75-.38-.77-.38-.75-.38-.77-.38-.75-.38-.73-.4-.75-.38-.75-.4-.73-.4-.73-.38-.75-.4-.72-.4-.73-.4-.73-.4-.72-.42-.72-.4-.72-.4-.72-.42-.72-.4-.7-.42-.7-.42-.7-.4-.7-.42-.7-.42-.68-.42-.68-.42-.68-.42-.68-.42-.68-.42-.66-.42-.66-.42-.66-.44-.65-.42-.66-.42-.65-.42-.65-.44-.63-.42-.65-.44-.63-.42-.63-.44-.61-.42-.63-.42-.61-.44-.61-.44-.59-.42-.61-.44-.59-.42-.58-.44-.59-.42-.58-.44-.58-.42-.58-.44-.56-.42-.56-.42-.56-.44-.56-.42-.54-.44-.54-.42-.54-.42-.52-.44-.52-.42-.52-.42-.51-.42-.51-.42-.51-.42-.51-.42-.49-.42-.49-.42-.49-.42-.47-.42-.47-.4-.47-.42-.45-.42-.45-.4-.45-.4-.44-.42-.45-.4-.42-.4-.44-.4-.42-.4-.42-.4-.4-.4-.4-.38-.4-.4-.4-.38-.38-.4-.38-.38-.37-.38-.37-.38-.37-.38-.37-.38-.35-.37-.35-.38-.33-.37-.33-.37-.33-.37-.31-.37-.33-.37-.3-.37-.31-.35-.3-.35-.3-.37-.28-.35-.28-.35-.28-.33-.26-.35-.26-.33-.26-.33-.24-.33-.24-.33-.24-.33-.23-.31-.23-.33-.21-.31-.23-.31-.21-.3-.19-.31-.19-.3-.19-.3-.19-.3-.17-.3-.17-.28-.16-.3-.16-.28-.16-.26-.14-.28-.14-.28-.14-.26-.14-.26-.12-.24-.1-.26-.12-.24-.1-.24-.09-.24-.1-.24-.09-.23-.07-.23-.09-.23-.07-.21-.05-.23-.07-.21-.05-.19-.03-.21-.05-.19-.03-.19-.02-.19-.03-.19-.02-.17v-.17l-.02-.16v-.17l.02-.16v-.16l.02-.14.03-.16.02-.14.03-.12.03-.14.05-.12.05-.12.05-.1.07-.1.05-.1.07-.1.09-.09.09-.09.09-.09.09-.09.1-.07.1-.05.1-.07.1-.05.12-.05.12-.05.14-.03.12-.03.14-.02.16-.03.14-.02h.16l.16-.02h.17l.16.02h.17l.17.02.19.03.19.02.19.03.19.05.21.03.19.05.21.07.23.05.21.07.23.09.23.07.23.09.24.1.24.09.24.1.24.12.26.1.24.12.26.14.26.14.28.14.28.14.26.16.28.16.3.16.28.17.3.17.3.19.3.19.3.19.31.19.3.21.31.23.31.21.33.23.31.23.33.24.33.24.33.24.33.26.33.26.35.26.33.28.35.28.35.28.37.3.35.3.35.31.37.3.37.33.37.31.37.33.37.33.37.33.38.35.37.35.38.37.38.37.38.37.38.37.38.38.4.38.38.4.4.4.38.4.4.4.4.42.4.42.4.44.4.42.4.45.42.44.4.45.4.45.42.45.42.47.4.47.42.47.42.49.42.49.42.49.42.51.42.51.42.51.42.51.42.52.42.52.44.52.42.54.42.54.44.54.42.56.44.56.42.56.42.56.44.58.42.58.44.58.42.59.44.58.42.59.44.61.42.59.44.61.44.61.42.63.42.61.44.63.42.63.44.65.42.63.44.65.42.65.42.66.42.65.44.66.42.66.42.66.42.68.42.68.42.68.42.68.42.68.42.7.42.7.4.7.42.7.42.7.4.72.42.72.4.72.4.72.42.72.4.73.4.73.4.72.4.75.38.73.4.73.4.75.38.75.4.73.38.75.38.77.38.75.38.77.38.75.38.77.37.77.38.77.37.77.38.77.37.79.37.77.37.79.37.79.35.79.37.77.35.8.37.79.35.79.35.79.35.8.33.79.35.8.33.79.35.8.33.8.33.8.33.8.31.8.33.8.31.8.31.8.33.8.3.8.31.82.31.8.3.8.3.8.31.82.3.8.28.8.3.82.28.8.3.82.28.8.28.8.26.82.28.8.26.8.26.82.26.8.26.8.26.8.24.82.26.8.24.8.24.8.24.8.23.8.24.8.23.79.23.8.23.8.21.79.23.8.21.79.21.8.21.79.21.79.19.79.21.79.19.79.19.79.17.77.19.79.17.77.19.79.17.77.16.77.17.77.16.75.17.77.16.77.16.75.14.75.16.75.14.75.14.73.14.75.14.73.12.73.12.73.12.73.12.73.12.72.12.72.1.73.1.7.1.72.1.7.1.72.09.7.09.68.09.7.09.68.09.68.07.68.09.68.07.66.07.66.07.66.05.66.07.65.05.66.05.65.05.63.03.65.05.63.03.63.05.61.03.61.02.63.03.59.03.61.02.59.02.59.02.58.02.59.02.58v1.14l.02.56v1.1l-.02.54v.54l-.02.54v.52l-.02.52-.02.51-.03.51-.02.51-.02.51-.03.49-.03.49-.03.47-.03.47-.03.47-.03.47-.05.45-.03.45-.05.44-.05.44-.05.44-.05.42-.05.42-.05.4-.07.42-.05.38-.07.4-.07.38-.07.38-.07.37-.07.37-.07.35-.07.37-.09.33-.07.35-.09.33-.09.31-.07.33-.09.3-.09.31-.09.3-.1.28-.09.3-.09.26-.1.28-.09.26-.1.24-.09.26-.1.23-.1.24-.1.23-.1.21-.1.21-.1.21-.1.19-.1.19-.1.19-.12.17-.1.16-.1.16-.12.16-.1.16-.12.12-.1.14-.12.12-.12.12-.1.1-.12.1-.12.09-.1.09-.12.07-.12.09-.12.05-.12.05-.12.05-.1.05-.12.03-.12.02-.12.02-.12.02h-.24l-.12-.02-.12-.02-.12-.02-.12-.03-.1-.05-.12-.05-.12-.05-.12-.05-.12-.09-.12-.07-.1-.09-.12-.09-.12-.1-.1-.1-.12-.12-.12-.12-.1-.14-.12-.12-.1-.16-.12-.16-.1-.16-.1-.16-.12-.17-.1-.19-.1-.19-.1-.19-.1-.21-.1-.21-.1-.21-.1-.23-.1-.24-.1-.23-.09-.26-.1-.24-.09-.26-.1-.28-.09-.26-.09-.3-.1-.28-.09-.3-.09-.31-.09-.3-.07-.33-.09-.31-.09-.33-.07-.35-.09-.33-.07-.37-.07-.35-.07-.37-.07-.37-.07-.38-.07-.38-.07-.4-.05-.38-.07-.42-.05-.4-.05-.42-.05-.42-.05-.44-.05-.44-.05-.44-.03-.45-.05-.45-.03-.47-.03-.47-.03-.47-.03-.47-.03-.49-.03-.49-.02-.51-.02-.51-.03-.51-.02-.51-.02-.52v-.52l-.02-.54v-.54l-.02-.54v-1.1l.02-.56v-1.14l.02-.58.02-.59.02-.58.02-.59.02-.59.03-.61.03-.59.02-.63.03-.61.05-.61.03-.63.05-.63.03-.65.05-.63.05-.65.05-.66.07-.65.05-.66.07-.66.07-.66.07-.66.09-.68.07-.68.09-.68.09-.68.09-.7.09-.68.09-.7.1-.72.1-.7.1-.72.1-.7.1-.73.12-.72.12-.72.12-.73.12-.73.12-.73.12-.73.14-.73.14-.75.14-.73.14-.75.16-.75.14-.75.16-.75.16-.77.17-.77.16-.75.17-.77.16-.77.17-.77.19-.79.17-.77.19-.79.17-.77.19-.79.19-.79.21-.79.19-.79.21-.79.21-.79.21-.8.21-.79.23-.8.21-.79.23-.8.23-.8.23-.79.24-.8.23-.8.24-.8.24-.8.24-.8.26-.8.24-.82.26-.8.26-.8.26-.8.26-.82.26-.8.28-.8.26-.82.28-.8.28-.8.3-.82.28-.8.3-.82.28-.8.3-.8.31-.82.3-.8.3-.8.31-.8.31-.82.3-.8.33-.8.31-.8.31-.8.33-.8.31-.8.33-.8.33-.8.33-.8.35-.8.33-.79.35-.8.33-.79.35-.8.35-.79.35-.79.37-.79.35-.8.37-.77.35-.79.37-.79.37-.79.37-.77.37-.79.38-.77.37-.77.38-.77.37-.77.38-.77.38-.75.38-.77.38-.75.38-.77.38-.75.4-.73.38-.75.4-.75.4-.73.38-.73.4-.75.4-.72.4-.73.4-.73.42-.72.4-.72.4-.72.42-.72.4-.72.42-.7.42-.7.4-.7.42-.7.42-.7.42-.68.42-.68.42-.68.42-.68.42-.68.42-.66.42-.66.44-.66.42-.65.42-.66.42-.65.44-.65.42-.63.44-.65.42-.63.44-.63.42-.61.42-.63.44-.61.44-.61.42-.59.44-.61.42-.59.44-.58.42-.59.44-.58.42-.58.44-.58.42-.56.42-.56.44-.56.42-.56.44-.54.42-.54.42-.54.44-.52.42-.52.42-.52.42-.51.42-.51.42-.51.42-.51.42-.49.42-.49.42-.49.42-.47.4-.47.42-.47.42-.45.4-.45.4-.45.42-.44.4-.45.4-.42.4-.44.4-.42.4-.42.4-.4.38-.4.4-.4.38-.4.4-.38.38-.38.38-.37.38-.37.38-.37.38-.37.37-.35.38-.35.37-.33.37-.33.37-.33.37-.31.37-.33.37-.3.35-.31.35-.3.37-.3.35-.28.35-.28.33-.28.35-.26.33-.26.33-.26.33-.24.33-.24.33-.24.31-.23.33-.23.31-.21.31-.23.3-.21.31-.19.3-.19.3-.19.3-.19.3-.17.28-.17.3-.16.28-.16.26-.16.28-.14.28-.14.26-.14.26-.14.24-.12.26-.1.24-.12.24-.1.24-.09.24-.1.23-.09.23-.07.23-.09.21-.07.23-.05.21-.07.19-.05.21-.03.19-.05.19-.03.19-.02.19-.03.17-.02h.17l.16-.02h.17l.16.02h.16l.14.02.16.03.14.02.12.03.14.03.12.05.12.05.1.05.1.07.1.05.1.07.09.09.09.09.09.09.09.09.07.1.05.1.07.1.05.1.05.12.05.12.03.14.03.12.02.14.03.16.02.14v.16l.02.16v.17l-.02.16v.17l-.02.17-.03.19-.02.19-.03.19-.05.19-.03.21-.05.19-.07.21-.05.23-.07.21-.09.23-.07.23-.09.23-.1.24-.09.24-.1.24-.12.24-.1.26-.12.24-.14.26-.14.26-.14.28-.14.28-.16.26-.16.28-.16.3-.17.28-.17.3-.19.3-.19.3-.19.3-.19.31-.21.3-.23.31-.21.31-.23.33-.23.31-.24.33-.24.33-.24.33-.26.33-.26.33-.26.35-.28.33-.28.35-.28.35-.3.37-.3.35-.31.35-.3.37-.33.37-.31.37-.33.37-.33.37-.33.37-.35.38-.35.37-.37.38-.37.38-.37.38-.37.38-.38.38-.38.4-.4.38-.4.4-.4.38-.4.4-.42.4-.42.4-.44.4-.42.4-.45.4-.44.42-.45.4-.45.4-.45.42-.47.42-.47.4-.47.42-.49.42-.49.42-.49.42-.51.42-.51.42-.51.42-.51.42-.52.42-.52.42-.52.44-.54.42-.54.42-.54.44-.56.42-.56.44-.56.42-.56.42-.58.44-.58.42-.58.44-.59.42-.58.44-.59.42-.61.44-.59.42-.61.44-.61.44-.63.42-.61.42-.63.44-.63.42-.65.44-.63.42-.65.44-.65.42-.66.42-.65.42-.66.44-.66.42-.66.42-.68.42-.68.42-.68.42-.68.42-.68.42-.7.42-.7.42-.7.4-.7.42-.7.42-.72.4-.72.42-.72.4-.72.4-.72.42-.73.4-.73.4-.72.4-.75.4-.73.38-.73.4-.75.4-.75.38-.73.4-.75.38-.77.38-.75.38-.77.38-.75.38-.77.38-.77.37-.77.38-.77.37-.77.38-.79.37-.77.37-.79.37-.79.37-.79.35-.77.37-.8.35-.79.37-.79.35-.79.35-.8.35-.79.33-.8.35-.79.33-.8.35-.8.33-.8.33-.8.33-.8.31-.8.33-.8.31-.8.31-.8.33-.8.3-.82.31-.8.31-.8.3-.8.3-.82.31-.8.3-.8.28-.82.3-.8.28-.82.3-.8.28-.8.28-.82.26-.8.28-.8.26-.82.26-.8.26-.8.26-.8.26-.82.24-.8.26-.8.24-.8.24-.8.24-.8.23-.8.24-.79.23-.8.23-.8.23-.79.21-.8.23-.79.21-.8.21-.79.21-.79.21-.79.19-.79.21-.79.19-.79.19-.77.17-.79.19-.77.17-.79.19-.77.17-.77.16-.77.17-.75.16-.77.17-.77.16-.75.16-.75.14-.75.16-.75.14-.73.14-.75.14-.73.14-.73.12-.73.12-.73.12-.73.12-.72.12-.72.12-.73.1-.7.1-.72.1-.7.1-.72.1-.7.09-.68.09-.7.09-.68.09-.68.09-.68.07-.68.09-.66.07-.66.07-.66.07-.66.05-.65.07-.66.05-.65.05-.63.05-.65.03-.63.05-.63.03-.61.05-.61.03-.63.02-.59.03-.61.03-.59.02-.59.02-.58.02-.59.02-.58.02h-1.14l-.56.02h-1.1l-.54-.02h-.54l-.54-.02h-.52l-.52-.02-.51-.02-.51-.03-.51-.02-.51-.02-.49-.03-.49-.03-.47-.03-.47-.03-.47-.03-.47-.03-.45-.05-.45-.03-.44-.05-.44-.05-.44-.05-.42-.05-.42-.05-.4-.05-.42-.07-.38-.05-.4-.07-.38-.07-.38-.07-.37-.07-.37-.07-.35-.07-.37-.07-.33-.09-.35-.07-.33-.09-.31-.09-.33-.07-.3-.09-.31-.09-.3-.09-.28-.1-.3-.09-.26-.09-.28-.1-.26-.09-.24-.1-.26-.09-.23-.1-.24-.1-.23-.1-.21-.1-.21-.1-.21-.1-.19-.1-.19-.1-.19-.1-.17-.12-.16-.1-.16-.1-.16-.12-.16-.1-.12-.12-.14-.1-.12-.12-.12-.12-.1-.1-.1-.12-.09-.12-.09-.1-.07-.12-.09-.12-.05-.12-.05-.12-.05-.12-.05-.1-.03-.12-.02-.12-.02-.12-.02-.12v-.24l.02-.12.02-.12.02-.12.03-.12.05-.1.05-.12.05-.12.05-.12.09-.12.07-.12.09-.1.09-.12.1-.12.1-.1.12-.12.12-.12.14-.1.12-.12.16-.1.16-.12.16-.1.16-.1.17-.12.19-.1.19-.1.19-.1.21-.1.21-.1.21-.1.23-.1.24-.1.23-.1.26-.09.24-.1.26-.09.28-.1.26-.09.3-.09.28-.1.3-.09.31-.09.3-.09.33-.07.31-.09.33-.09.35-.07.33-.09.37-.07.35-.07.37-.07.37-.07.38-.07.38-.07.4-.07.38-.05.42-.07.4-.05.42-.05.42-.05.44-.05.44-.05.44-.05.45-.03.45-.05.47-.03.47-.03.47-.03.47-.03.49-.03.49-.03.51-.02.51-.02.51-.03.51-.02.52-.02h.52l.54-.02h.54l.54-.02h1.1l.56.02h1.14l.58.02.59.02.58.02.59.02.59.02.61.03.59.03.63.02.61.03.61.05.63.03.63.05.65.03.63.05.65.05.66.05.65.07.66.05.66.07.66.07.66.07.68.09.68.07.68.09.68.09.7.09.68.09.7.09.72.1.7.1.72.1.7.1.73.1.72.12.72.12.73.12.73.12.73.12.73.12.73.14.75.14.73.14.75.14.75.16.75.14.75.16.77.16.77.17.75.16.77.17.77.16.77.17.79.19.77.17.79.19.77.17.79.19.79.19.79.21.79.19.79.21.79.21.8.21.79.21.8.23.79.21.8.23.8.23.79.23.8.24.8.23.8.24.8.24.8.24.8.26.82.24.8.26.8.26.8.26.82.26.8.26.8.28.82.26.8.28.8.28.82.3.8.28.82.3.8.28.8.3.82.31.8.3.8.3.8.31.82.31.8.3.8.33.8.31.8.31.8.33.8.31.8.33.8.33.8.33.8.35.79.33.8.35.79.33.8.35.79.35.79.35.79.37.8.35.77.37.79.35.79.37.79.37.77.37.79.37.77.38.77.37.77.38.77.37.77.38.75.38.77.38.75.38.77.38.75.38.73.4.75.38.75.4.73.4.73.38.75.4.72.4.73.4.73.4.72.42.72.4.72.4.72.42.72.4.7.42.7.42.7.4.7.42.7.42.68.42.68.42.68.42.68.42.68.42.66.42.66.42.66.44.65.42.66.42.65.42.65.44.63.42.65.44.63.42.63.44.61.42.63.42.61.44.61.44.59.42.61.44.59.42.58.44.59.42.58.44.58.42.58.44.56.42.56.42.56.44.56.42.54.44.54.42.54.42.52.44.52.42.52.42.51.42.51.42.51.42.51.42.49.42.49.42.49.42.47.42.47.4.47.42.45.42.45.4.45.4.44.42.45.4.42.4.44.4.42.4.42.4.4.4.4.38.4.4.4.38.38.4.38.38.37.38.37.38.37.38.37.38.35.37.35.38.33.37.33.37.33.37.31.37.33.37.3.37.31.35.3.35.3.37.28.35.28.35.28.33.26.35.26.33.26.33.24.33.24.33.24.33.23.31.23.33.21.31.23.31.21.3.19.31.19.3.19.3.19.3.17.3.17.28.16.3.16.28.16.26.14.28.14.28.14.26.14.26.12.24.1.26.12.24.1.24.09.24.1.24.09.23.07.23.09.23.07.21.05.23.07.21.05.19.03.21.05.19.03.19.02.19.03.19.02.17v.17l.02.16v.17l-.02.16v.16l-.02.14-.03.16-.02.14-.03.12-.03.14-.05.12-.05.12-.05.1-.07.1-.05.1-.07.1-.09.09-.09.09-.09.09-.09.09-.1.07-.1.05-.1.07-.1.05-.12.05-.12.05-.14.03-.12.03-.14.02-.16.03-.14.02h-.16l-.16.02h-.17l-.16-.02h-.17l-.17-.02-.19-.03-.19-.02-.19-.03-.19-.05-.21-.03-.19-.05-.21-.07-.23-.05-.21-.07-.23-.09-.23-.07-.23-.09-.24-.1-.24-.09-.24-.1-.24-.12-.26-.1-.24-.12-.26-.14-.26-.14-.28-.14-.28-.14-.26-.16-.28-.16-.3-.16-.28-.17-.3-.17-.3-.19-.3-.19-.3-.19-.31-.19-.3-.21-.31-.23-.31-.21-.33-.23-.31-.23-.33-.24-.33-.24-.33-.24-.33-.26-.33-.26-.35-.26-.33-.28-.35-.28-.35-.28-.37-.3-.35-.3-.35-.31-.37-.3-.37-.33-.37-.31-.37-.33-.37-.33-.37-.33-.38-.35-.37-.35-.38-.37-.38-.37-.38-.37-.38-.37-.38-.38-.4-.38-.38-.4-.4-.4-.38-.4-.4-.4-.4-.42-.4-.42-.4-.44-.4-.42-.4-.45-.42-.44-.4-.45-.4-.45-.42-.45-.42-.47-.4-.47-.42-.47-.42-.49-.42-.49-.42-.49-.42-.51-.42-.51-.42-.51-.42-.51-.42-.52-.42-.52-.44-.52-.42-.54-.42-.54-.44-.54-.42-.56-.44-.56-.42-.56-.42-.56-.44-.58-.42-.58-.44-.58-.42-.59-.44-.58-.42-.59-.44-.61-.42-.59-.44-.61-.44-.61-.42-.63-.42-.61-.44-.63-.42-.63-.44-.65-.42-.63-.44-.65-.42-.65-.42-.66-.42-.65-.44-.66-.42-.66-.42-.66-.42-.68-.42-.68-.42-.68-.42-.68-.42-.68-.42-.7-.42-.7-.4-.7-.42-.7-.42-.7-.4-.72-.42-.72-.4-.72-.4-.72-.42-.72-.4-.73-.4-.73-.4-.72-.4-.75-.38-.73-.4-.73-.4-.75-.38-.75-.4-.73-.38-.75-.38-.77-.38-.75-.38-.77-.38-.75-.38-.77-.37-.77-.38-.77-.37-.77-.38-.77-.37-.79-.37-.77-.37-.79-.37-.79-.35-.79-.37-.77-.35-.8-.37-.79-.35-.79-.35-.79-.35-.8-.33-.79-.35-.8-.33-.79-.35-.8-.33-.8-.33-.8-.33-.8-.31-.8-.33-.8-.31-.8-.31-.8-.33-.8-.3-.8-.31-.82-.31-.8-.3-.8-.3-.8-.31-.82-.3-.8-.28-.8-.3-.82-.28-.8-.3-.82-.28-.8-.28-.8-.26-.82-.28-.8-.26-.8-.26-.82-.26-.8-.26-.8-.26-.8-.24-.82-.26-.8-.24-.8-.24-.8-.24-.8-.23-.8-.24-.8-.23-.79-.23-.8-.23-.8-.21-.79-.23-.8-.21-.79-.21-.8-.21-.79-.21-.79-.19-.79-.21-.79-.19-.79-.19-.79-.17-.77-.19-.79-.17-.77-.19-.79-.17-.77-.16-.77-.17-.77-.16-.75-.17-.77-.16-.77-.16-.75-.14-.75-.16-.75-.14-.75-.14-.73-.14-.75-.14-.73-.12-.73-.12-.73-.12-.73-.12-.73-.12-.72-.12-.72-.1-.73-.1-.7-.1-.72-.1-.7-.1-.72-.09-.7-.09-.68-.09-.7-.09-.68-.09-.68-.07-.68-.09-.68-.07-.66-.07-.66-.07-.66-.05-.66-.07-.65-.05-.66-.05-.65-.05-.63-.03-.65-.05-.63-.03-.63-.05-.61-.03-.61-.02-.63-.03-.59-.03-.61-.02-.59-.02-.59-.02-.58-.02-.59-.02-.58v-1.14l-.02-.56v-1.1l.02-.54v-.54l.02-.54v-.52l.02-.52.02-.51.03-.51.02-.51.02-.51.03-.49.03-.49.03-.47.03-.47.03-.47.03-.47.05-.45.03-.45.05-.44.05-.44.05-.44.05-.42.05-.42.05-.4.07-.42.05-.38.07-.4.07-.38.07-.38.07-.37.07-.37.07-.35.07-.37.09-.33.07-.35.09-.33.09-.31.07-.33.09-.3.09-.31.09-.3.1-.28.09-.3.09-.26.1-.28.09-.26.1-.24.09-.26.1-.23.1-.24.1-.23.1-.21.1-.21.1-.21.1-.19.1-.19.1-.19.12-.17.1-.16.1-.16.12-.16.1-.16.12-.12.1-.14.12-.12.12-.12.1-.1.12-.1.12-.09.1-.09.12-.07.12-.09.12-.05.12-.05.12-.05.1-.05.12-.03.12-.02.12-.02.12-.02h.24l.12.02.12.02.12.02.12.03.1.05.12.05.12.05.12.05.12.09.12.07.1.09.12.09.12.1.1.1.12.12.12.12.1.14.12.12.1.16.12.16.1.16.1.16.12.17.1.19.1.19.1.19.1.21.1.21.1.21.1.23.1.24.1.23.09.26.1.24.09.26.1.28.09.26.09.3.1.28.09.3.09.31.09.3.07.33.09.31.09.33.07.35.09.33.07.37.07.35.07.37.07.37.07.38.07.38.07.4.05.38.07.42.05.4.05.42.05.42.05.44.05.44.05.44.03.45.05.45.03.47.03.47.03.47.03.47.03.49.03.49.02.51.02.51.03.51.02.51.02.52v.52l.02.54v.54l.02.54v1.1l-.02.56v1.14l-.02.58-.02.59-.02.58-.02.59-.02.59-.03.61-.03.59-.02.63-.03.61-.05.61-.03.63-.05.63-.03.65-.05.63-.05.65-.05.66-.07.65-.05.66-.07.66-.07.66-.07.66-.09.68-.07.68-.09.68-.09.68-.09.7-.09.68-.09.7-.1.72-.1.7-.1.72-.1.7-.1.73-.12.72-.12.72-.12.73-.12.73-.12.73-.12.73-.14.73-.14.75-.14.73-.14.75-.16.75-.14.75-.16.75-.16.77-.17.77-.16.75-.17.77-.16.77-.17.77-.19.79-.17.77-.19.79-.17.77-.19.79-.19.79-.21.79-.19.79-.21.79-.21.79-.21.8-.21.79-.23.8-.21.79-.23.8-.23.8-.23.79-.24.8-.23.8-.24.8-.24.8-.24.8-.26.8-.24.82-.26.8-.26.8-.26.8-.26.82-.26.8-.28.8-.26.82-.28.8-.28.8-.3.82-.28.8-.3.82-.28.8-.3.8-.31.82-.3.8-.3.8-.31.8-.31.82-.3.8-.33.8-.31.8-.31.8-.33.8-.31.8-.33.8-.33.8-.33.8-.35.8-.33.79-.35.8-.33.79-.35.8-.35.79-.35.79-.37.79-.35.8-.37.77-.35.79-.37.79-.37.79-.37.77-.37.79-.38.77-.37.77-.38.77-.37.77-.38.77-.38.75-.38.77-.38.75-.38.77-.38.75-.4.73-.38.75-.4.75-.4.73-.38.73-.4.75-.4.72-.4.73-.4.73-.42.72-.4.72-.4.72-.42.72-.4.72-.42.7-.42.7-.4.7-.42.7-.42.7-.42.68-.42.68-.42.68-.42.68-.42.68-.42.66-.42.66-.44.66-.42.65-.42.66-.42.65-.44.65-.42.63-.44.65-.42.63-.44.63-.42.61-.42.63-.44.61-.44.61-.42.59-.44.61-.42.59-.44.58-.42.59-.44.58-.42.58-.44.58-.42.56-.42.56-.44.56-.42.56-.44.54-.42.54-.42.54-.44.52-.42.52-.42.52-.42.51-.42.51-.42.51-.42.51-.42.49-.42.49-.42.49-.42.47-.4.47-.42.47-.42.45-.4.45-.4.45-.42.44-.4.45-.4.42-.4.44-.4.42-.4.42-.4.4-.38.4-.4.4-.38.4-.4.38-.38.38-.38.37-.38.37-.38.37-.38.37-.37.35-.38.35-.37.33-.37.33-.37.33-.37.31-.37.33-.37.3-.35.31-.35.3-.37.3-.35.28-.35.28-.33.28-.35.26-.33.26-.33.26-.33.24-.33.24-.33.24-.31.23-.33.23-.31.21-.31.23-.3.21-.31.19-.3.19-.3.19-.3.19-.3.17-.28.17-.3.16-.28.16-.26.16-.28.14-.28.14-.26.14-.26.14-.24.12-.26.1-.24.12-.24.1-.24.09-.24.1-.23.09-.23.07-.23.09-.21.07-.23.05-.21.07-.19.05-.21.03-.19.05-.19.03-.19.02-.19.03-.17.02h-.17l-.16.02h-.17l-.16-.02h-.16l-.14-.02-.16-.03-.14-.02-.12-.03-.14-.03-.12-.05-.12-.05-.1-.05-.1-.07-.1-.05-.1-.07-.09-.09-.09-.09-.09-.09-.09-.09-.07-.1-.05-.1-.07-.1-.05-.1-.05-.12-.05-.12-.03-.14-.03-.12-.02-.14-.03-.16-.02-.14v-.16l-.02-.16v-.17l.02-.16v-.17l.02-.17.03-.19.02-.19.03-.19.05-.19.03-.21.05-.19.07-.21.05-.23.07-.21.09-.23.07-.23.09-.23.1-.24.09-.24.1-.24.12-.24.1-.26.12-.24.14-.26.14-.26.14-.28.14-.28.16-.26.16-.28.16-.3.17-.28.17-.3.19-.3.19-.3.19-.3.19-.31.21-.3.23-.31.21-.31.23-.33.23-.31.24-.33.24-.33.24-.33.26-.33.26-.33.26-.35.28-.33.28-.35.28-.35.3-.37.3-.35.31-.35.3-.37.33-.37.31-.37.33-.37.33-.37.33-.37.35-.38.35-.37.37-.38.37-.38.37-.38.37-.38.38-.38.38-.4.4-.38.4-.4.4-.38.4-.4.42-.4.42-.4.44-.4.42-.4.45-.4.44-.42.45-.4.45-.4.45-.42.47-.42.47-.4.47-.42.49-.42.49-.42.49-.42.51-.42.51-.42.51-.42.51-.42.52-.42.52-.42.52-.44.54-.42.54-.42.54-.44.56-.42.56-.44.56-.42.56-.42.58-.44.58-.42.58-.44.59-.42.58-.44.59-.42.61-.44.59-.42.61-.44.61-.44.63-.42.61-.42.63-.44.63-.42.65-.44.63-.42.65-.44.65-.42.66-.42.65-.42.66-.44.66-.42.66-.42.68-.42.68-.42.68-.42.68-.42.68-.42.7-.42.7-.42.7-.4.7-.42.7-.42.72-.4.72-.42.72-.4.72-.4.72-.42.73-.4.73-.4.72-.4.75-.4.73-.38.73-.4.75-.4.75-.38.73-.4.75-.38.77-.38.75-.38.77-.38.75-.38.77-.38.77-.37.77-.38.77-.37.77-.38.79-.37.77-.37.79-.37.79-.37.79-.35.77-.37.8-.35.79-.37.79-.35.79-.35.8-.35.79-.33.8-.35.79-.33.8-.35.8-.33.8-.33.8-.33.8-.31.8-.33.8-.31.8-.31.8-.33.8-.3.82-.31.8-.31.8-.3.8-.3.82-.31.8-.3.8-.28.82-.3.8-.28.82-.3.8-.28.8-.28.82-.26.8-.28.8-.26.82-.26.8-.26.8-.26.8-.26.82-.24.8-.26.8-.24.8-.24.8-.24.8-.23.8-.24.79-.23.8-.23.8-.23.79-.21.8-.23.79-.21.8-.21.79-.21.79-.21.79-.19.79-.21.79-.19.79-.19.77-.17.79-.19.77-.17.79-.19.77-.17.77-.16.77-.17.75-.16.77-.17.77-.16.75-.16.75-.14.75-.16.75-.14.73-.14.75-.14.73-.14.73-.12.73-.12.73-.12.73-.12.72-.12.72-.12.73-.1.7-.1.72-.1.7-.1.72-.1.7-.09.68-.09.7-.09.68-.09.68-.09.68-.07.68-.09.66-.07.66-.07.66-.07.66-.05.65-.07.66-.05.65-.05.63-.05.65-.03.63-.05.63-.03.61-.05.61-.03.63-.02.59-.03.61-.03.59-.02.59-.02.58-.02.59-.02.58-.02h1.14l.56-.02h1.1l.54.02h.54l.54.02h.52l.52.02.51.02.51.03.51.02.51.02.49.03.49.03.47.03.47.03.47.03.47.03.45.05.45.03.44.05.44.05.44.05.42.05.42.05.4.05.42.07.38.05.4.07.38.07.38.07.37.07.37.07.35.07.37.07.33.09.35.07.33.09.31.09.33.07.3.09.31.09.3.09.28.1.3.09.26.09.28.1.26.09.24.1.26.09.23.1.24.1.23.1.21.1.21.1.21.1.19.1.19.1.19.1.17.12.16.1.16.1.16.12.16.1.12.12.14.1.12.12.12.12.1.1.1.12.09.12.09.1.07.12.09.12.05.12.05.12.05.12.05.1.03.12.02.12.02.12.02.12v.12"/>
  </g>
</svg>